<svg width="165" height="32" viewBox="0 0 165 32" fill="none" xmlns="http://www.w3.org/2000/svg">
<path d="M133.605 17.5616C133.471 17.6061 132.569 18.6883 131.355 18.7723H125.717C125.717 16.5882 125.717 8.78051 125.761 7.32276C125.761 6.63588 125.761 5.53392 126.619 5.53392C127.28 5.53392 127.014 5.29178 126.595 5.29178H122.377C121.933 5.29178 121.977 5.53392 122.332 5.53392C123.166 5.64263 123.872 5.92924 123.872 6.85825V18.797C123.763 18.797 123.038 18.797 123.038 18.9502C123.038 19.1034 123.872 19.0836 123.96 19.0836C125.899 19.0836 129.693 19.0836 131.562 19.0836C132.314 19.141 133.026 19.4429 133.59 19.9435C133.945 20.0324 134.083 19.9879 134.054 19.899C133.798 19.1788 133.83 18.3874 134.142 17.6901C134.167 17.6012 133.812 17.5369 133.614 17.5814M121.282 17.5814C121.148 17.6259 120.246 18.7081 119.032 18.7921H113.394C113.394 16.6079 113.394 8.80028 113.438 7.34252C113.438 6.65565 113.463 5.55368 114.301 5.55368C114.962 5.55368 114.696 5.31155 114.277 5.31155H110.044C109.605 5.31155 109.649 5.55368 110 5.55368C110.838 5.6624 111.544 5.94901 111.544 6.87802V18.797C111.435 18.797 110.705 18.797 110.705 18.9502C110.705 19.1034 111.544 19.0836 111.633 19.0836C113.571 19.0836 117.36 19.0836 119.234 19.0836C120.645 19.1924 121.084 19.9188 121.262 19.9435C121.617 20.0324 121.755 19.9879 121.726 19.899C121.466 19.1793 121.498 18.3866 121.814 17.6901C121.814 17.6012 121.484 17.5369 121.287 17.5814M108.855 16.6969C108.405 16.6056 107.943 16.5906 107.489 16.6524C107.396 16.6534 107.304 16.6737 107.219 16.712C107.134 16.7502 107.058 16.8057 106.995 16.8748C105.826 18.0459 103.976 19.0145 102.368 18.7278C98.4463 18.1546 96.108 13.9395 97.0995 10.3816C99.4576 10.3816 103.888 10.426 104.529 10.426C105.42 10.3935 106.29 10.7109 106.951 11.3106C107.301 11.3995 107.444 11.3551 107.415 11.2661C107.155 10.5464 107.187 9.75368 107.503 9.05724C107.503 8.97323 107.173 8.90405 106.971 8.94852C106.768 8.993 105.851 10.006 104.504 10.006C103.666 10.006 99.28 10.006 97.2081 10.006C97.6816 8.74409 98.5237 7.65431 99.6245 6.87866C100.725 6.10301 102.034 5.67746 103.379 5.65746C105.624 5.65746 106.729 7.46606 106.946 7.46606C107.163 7.46606 107.365 6.75942 107.479 6.42834C107.918 5.56851 107.972 5.39061 107.06 5.39061C106.147 5.39061 102.561 5.32637 101.569 5.43509C97.9776 5.83535 95.003 8.52849 94.9142 12.1259C94.8698 15.5455 97.5139 18.2831 100.755 18.9008C102.295 19.1934 103.879 19.1631 105.407 18.8119C106.636 18.5231 107.768 17.9146 108.687 17.0477C108.801 16.939 109.062 16.7809 108.821 16.7166M90.8394 5.35108C90.6395 5.32502 90.4364 5.34016 90.2425 5.39555C90.1784 5.44003 90.8838 5.81558 91.1009 6.10219C91.3865 6.47528 91.5424 6.93169 91.5449 7.40182C91.5449 10.7127 91.5893 13.7814 91.5893 16.8501C87.776 12.6152 84.5793 9.03747 81.3826 5.4845C81.2297 5.3066 80.6131 5.35108 80.3713 5.35108H78.8519C78.8273 5.35108 78.408 5.41532 78.5412 5.54874C78.6744 5.68216 78.8717 5.63769 79.0049 5.63769C79.5887 5.77124 80.1103 6.09865 80.4848 6.5667C80.5736 12.9462 80.4848 16.2768 80.4404 16.6969C80.3516 17.3393 80.2628 18.1793 79.8484 18.6735C79.8484 18.718 79.4291 19.0688 79.4489 19.0688C79.6746 19.1125 79.905 19.1274 80.1346 19.1133H82.1818C82.6751 19.1133 82.8231 19.0688 82.7787 19.049C82.3821 18.8467 82.0516 18.5349 81.826 18.1506C81.6005 17.7662 81.4895 17.3252 81.506 16.8797C81.506 13.8308 81.506 10.5891 81.506 7.60443C84.9591 11.4934 88.2249 15.1106 91.4857 18.7328C91.905 19.1973 92.1023 19.0441 92.566 19.0441C92.566 15.1798 92.5907 11.9579 92.5907 8.53344C92.5942 7.90809 92.6754 7.28561 92.8324 6.68036C92.9853 6.15161 93.4046 5.31155 93.602 5.31155L90.8394 5.35108ZM66.677 12.4323V9.46739C66.677 7.85644 67.8215 6.64082 69.188 6.0429C70.4656 5.49438 72.3846 5.4252 73.0013 6.86319C73.682 8.47414 72.6017 10.174 71.2796 11.0339C69.9575 11.8937 68.1125 12.1951 66.677 12.4323ZM77.4855 18.797C75.8082 18.5994 74.4861 16.4794 73.4946 15.3972C72.1333 13.9078 70.3066 12.9266 68.3148 12.6152C70.1253 12.4175 72.064 11.9777 73.5193 10.8263C74.7081 9.90224 75.7194 7.91574 74.6637 6.50246C73.7166 5.2226 70.9146 5.28684 69.6616 5.42026C68.5631 5.50367 67.4991 5.84204 66.5537 6.40857C66.0604 5.17318 64.2598 5.15342 63.2041 5.37084C62.8292 5.45979 63.3126 5.56851 63.4458 5.56851C64.9899 5.7464 64.8123 7.29311 64.8123 8.46425C64.8123 16.4103 64.8764 17.1169 64.7679 17.8235C64.7564 18.0843 64.6495 18.3317 64.4675 18.5186C64.2855 18.7054 64.0412 18.8186 63.7813 18.8366C63.5396 18.9057 63.8701 18.9947 63.9589 19.0145C64.3177 19.0515 64.6785 19.0663 65.0392 19.0589C65.7249 19.0589 66.3416 19.0589 67.047 19.0589C67.3508 19.0966 67.6591 19.0662 67.9498 18.97C68.1273 18.881 67.861 18.8168 67.7722 18.8168C66.5142 18.5055 66.6721 17.868 66.6721 16.7611V12.7931C67.539 12.8745 68.3793 13.1371 69.1386 13.5639C71.5213 14.8438 72.2909 16.5289 73.7659 18.5055C73.9037 18.6771 74.0779 18.8158 74.2758 18.9115C74.4738 19.0073 74.6906 19.0576 74.9104 19.0589C75.6158 19.0589 76.1683 19.0589 76.9182 19.0589C77.1633 19.0733 77.4089 19.0432 77.6433 18.97C77.8209 18.9057 77.5151 18.7921 77.4707 18.7723M48.1186 12.1951C48.1632 10.9923 48.5601 9.82919 49.2599 8.85075C49.9598 7.87232 50.9316 7.12182 52.0543 6.69278C53.1769 6.26375 54.4008 6.17514 55.5734 6.43802C56.746 6.70089 57.8155 7.30362 58.6485 8.17109C59.4815 9.03855 60.0413 10.1324 60.258 11.3163C60.4747 12.5002 60.3389 13.7219 59.8673 14.829C59.3958 15.9361 58.6094 16.8797 57.6063 17.5422C56.6031 18.2048 55.4274 18.557 54.2258 18.5549C52.5746 18.5211 51.0041 17.8325 49.8592 16.6402C48.7142 15.4479 48.0882 13.8493 48.1186 12.1951ZM54.2258 5.30661C49.786 5.30661 46.2046 8.40001 46.2046 12.1951C46.2046 15.9902 49.7959 19.0639 54.2258 19.0639C58.6558 19.0639 62.2668 15.9952 62.2668 12.1951C62.2668 8.39507 58.6755 5.30661 54.2258 5.30661ZM44.769 16.7018C44.3195 16.6081 43.8572 16.593 43.4026 16.6573C43.3097 16.6568 43.2178 16.6759 43.1328 16.7134C43.0478 16.7509 42.9716 16.8058 42.9093 16.8748C41.7401 18.0459 39.8902 19.0194 38.282 18.7328C30.389 17.5814 31.5828 5.63769 39.318 5.63769C41.5625 5.63769 42.6675 7.45124 42.8895 7.45124C43.1115 7.45124 43.3039 6.7446 43.4174 6.41351C43.8564 5.55368 43.9107 5.37579 42.9981 5.37579C42.0854 5.37579 38.504 5.30661 37.5124 5.42026C33.9162 5.81559 30.9415 8.50873 30.8527 12.1062C30.8083 15.5307 33.4574 18.2683 36.6935 18.886C38.2339 19.1754 39.8172 19.1452 41.3455 18.797C42.574 18.5061 43.7051 17.8979 44.626 17.0329C44.7394 16.9192 45.0009 16.7661 44.7592 16.7018" fill="#213357"/>
<path d="M131.617 27.8647C131.617 28.4972 131.617 29.0111 131.582 29.278C131.548 29.4707 131.533 29.6041 131.404 29.6239C131.336 29.6398 131.267 29.6514 131.197 29.6585C131.19 29.6578 131.183 29.6586 131.177 29.6607C131.17 29.6629 131.164 29.6664 131.159 29.6711C131.154 29.6758 131.15 29.6814 131.147 29.6878C131.144 29.6941 131.143 29.701 131.143 29.7079C131.143 29.7474 131.182 29.7623 131.252 29.7623C131.321 29.7623 131.513 29.7623 131.641 29.7623H131.932C132.031 29.7623 132.209 29.7623 132.49 29.7623C132.771 29.7623 133.161 29.7623 133.669 29.7623C133.925 29.7623 133.994 29.7623 134.044 29.5943C134.084 29.3867 134.113 29.1772 134.132 28.9667C134.132 28.9173 134.132 28.8629 134.088 28.8629C134.044 28.8629 134.034 28.8629 134.019 28.9667C134.019 29.0642 133.989 29.1595 133.935 29.2404C133.88 29.3213 133.803 29.3842 133.713 29.4213C133.493 29.4785 133.265 29.5018 133.037 29.4905C132.371 29.4905 132.248 29.4015 132.233 28.9667C132.233 28.8333 132.233 28.0723 132.233 27.8499V27.3063C132.233 27.3063 132.233 27.2569 132.278 27.2569C132.391 27.2569 133.116 27.2569 133.299 27.2865C133.56 27.3211 133.619 27.3953 133.644 27.4892C133.667 27.5576 133.677 27.6296 133.674 27.7016C133.674 27.7412 133.674 27.7659 133.718 27.7659C133.762 27.7659 133.782 27.6967 133.782 27.6423C133.782 27.588 133.782 27.3508 133.812 27.2174C133.823 27.0978 133.841 26.979 133.866 26.8616C133.866 26.822 133.866 26.8072 133.827 26.8072C133.787 26.8072 133.772 26.8418 133.728 26.8912C133.684 26.9406 133.56 26.9654 133.397 26.9802C133.235 26.995 132.352 26.9802 132.268 26.9802C132.184 26.9802 132.233 26.9555 132.233 26.911V25.132C132.233 25.0876 132.233 25.0629 132.268 25.0629C132.302 25.0629 133.131 25.0629 133.254 25.0876C133.624 25.132 133.693 25.1765 133.748 25.2852C133.772 25.3602 133.786 25.4385 133.787 25.5175C133.787 25.5718 133.787 25.6015 133.841 25.6015C133.896 25.6015 133.891 25.562 133.901 25.5323C133.91 25.5027 133.93 25.1617 133.94 25.1024C133.953 24.9994 133.971 24.8971 133.994 24.796C133.994 24.7664 133.994 24.7318 133.96 24.7318C133.925 24.7318 133.901 24.7565 133.871 24.7664C133.841 24.7762 133.693 24.796 133.565 24.801C133.437 24.8059 131.996 24.801 131.952 24.801C131.908 24.801 131.459 24.801 131.168 24.801C131.094 24.801 131.064 24.801 131.064 24.8553C131.066 24.869 131.072 24.8817 131.082 24.8915C131.092 24.9013 131.105 24.9077 131.118 24.9097C131.194 24.9046 131.27 24.9046 131.345 24.9097C131.567 24.9393 131.607 25.048 131.622 25.2704C131.636 25.4928 131.622 25.6608 131.622 26.6787L131.617 27.8647ZM125.934 29.8413C126.345 29.8575 126.756 29.8091 127.152 29.698C127.266 29.6536 127.28 29.6288 127.32 29.5053C127.392 29.229 127.446 28.9484 127.483 28.6652C127.483 28.6208 127.448 28.5763 127.419 28.5763C127.389 28.5763 127.364 28.5763 127.349 28.6652C127.312 28.8668 127.223 29.0555 127.093 29.2138C126.938 29.3392 126.759 29.4312 126.568 29.4839C126.376 29.5366 126.175 29.549 125.978 29.5201C125.662 29.5287 125.348 29.4738 125.053 29.3588C124.759 29.2438 124.49 29.0708 124.264 28.8503C124.037 28.6297 123.857 28.3659 123.734 28.0744C123.61 27.7829 123.547 27.4697 123.546 27.1531C123.516 26.8418 123.555 26.5276 123.66 26.2329C123.764 25.9383 123.933 25.6704 124.153 25.4483C124.363 25.2753 124.606 25.1461 124.867 25.068C125.128 24.99 125.401 24.9647 125.672 24.9937C126.142 24.967 126.607 25.0936 126.999 25.3544C127.091 25.4362 127.163 25.5369 127.212 25.6495C127.26 25.7621 127.284 25.884 127.28 26.0067C127.28 26.1006 127.28 26.1451 127.335 26.1451C127.389 26.1451 127.404 26.1055 127.414 26.0067C127.423 25.9079 127.414 25.5521 127.414 25.3396C127.414 25.1271 127.443 25.0233 127.443 24.969C127.443 24.9146 127.443 24.8998 127.359 24.8998C127.127 24.8842 126.896 24.8512 126.669 24.801C126.342 24.7513 126.012 24.7266 125.682 24.7268C125.31 24.6995 124.936 24.747 124.583 24.8667C124.23 24.9863 123.904 25.1757 123.625 25.4236C123.15 25.8969 122.878 26.5366 122.865 27.2075C122.851 27.5708 122.917 27.9328 123.059 28.2677C123.2 28.6025 123.414 28.9019 123.684 29.1446C124.313 29.6498 125.11 29.8986 125.914 29.8413M115.041 25.7744C115.249 26.0067 116.028 26.8072 116.793 27.6275C117.503 28.3737 118.48 29.3324 118.549 29.3966C118.924 29.7425 118.993 29.7969 119.042 29.7969C119.091 29.7969 119.096 29.7573 119.096 29.3027V25.473C119.096 25.0826 119.096 24.9492 119.333 24.9047C119.387 24.8993 119.442 24.8993 119.496 24.9047C119.515 24.9051 119.533 24.8988 119.547 24.887C119.562 24.8753 119.571 24.8588 119.575 24.8405C119.575 24.8059 119.521 24.796 119.452 24.796C119.175 24.796 118.958 24.796 118.874 24.796C118.79 24.796 118.475 24.796 118.169 24.796C118.09 24.796 118.036 24.796 118.036 24.8405C118.036 24.885 118.036 24.9047 118.09 24.9047C118.201 24.9053 118.311 24.9152 118.421 24.9344C118.628 24.9739 118.667 25.1172 118.672 25.5422L118.741 28.8184C118.534 28.601 117.814 27.8301 117.148 27.1334C116.107 26.0561 115.125 25.0134 115.017 24.9047C114.908 24.796 114.834 24.7071 114.755 24.7071C114.676 24.7071 114.661 24.7762 114.661 25.0332V28.7789C114.661 29.3719 114.661 29.5498 114.474 29.5943C114.384 29.6184 114.291 29.6317 114.198 29.6338C114.191 29.6331 114.184 29.6339 114.177 29.636C114.171 29.6382 114.165 29.6417 114.16 29.6464C114.155 29.651 114.15 29.6567 114.148 29.6631C114.145 29.6694 114.143 29.6763 114.143 29.6832C114.143 29.7326 114.178 29.7376 114.247 29.7376C114.558 29.7376 114.839 29.7376 114.903 29.7376C114.967 29.7376 115.229 29.7376 115.614 29.7376C115.692 29.7376 115.737 29.7376 115.737 29.6832C115.737 29.6763 115.736 29.6694 115.733 29.6631C115.73 29.6567 115.726 29.651 115.721 29.6464C115.716 29.6417 115.71 29.6382 115.703 29.636C115.696 29.6339 115.689 29.6331 115.683 29.6338C115.57 29.6318 115.457 29.6185 115.347 29.5943C115.16 29.5498 115.101 29.3867 115.086 28.8481L115.041 25.7744ZM107.928 27.6572C107.928 27.6572 107.898 27.6572 107.928 27.6127L108.554 25.8239C108.594 25.7217 108.633 25.7217 108.673 25.8239L109.339 27.6127C109.339 27.6423 109.339 27.6572 109.339 27.6572H107.928ZM106.941 29.026C106.813 29.3571 106.68 29.5893 106.374 29.6288H106.172C106.164 29.6282 106.157 29.6289 106.15 29.631C106.144 29.6331 106.137 29.6366 106.132 29.6412C106.126 29.6458 106.122 29.6514 106.118 29.6578C106.115 29.6642 106.113 29.6711 106.112 29.6783C106.112 29.7178 106.157 29.7326 106.241 29.7326C106.517 29.7326 106.857 29.7326 106.926 29.7326C106.995 29.7326 107.37 29.7326 107.533 29.7326C107.592 29.7326 107.632 29.7326 107.632 29.6783C107.632 29.6239 107.632 29.6288 107.563 29.6288H107.499C107.385 29.6288 107.272 29.5794 107.272 29.4509C107.281 29.3 107.314 29.1515 107.37 29.0112L107.755 27.9635C107.76 27.9492 107.77 27.9368 107.782 27.9279C107.794 27.9191 107.809 27.9143 107.824 27.9141H109.383C109.418 27.9141 109.427 27.9141 109.442 27.9487L110.049 29.4312C110.058 29.4468 110.064 29.4642 110.065 29.4821C110.067 29.5001 110.064 29.5181 110.058 29.5351C110.052 29.552 110.042 29.5674 110.03 29.5802C110.017 29.593 110.002 29.6029 109.985 29.6091C109.955 29.6091 109.94 29.6091 109.94 29.6535C109.94 29.698 110.049 29.6931 110.177 29.698C110.646 29.698 111.164 29.698 111.243 29.698C111.322 29.698 111.401 29.698 111.401 29.6437C111.401 29.5893 111.351 29.5943 111.312 29.5943C111.222 29.5933 111.132 29.58 111.045 29.5547C110.897 29.5102 110.715 29.4213 110.468 28.8382C110.054 27.8499 108.988 25.1518 108.85 24.885C108.781 24.7367 108.761 24.6428 108.692 24.6428C108.623 24.6428 108.613 24.6824 108.53 24.8998L106.941 29.026ZM100.355 25.1518C100.355 25.1123 100.38 25.0925 100.41 25.0727C100.573 25.0483 100.738 25.0367 100.903 25.0381C101.068 25.0308 101.233 25.06 101.386 25.1236C101.539 25.1872 101.676 25.2837 101.788 25.4063C101.899 25.5289 101.983 25.6746 102.032 25.833C102.081 25.9914 102.095 26.1586 102.072 26.3229C102.088 26.5085 102.059 26.6952 101.988 26.8672C101.917 27.0392 101.805 27.1915 101.663 27.3113C101.513 27.398 101.342 27.4376 101.169 27.4249C100.917 27.4337 100.666 27.4003 100.424 27.3261C100.409 27.3179 100.397 27.3058 100.388 27.291C100.379 27.2762 100.375 27.2593 100.375 27.2421L100.355 25.1518ZM99.7733 27.8499C99.7859 28.3213 99.7728 28.7931 99.7339 29.2632C99.7043 29.4559 99.6895 29.5794 99.5612 29.6091C99.494 29.6298 99.4243 29.6414 99.354 29.6437C99.3471 29.643 99.3402 29.6437 99.3336 29.6459C99.327 29.6481 99.321 29.6516 99.3159 29.6563C99.3108 29.6609 99.3067 29.6666 99.3039 29.673C99.3011 29.6793 99.2997 29.6862 99.2997 29.6931C99.2997 29.7326 99.3392 29.7474 99.4083 29.7474C99.6155 29.7474 100.064 29.7474 100.074 29.7474C100.084 29.7474 100.533 29.7474 100.903 29.7474C100.977 29.7474 101.012 29.7474 101.012 29.6931C101.012 29.6862 101.01 29.6793 101.007 29.673C101.005 29.6666 101 29.6609 100.995 29.6563C100.99 29.6516 100.984 29.6481 100.978 29.6459C100.971 29.6437 100.964 29.643 100.957 29.6437C100.856 29.6403 100.756 29.6287 100.656 29.6091C100.449 29.5794 100.41 29.4559 100.385 29.2632C100.355 28.9963 100.355 28.4873 100.355 27.8598V27.7016C100.355 27.667 100.355 27.6522 100.405 27.6522H101.263C101.28 27.6504 101.298 27.6526 101.314 27.6586C101.33 27.6646 101.345 27.6743 101.357 27.6868C101.5 27.8647 101.801 28.2897 102.082 28.6405C102.322 29.0276 102.635 29.3634 103.005 29.6288C103.229 29.7355 103.478 29.7799 103.725 29.7573H104.149C104.272 29.7573 104.307 29.7573 104.307 29.703C104.306 29.6958 104.304 29.6889 104.301 29.6825C104.298 29.6761 104.293 29.6705 104.288 29.6659C104.282 29.6613 104.276 29.6579 104.269 29.6557C104.262 29.6536 104.255 29.6529 104.248 29.6535C104.169 29.6618 104.09 29.6618 104.011 29.6535C103.712 29.6002 103.443 29.4384 103.256 29.1989C102.866 28.7937 102.398 28.2106 101.845 27.5089C102.088 27.3428 102.29 27.1224 102.433 26.8652C102.577 26.608 102.66 26.3209 102.674 26.0265C102.669 25.8521 102.625 25.6812 102.543 25.527C102.462 25.3727 102.346 25.2393 102.205 25.137C101.824 24.9177 101.386 24.8178 100.947 24.8504H100.104C100.064 24.8504 99.6105 24.8504 99.3047 24.8504C99.2307 24.8504 99.2011 24.8504 99.2011 24.9047C99.2028 24.9177 99.2084 24.9299 99.2172 24.9397C99.226 24.9494 99.2376 24.9562 99.2504 24.9591C99.3276 24.9538 99.4051 24.9538 99.4823 24.9591C99.7043 24.9887 99.7437 25.0974 99.7585 25.3198C99.7733 25.5422 99.7585 25.7102 99.7585 26.7282L99.7733 27.8499ZM93.1383 27.8499C93.1509 28.3213 93.1377 28.7931 93.0988 29.2632C93.0692 29.4559 93.0544 29.5893 92.9212 29.6091C92.8531 29.6258 92.7839 29.6374 92.714 29.6437C92.7071 29.643 92.7002 29.6437 92.6936 29.6459C92.6871 29.6481 92.681 29.6516 92.6759 29.6563C92.6708 29.6609 92.6667 29.6666 92.6639 29.673C92.6611 29.6793 92.6597 29.6862 92.6598 29.6931C92.6598 29.7326 92.6992 29.7474 92.7683 29.7474C92.9755 29.7474 93.3997 29.7474 93.4343 29.7474C93.4688 29.7474 93.9029 29.7474 94.2778 29.7474C94.3568 29.7474 94.3863 29.7474 94.3863 29.6931C94.3864 29.6862 94.385 29.6793 94.3822 29.673C94.3794 29.6666 94.3753 29.6609 94.3702 29.6563C94.3651 29.6516 94.3591 29.6481 94.3525 29.6459C94.3459 29.6437 94.339 29.643 94.3321 29.6437C94.2294 29.6398 94.1272 29.6282 94.0262 29.6091C93.8437 29.5794 93.8042 29.4559 93.7796 29.2632C93.7549 29.0704 93.75 28.4972 93.75 27.8499V27.3261C93.75 27.2816 93.75 27.2668 93.7944 27.2668C93.9128 27.2668 94.7119 27.2668 94.8797 27.2668C95.0474 27.2668 95.1954 27.3804 95.225 27.4743C95.2512 27.5508 95.2661 27.6307 95.2694 27.7115C95.2694 27.7412 95.2694 27.7758 95.3138 27.7758C95.3582 27.7758 95.3779 27.7066 95.3779 27.6423C95.3779 27.5781 95.3779 27.336 95.3779 27.2025C95.3896 27.0824 95.411 26.9634 95.442 26.8468C95.442 26.8122 95.442 26.7924 95.4026 26.7924C95.3631 26.7924 95.3483 26.822 95.3187 26.8616C95.2891 26.9011 95.1658 26.9604 95.003 26.9752C94.9011 26.9806 94.799 26.9806 94.6971 26.9752H93.7747C93.7303 26.9752 93.7302 26.9752 93.7302 26.9159V25.132C93.7302 25.0777 93.7302 25.0629 93.7845 25.0629H94.8895C94.9762 25.0514 95.0643 25.0632 95.145 25.097C95.2256 25.1309 95.2957 25.1856 95.3483 25.2556C95.3839 25.3318 95.4056 25.4138 95.4124 25.4977C95.4124 25.5471 95.4124 25.5768 95.4618 25.5768C95.5111 25.5768 95.516 25.5372 95.5259 25.5076C95.5358 25.4779 95.5506 25.137 95.5555 25.0777C95.5802 24.8948 95.6098 24.8158 95.6098 24.7713C95.6098 24.7268 95.6098 24.7071 95.5654 24.7071C95.521 24.7071 95.5111 24.7417 95.4716 24.7466C95.3714 24.7699 95.2686 24.7799 95.1658 24.7762C95.0129 24.7762 93.5477 24.7762 93.4145 24.7762C93.38 24.7762 92.9558 24.7762 92.6499 24.7762C92.571 24.7762 92.5414 24.7762 92.5414 24.8306C92.5434 24.8443 92.5497 24.857 92.5595 24.8668C92.5693 24.8766 92.582 24.883 92.5956 24.885C92.6728 24.8799 92.7503 24.8799 92.8275 24.885C93.0495 24.9146 93.084 25.0233 93.1037 25.2457C93.1235 25.4681 93.1037 25.6361 93.1037 26.654L93.1383 27.8499ZM82.2854 27.8499C82.298 28.3213 82.2849 28.7931 82.246 29.2632C82.2164 29.4559 82.2016 29.5893 82.0684 29.6091C82.0003 29.6258 81.931 29.6374 81.8612 29.6437C81.8543 29.643 81.8473 29.6437 81.8408 29.6459C81.8342 29.6481 81.8282 29.6516 81.8231 29.6563C81.8179 29.6609 81.8139 29.6666 81.8111 29.673C81.8083 29.6793 81.8069 29.6862 81.8069 29.6931C81.8069 29.7326 81.8464 29.7474 81.9154 29.7474C81.9845 29.7474 82.1769 29.7474 82.3052 29.7474H82.5962C82.6949 29.7474 82.8725 29.7474 83.1586 29.7474C83.4447 29.7474 83.8246 29.7474 84.3327 29.7474C84.5941 29.7474 84.6632 29.7474 84.7076 29.5794C84.7514 29.3723 84.7827 29.1627 84.8013 28.9519C84.8013 28.9024 84.8013 28.8481 84.752 28.8481C84.7026 28.8481 84.6977 28.8481 84.6829 28.9519C84.6824 29.0494 84.6531 29.1446 84.5987 29.2255C84.5443 29.3064 84.4672 29.3694 84.3771 29.4065C84.1566 29.4637 83.9287 29.487 83.7012 29.4757C83.0353 29.4757 82.9119 29.3867 82.8971 28.9519C82.8971 28.8184 82.8971 28.0574 82.8971 27.8351V27.2915C82.8971 27.2915 82.8971 27.2421 82.9415 27.2421C83.0599 27.2421 83.7802 27.2421 83.9627 27.2717C84.2241 27.3063 84.2883 27.3804 84.308 27.4743C84.335 27.5418 84.3467 27.6143 84.3425 27.6868C84.3425 27.7263 84.3425 27.7511 84.3869 27.7511C84.4313 27.7511 84.4461 27.6819 84.4461 27.6275C84.4461 27.5732 84.4461 27.336 84.4757 27.2025C84.4868 27.083 84.5049 26.9642 84.53 26.8468C84.53 26.8072 84.53 26.7924 84.4905 26.7924C84.4511 26.7924 84.4412 26.827 84.3919 26.8764C84.3425 26.9258 84.2241 26.9505 84.0613 26.9654C83.8985 26.9802 83.0205 26.9654 82.9366 26.9654C82.8527 26.9654 82.8971 26.9406 82.8971 26.8962V25.1172C82.8971 25.0727 82.8971 25.048 82.9366 25.048C82.9761 25.048 83.795 25.048 83.9232 25.0727C84.2932 25.1172 84.3623 25.1617 84.4165 25.2704C84.4413 25.3454 84.4546 25.4237 84.456 25.5027C84.456 25.557 84.456 25.5867 84.5103 25.5867C84.5645 25.5867 84.5645 25.5471 84.5695 25.5175C84.5744 25.4878 84.604 25.1469 84.6089 25.0876C84.6217 24.9846 84.6398 24.8823 84.6632 24.7812C84.6632 24.7515 84.6632 24.7169 84.6336 24.7169C84.6009 24.7241 84.5693 24.7357 84.5399 24.7515C84.4856 24.7515 84.3672 24.7812 84.234 24.7861C84.1008 24.7911 82.6702 24.7861 82.6209 24.7861C82.5715 24.7861 82.1276 24.7861 81.8414 24.7861C81.7625 24.7861 81.7329 24.7861 81.7329 24.8405C81.7349 24.8542 81.7412 24.8669 81.751 24.8767C81.7608 24.8865 81.7735 24.8929 81.7872 24.8948C81.8644 24.8898 81.9418 24.8898 82.019 24.8948C82.241 24.9245 82.2756 25.0332 82.2953 25.2556C82.315 25.4779 82.2953 25.646 82.2953 26.6639L82.2854 27.8499ZM74.2247 25.221C74.2247 25.1419 74.2247 25.1123 74.3086 25.0925C74.4426 25.0596 74.58 25.043 74.718 25.0431C75.1133 25.0016 75.5129 25.0454 75.8898 25.1715C76.2668 25.2977 76.6124 25.5033 76.9034 25.7744C77.1131 25.9907 77.2774 26.2469 77.3867 26.5278C77.496 26.8087 77.5481 27.1087 77.5398 27.4101C77.5718 27.9779 77.3826 28.5359 77.0119 28.9667C76.5803 29.3617 76.0129 29.5742 75.4284 29.5597C74.6342 29.5597 74.3924 29.4213 74.3086 29.2978C74.2494 29.1401 74.2242 28.9717 74.2346 28.8036C74.2346 28.6801 74.2346 28.0723 74.2346 27.3804L74.2247 25.221ZM73.613 27.8499C73.6256 28.3213 73.6125 28.7931 73.5735 29.2632C73.5439 29.4559 73.5291 29.5794 73.3959 29.6091C73.3289 29.6306 73.2591 29.6422 73.1887 29.6437C73.1752 29.6436 73.1621 29.6487 73.152 29.6578C73.142 29.667 73.1357 29.6795 73.1345 29.6931C73.1345 29.7326 73.174 29.7474 73.243 29.7474H73.6525H73.9287L74.4812 29.782C74.7723 29.782 75.1324 29.8216 75.4235 29.8216C75.7981 29.8456 76.1735 29.7912 76.526 29.6619C76.8785 29.5326 77.2002 29.3312 77.4707 29.0704C77.9437 28.5763 78.2057 27.9168 78.2008 27.2322C78.2078 26.9251 78.1528 26.6198 78.0392 26.3345C77.9257 26.0492 77.7558 25.7898 77.5398 25.5718C76.7455 24.7664 75.5073 24.8257 74.8315 24.8257C74.4319 24.8257 74.0027 24.8257 73.9287 24.8257C73.8547 24.8257 73.4354 24.8257 73.1444 24.8257C73.0654 24.8257 73.0358 24.8257 73.0358 24.88C73.0378 24.8937 73.0442 24.9064 73.0539 24.9162C73.0637 24.926 73.0764 24.9324 73.0901 24.9344C73.1673 24.9291 73.2447 24.9291 73.3219 24.9344C73.5439 24.964 73.5834 25.0727 73.5982 25.2951C73.613 25.5175 73.5982 25.6855 73.5982 26.7034L73.613 27.8499ZM63.4853 26.6985C63.4853 25.6805 63.4853 25.4977 63.4853 25.2902C63.4853 25.0826 63.5346 24.9591 63.7369 24.9195H63.9589C63.9589 24.9195 64.0132 24.9195 64.0132 24.8751C64.0132 24.8306 63.9737 24.8207 63.9046 24.8207H63.1597C63.1252 24.8207 62.7009 24.8207 62.3951 24.8207C62.3162 24.8207 62.2866 24.8207 62.2866 24.8751C62.2885 24.8888 62.2949 24.9015 62.3047 24.9113C62.3145 24.9211 62.3271 24.9274 62.3408 24.9294C62.418 24.9244 62.4955 24.9244 62.5727 24.9294C62.7947 24.9591 62.8341 25.0678 62.8489 25.2902C62.8637 25.5125 62.8489 25.6805 62.8489 26.6985V27.8499C62.8616 28.3213 62.8484 28.7931 62.8095 29.2632C62.7799 29.4559 62.7651 29.5794 62.6319 29.6091C62.5648 29.6306 62.4951 29.6422 62.4247 29.6437C62.4178 29.643 62.4109 29.6437 62.4043 29.6459C62.3977 29.6481 62.3917 29.6516 62.3866 29.6563C62.3815 29.6609 62.3774 29.6666 62.3746 29.673C62.3718 29.6793 62.3704 29.6862 62.3704 29.6931C62.3704 29.7326 62.4099 29.7474 62.479 29.7474H62.8687H63.1795H63.9194C64.2302 29.7474 64.6101 29.7474 65.0935 29.7474C65.4536 29.7474 65.4734 29.7474 65.5227 29.5745C65.5734 29.3585 65.6064 29.1387 65.6213 28.9173C65.6213 28.8481 65.6214 28.8184 65.577 28.8184C65.5326 28.8184 65.5128 28.858 65.5079 28.9024C65.4856 29.0377 65.4296 29.1652 65.3451 29.2731C65.1823 29.4658 64.8863 29.4757 64.5311 29.4757C64.0033 29.4757 63.7418 29.4262 63.6333 29.3175C63.5248 29.2088 63.4952 28.8234 63.4952 27.8351L63.4853 26.6985ZM56.1103 27.8499C56.1103 28.4824 56.1103 28.9963 56.0758 29.2632C56.0412 29.4559 56.0264 29.5893 55.8982 29.6091C55.8299 29.625 55.7607 29.6366 55.691 29.6437C55.6841 29.643 55.6772 29.6437 55.6706 29.6459C55.664 29.6481 55.658 29.6516 55.6529 29.6563C55.6478 29.6609 55.6437 29.6666 55.6409 29.673C55.6381 29.6793 55.6367 29.6862 55.6367 29.6931C55.6367 29.7326 55.6762 29.7474 55.7452 29.7474C55.8143 29.7474 56.0067 29.7474 56.135 29.7474H56.426C56.5247 29.7474 56.7023 29.7474 56.9884 29.7474C57.2745 29.7474 57.6544 29.7474 58.1625 29.7474C58.419 29.7474 58.4881 29.7474 58.5374 29.5794C58.5775 29.3719 58.6072 29.1624 58.6262 28.9519C58.6262 28.9024 58.6262 28.8481 58.5818 28.8481C58.5374 28.8481 58.5275 28.8481 58.5127 28.9519C58.5122 29.0494 58.4829 29.1446 58.4285 29.2255C58.3741 29.3064 58.297 29.3694 58.2069 29.4065C57.9864 29.4637 57.7585 29.487 57.531 29.4757C56.8651 29.4757 56.7417 29.3867 56.7269 28.9519C56.7269 28.8184 56.7269 28.0574 56.7269 27.8351V27.2915C56.7269 27.2915 56.7269 27.2421 56.7713 27.2421C56.8157 27.2421 57.61 27.2421 57.7925 27.2717C58.054 27.3063 58.1131 27.3804 58.1378 27.4743C58.1606 27.5427 58.1706 27.6148 58.1674 27.6868C58.1674 27.7263 58.1674 27.7511 58.2118 27.7511C58.2562 27.7511 58.2759 27.6819 58.2759 27.6275C58.2759 27.5732 58.2759 27.336 58.3055 27.2025C58.3166 27.083 58.3347 26.9642 58.3598 26.8468C58.3598 26.8072 58.3598 26.7924 58.3203 26.7924C58.2809 26.7924 58.2661 26.827 58.2217 26.8764C58.1773 26.9258 58.0539 26.9505 57.8912 26.9654C57.7284 26.9802 56.8503 26.9654 56.7615 26.9654C56.6727 26.9654 56.7269 26.9406 56.7269 26.8962V25.1172C56.7269 25.0727 56.7269 25.048 56.7615 25.048C56.796 25.048 57.6248 25.048 57.7481 25.0727C58.1181 25.1172 58.1871 25.1617 58.2414 25.2704C58.2662 25.3454 58.2795 25.4237 58.2809 25.5027C58.2809 25.557 58.2809 25.5867 58.3351 25.5867C58.3894 25.5867 58.3845 25.5471 58.3943 25.5175C58.4042 25.4878 58.4239 25.1469 58.4338 25.0876C58.4466 24.9846 58.4647 24.8823 58.4881 24.7812C58.4881 24.7515 58.4881 24.7169 58.4535 24.7169C58.419 24.7169 58.3943 24.7417 58.3647 24.7515C58.3351 24.7614 58.1871 24.7812 58.0589 24.7861C57.9306 24.7911 56.4902 24.7861 56.4458 24.7861C56.4014 24.7861 55.9524 24.7861 55.6614 24.7861C55.5874 24.7861 55.5578 24.7861 55.5578 24.8405C55.5598 24.8542 55.5661 24.8669 55.5759 24.8767C55.5857 24.8865 55.5984 24.8929 55.6121 24.8948C55.6876 24.8898 55.7634 24.8898 55.839 24.8948C56.061 24.9245 56.1004 25.0332 56.1152 25.2556C56.13 25.4779 56.1152 25.646 56.1152 26.6639L56.1103 27.8499ZM50.3731 25.1073H51.2167C51.858 25.1073 52.0059 25.2655 52.0257 25.4681V25.5372C52.0257 25.6311 52.0503 25.6509 52.0799 25.6509C52.1095 25.6509 52.1391 25.6212 52.1391 25.5669C52.1391 25.5125 52.1391 25.0233 52.1391 24.8207C52.1391 24.7861 52.1391 24.7466 52.1095 24.7466L51.9172 24.7762C51.7536 24.7978 51.5888 24.8077 51.4238 24.8059H48.8784C48.712 24.8078 48.5457 24.8012 48.3801 24.7861C48.2785 24.7671 48.178 24.7424 48.0792 24.712C48.0545 24.712 48.0151 24.796 48.0101 24.8306C48.0052 24.8652 47.8621 25.4681 47.8621 25.5372C47.8621 25.5508 47.8671 25.564 47.8762 25.574C47.8854 25.5841 47.8979 25.5904 47.9115 25.5916C47.9411 25.5916 47.9657 25.5916 47.9805 25.5323C48.0054 25.4587 48.0402 25.3888 48.0841 25.3248C48.1877 25.1716 48.3456 25.1222 48.7698 25.1172H49.7564V27.8598C49.7564 28.4923 49.7564 29.0062 49.7268 29.2731C49.7268 29.4658 49.6677 29.5992 49.5295 29.6288C49.4634 29.646 49.3956 29.6559 49.3273 29.6585C49.3208 29.6578 49.3142 29.6584 49.308 29.6603C49.3017 29.6622 49.2959 29.6653 49.2909 29.6694C49.2858 29.6735 49.2817 29.6786 49.2786 29.6844C49.2755 29.6901 49.2736 29.6965 49.273 29.703C49.273 29.7425 49.3075 29.7573 49.3815 29.7573C49.5838 29.7573 50.0475 29.7573 50.082 29.7573C50.1166 29.7573 50.5457 29.7573 50.9157 29.7573C50.9947 29.7573 51.0243 29.7573 51.0243 29.703C51.0243 29.696 51.0229 29.6892 51.0201 29.6828C51.0173 29.6765 51.0132 29.6708 51.0081 29.6662C51.003 29.6615 50.997 29.658 50.9904 29.6558C50.9838 29.6536 50.9769 29.6529 50.97 29.6535C50.8673 29.6505 50.765 29.6389 50.6641 29.619C50.457 29.5893 50.4274 29.4658 50.4027 29.2731C50.3731 29.0062 50.3731 28.4923 50.3731 27.8598V25.1073ZM40.2898 27.0839C40.2898 25.6608 41.1038 24.9541 42.2285 24.9541C43.3533 24.9541 44.2511 25.7794 44.2511 27.3458C44.2511 29.2385 43.0277 29.5597 42.4209 29.5597C41.2024 29.5597 40.2898 28.6059 40.2898 27.0889M39.5893 27.2668C39.5806 27.6127 39.6435 27.9567 39.7741 28.2771C39.9047 28.5975 40.1001 28.8872 40.3481 29.1282C40.5961 29.3691 40.8912 29.556 41.2148 29.6771C41.5384 29.7981 41.8836 29.8507 42.2285 29.8314C42.5836 29.845 42.9377 29.7857 43.2692 29.6573C43.6006 29.5289 43.9023 29.334 44.1559 29.0846C44.4095 28.8352 44.6096 28.5366 44.7438 28.207C44.8781 27.8774 44.9438 27.5239 44.9368 27.168C44.9368 25.646 43.7874 24.6972 42.268 24.6972C41.924 24.6846 41.581 24.741 41.2591 24.8631C40.9372 24.9851 40.6428 25.1703 40.3933 25.4078C40.1438 25.6453 39.9442 25.9303 39.8061 26.2462C39.668 26.562 39.5943 26.9023 39.5893 27.247M35.554 26.7133C35.554 25.6954 35.554 25.5125 35.554 25.305C35.554 25.0974 35.6083 24.9838 35.7859 24.9443C35.8416 24.9385 35.8978 24.9385 35.9536 24.9443C35.9682 24.9433 35.982 24.9374 35.9927 24.9275C36.0035 24.9176 36.0106 24.9044 36.0128 24.8899C36.0128 24.8504 35.9783 24.8355 35.8993 24.8355H35.2334C35.2038 24.8355 34.74 24.8355 34.4638 24.8355C34.3898 24.8355 34.3602 24.8355 34.3602 24.8899C34.3602 24.9043 34.3659 24.9181 34.3761 24.9283C34.3863 24.9385 34.4001 24.9443 34.4145 24.9443C34.49 24.9392 34.5658 24.9392 34.6414 24.9443C34.8634 24.9739 34.8979 25.0826 34.9127 25.305C34.9275 25.5274 34.9127 25.7151 34.9127 26.7282V26.8665C34.9127 26.9061 34.9127 26.9061 34.8732 26.9061H32.1008C32.1008 26.9061 32.0614 26.9061 32.0614 26.8665V26.7282C32.0614 25.7151 32.0614 25.5125 32.0614 25.305C32.0614 25.0974 32.1156 24.9838 32.2981 24.9443C32.3539 24.9383 32.4101 24.9383 32.4659 24.9443C32.4796 24.9423 32.4922 24.9359 32.502 24.9261C32.5118 24.9163 32.5182 24.9036 32.5201 24.8899C32.5201 24.8504 32.4905 24.8355 32.4116 24.8355H31.7456C31.7062 24.8355 31.2523 24.8355 30.9711 24.8355C30.8971 24.8355 30.8626 24.8355 30.8626 24.8899C30.8653 24.9033 30.8719 24.9156 30.8815 24.9253C30.8912 24.935 30.9035 24.9416 30.9169 24.9443C30.9941 24.939 31.0715 24.939 31.1487 24.9443C31.3707 24.9739 31.4102 25.0826 31.425 25.305C31.4398 25.5274 31.425 25.6954 31.425 26.7133V27.8647C31.4376 28.3362 31.4244 28.808 31.3855 29.278C31.3559 29.4707 31.3411 29.5943 31.2079 29.6239C31.1409 29.6454 31.0711 29.657 31.0007 29.6585C30.9877 29.6585 30.9751 29.6637 30.9659 29.673C30.9566 29.6822 30.9514 29.6948 30.9514 29.7079C30.9514 29.7474 30.9859 29.7623 31.055 29.7623C31.2622 29.7623 31.6914 29.7623 31.7308 29.7623C31.7703 29.7623 32.1896 29.7623 32.5695 29.7623C32.6435 29.7623 32.6731 29.7623 32.6731 29.7079C32.6731 29.701 32.6717 29.6941 32.6689 29.6878C32.6661 29.6814 32.662 29.6758 32.6569 29.6711C32.6518 29.6664 32.6458 29.6629 32.6392 29.6607C32.6326 29.6586 32.6257 29.6578 32.6188 29.6585C32.5161 29.6546 32.4139 29.643 32.3129 29.6239C32.1156 29.5943 32.091 29.4707 32.0663 29.278C32.0367 29.0111 32.0367 28.5121 32.0367 27.8795V27.2273C32.0367 27.1976 32.0367 27.1877 32.0762 27.1877H34.893C34.893 27.1877 34.9324 27.1877 34.9324 27.2273V27.8795C34.9324 28.5121 34.9324 29.0013 34.9028 29.2731C34.9028 29.4658 34.8535 29.5943 34.7154 29.6239C34.6516 29.645 34.5852 29.6566 34.5181 29.6585C34.5112 29.6578 34.5042 29.6586 34.4977 29.6607C34.4911 29.6629 34.485 29.6664 34.4799 29.6711C34.4748 29.6758 34.4707 29.6814 34.468 29.6878C34.4652 29.6941 34.4638 29.701 34.4638 29.7079C34.4638 29.7474 34.4934 29.7623 34.5723 29.7623C34.7696 29.7623 35.2087 29.7623 35.2383 29.7623C35.2679 29.7623 35.7316 29.7623 36.072 29.7623C36.1509 29.7623 36.1904 29.7623 36.1904 29.7079C36.1904 29.6535 36.1904 29.6585 36.1262 29.6585C36.0268 29.6548 35.9279 29.6432 35.8303 29.6239C35.6231 29.5943 35.6033 29.4707 35.5836 29.278C35.554 29.0111 35.5441 28.4972 35.5441 27.8647L35.554 26.7133Z" fill="#C8BD90"/>
<path d="M10.3539 21.1622C10.5297 20.9861 10.7681 20.8872 11.0167 20.8872H15.8215C16.0701 20.8872 16.3085 20.9861 16.4843 21.1622C16.6601 21.3383 16.7588 21.5771 16.7588 21.8261C16.7588 22.0751 16.6601 22.3139 16.4843 22.49C16.3085 22.6661 16.0701 22.765 15.8215 22.765H11.0167C10.7681 22.765 10.5297 22.6661 10.3539 22.49C10.1781 22.3139 10.0794 22.0751 10.0794 21.8261C10.0794 21.5771 10.1781 21.3383 10.3539 21.1622Z" fill="#C8BD90"/>
<path d="M13.4492 0.993408C12.9544 1.73941 12.3897 2.43666 11.7627 3.07565L11.7595 3.07885C11.1525 3.67736 10.6061 4.33456 10.1284 5.04093C9.94466 5.32842 9.78821 5.63256 9.66109 5.94931C8.87 8.02172 9.65212 10.2019 10.7261 12.1423L10.7275 12.1448C12.1301 14.7433 12.5191 17.179 12.7324 19.9939L12.7326 19.9959L12.734 20.0106L12.7392 20.0673C12.7437 20.1168 12.7501 20.1895 12.7575 20.2827C12.7591 20.3021 12.7607 20.3224 12.7624 20.3436H14.0167C14.026 20.2268 14.0361 20.1099 14.0467 19.9931C14.2944 17.1943 14.6882 14.7442 16.0756 12.1459C17.1283 10.1749 17.933 8.02124 17.1429 5.9501C17.0131 5.63268 16.8558 5.32721 16.673 5.03725C16.2239 4.33462 15.7082 3.67712 15.1329 3.07384C14.5095 2.43298 13.946 1.73663 13.4492 0.993408Z" fill="#C8BD90"/>
<path d="M13.9045 23.3085H12.8739C12.8736 23.414 12.8729 23.5206 12.8715 23.6282L12.8712 23.6385L12.8704 23.6499C12.7456 24.998 12.4737 26.3282 12.0593 27.6169C12.0577 27.622 12.0559 27.6269 12.054 27.6319C12.0374 27.6747 12.0367 27.722 12.0518 27.7653C12.1136 27.9003 12.1734 28.0363 12.2318 28.1722C12.3039 28.3397 12.3741 28.5072 12.4436 28.6734L12.4451 28.6767L12.4461 28.6792C12.6287 29.1182 12.8004 29.5592 12.9706 29.9963L12.9813 30.0235L13.1081 30.349C13.1419 30.4351 13.1756 30.5211 13.2095 30.6069L13.2867 30.8013C13.3192 30.8825 13.3518 30.9635 13.3847 31.0444C13.4741 30.8249 13.5619 30.6044 13.6492 30.3829C13.6963 30.2631 13.7434 30.1432 13.7906 30.0229L13.8025 29.9925L13.8059 29.9837L13.807 29.9808C13.9765 29.5486 14.1474 29.1129 14.3279 28.6792L14.3291 28.6765L14.3301 28.674C14.4562 28.3729 14.5842 28.067 14.7223 27.7653C14.7374 27.722 14.7367 27.6747 14.7201 27.6319L14.718 27.6262L14.7145 27.6161C14.3044 26.3269 14.0342 24.9972 13.9087 23.6501C13.908 23.6429 13.9076 23.6358 13.9075 23.6286C13.906 23.5219 13.9049 23.4153 13.9045 23.3085Z" fill="#C8BD90"/>
<path d="M11.2068 23.3085H12.3771C12.375 23.4125 12.3722 23.5165 12.3686 23.6205C12.2984 24.6199 12.0151 25.7594 11.4743 26.5703C11.2052 26.9737 10.8799 27.285 10.4958 27.4657C10.1157 27.6445 9.6588 27.7046 9.10503 27.5752L9.10124 27.5744C8.57836 27.4601 8.21042 27.1424 8.05235 26.7705C7.91343 26.4435 7.92601 26.0514 8.17237 25.6717C8.48888 26.0122 8.86229 26.2466 9.26817 26.2852C9.74251 26.3303 10.1845 26.1016 10.5455 25.6343L10.5524 25.625C10.556 25.6199 10.5594 25.6146 10.5627 25.6093C10.9196 25.0219 11.1308 24.3574 11.1785 23.6714C11.1897 23.5506 11.1991 23.4296 11.2068 23.3085Z" fill="#C8BD90"/>
<path d="M11.056 20.3436H12.2463C12.2356 20.2458 12.2244 20.1481 12.2124 20.0504L12.2116 20.0423C12.0641 18.4337 11.5794 16.5941 10.7735 14.9407C9.96658 13.2853 8.84856 11.8381 7.44775 10.9847C6.36858 10.3355 5.10236 10.07 3.85384 10.2309L3.84409 10.232L3.83475 10.2327C3.26346 10.2655 2.71155 10.452 2.23721 10.7725C1.76492 11.0916 1.38686 11.5318 1.14243 12.0472C0.949795 12.5257 0.863441 13.0405 0.889396 13.5558C0.91553 14.0736 1.05452 14.5795 1.29653 15.0378L1.29816 15.0409C1.78021 15.9834 2.863 16.9663 3.93496 17.7421C4.4656 18.1262 4.98324 18.4522 5.40465 18.6895C5.43753 18.708 5.46981 18.7259 5.50143 18.7433C5.32143 18.4064 5.15872 18.0359 5.0581 17.6611C4.8725 16.9694 4.88461 16.1968 5.48173 15.6255C5.48733 15.6202 5.49312 15.6151 5.49908 15.6103C5.75531 15.4038 6.06206 15.2697 6.38742 15.2218C6.71014 15.1743 7.03959 15.2134 7.34219 15.3349C8.01465 15.5645 8.60745 15.9818 9.05084 16.5377C9.96881 17.5045 10.634 18.6836 10.9872 19.9701C10.989 19.9766 10.9905 19.9833 10.9919 19.9899C11.0149 20.1076 11.0362 20.2254 11.056 20.3436Z" fill="#C8BD90"/>
<path d="M14.4803 23.3085H15.646C15.6538 23.4296 15.6632 23.5505 15.6744 23.6714C15.7222 24.3573 15.9333 25.0219 16.2902 25.6093C16.2931 25.614 16.2962 25.6187 16.2994 25.6233C16.302 25.627 16.3046 25.6307 16.3074 25.6343C16.6684 26.1016 17.1104 26.3302 17.5848 26.2852C17.9904 26.2466 18.3637 26.0124 18.6802 25.6721C18.924 26.0514 18.9359 26.4433 18.7969 26.7705C18.6386 27.1428 18.2716 27.4603 17.7515 27.5744L17.7479 27.5752C17.1941 27.7046 16.7372 27.6445 16.3572 27.4657C15.9733 27.285 15.648 26.9737 15.3793 26.5704C14.8391 25.7594 14.5569 24.6199 14.4892 23.6206C14.4855 23.5166 14.4826 23.4126 14.4803 23.3085Z" fill="#C8BD90"/>
<path d="M15.793 20.3436C15.8124 20.2257 15.8333 20.1081 15.856 19.9907C15.8574 19.9835 15.859 19.9764 15.861 19.9694C16.2174 18.6845 16.882 17.5066 17.7969 16.538C18.2403 15.982 18.8331 15.5646 19.5055 15.335C19.8081 15.2128 20.1378 15.1735 20.4607 15.221C20.7863 15.2689 21.0932 15.4035 21.3493 15.6106C21.3551 15.6154 21.3608 15.6203 21.3662 15.6255C21.9634 16.1967 21.9755 16.9694 21.7899 17.6611C21.7424 17.8379 21.6811 18.0138 21.6107 18.1857C21.5316 18.3786 21.4411 18.5665 21.3457 18.7449C21.3783 18.727 21.4115 18.7085 21.4455 18.6894C21.867 18.4522 22.3845 18.1262 22.9148 17.7421C23.986 16.9663 25.0677 15.9835 25.5498 15.0409L25.552 15.0368C25.7959 14.5794 25.9362 14.0738 25.9631 13.556C25.9899 13.0407 25.9037 12.5257 25.7105 12.0473C25.4661 11.5319 25.088 11.0916 24.6157 10.7724C24.1413 10.452 23.5894 10.2655 23.0182 10.2327C23.0118 10.2324 23.0053 10.2318 22.9989 10.2309C21.7489 10.0692 20.4809 10.3348 19.4003 10.9846C18.0019 11.8381 16.8838 13.2853 16.077 14.9407C15.271 16.5941 14.7864 18.4336 14.6414 20.0419L14.6405 20.05C14.6287 20.1478 14.6176 20.2457 14.607 20.3436H15.793Z" fill="#C8BD90"/>
<path d="M148.496 21.1621C148.672 20.986 148.91 20.8871 149.159 20.8871H153.983C154.232 20.8871 154.47 20.986 154.646 21.1621C154.822 21.3382 154.921 21.577 154.921 21.826C154.921 22.075 154.822 22.3138 154.646 22.4899C154.47 22.666 154.232 22.7649 153.983 22.7649H149.159C148.91 22.7649 148.672 22.666 148.496 22.4899C148.32 22.3138 148.221 22.075 148.221 21.826C148.221 21.577 148.32 21.3382 148.496 21.1621Z" fill="#C8BD90"/>
<path d="M151.576 0.993652C151.082 1.73959 150.517 2.43673 149.89 3.07559L149.889 3.0765C149.294 3.6773 148.758 4.33384 148.288 5.03707C148.114 5.32716 147.965 5.63178 147.843 5.94757C147.051 8.02046 147.833 10.2013 148.908 12.1422L148.909 12.1444C150.317 14.7435 150.706 17.1796 150.914 19.9954C150.924 20.1114 150.934 20.2275 150.943 20.3436H152.193C152.203 20.2272 152.213 20.1108 152.223 19.9945C152.441 17.1948 152.83 14.7439 154.238 12.1451C155.291 10.1735 156.095 8.01925 155.304 5.94757C155.182 5.63178 155.033 5.3271 154.859 5.03689C154.391 4.33384 153.856 3.6773 153.263 3.0762L153.262 3.07517C152.636 2.43516 152.072 1.73832 151.576 0.993652Z" fill="#C8BD90"/>
<path d="M152.081 23.3085H151.051C151.051 23.4152 151.05 23.5218 151.048 23.6286C151.048 23.6354 151.048 23.6422 151.047 23.649C150.926 24.9976 150.656 26.3284 150.241 27.617C150.239 27.622 150.237 27.6269 150.236 27.6318C150.229 27.6478 150.225 27.6644 150.224 27.6811C150.221 27.7099 150.224 27.739 150.234 27.7666C150.366 28.0667 150.499 28.3724 150.627 28.6786L150.628 28.6804C150.795 29.0868 150.955 29.495 151.113 29.9006L151.161 30.0232C151.295 30.3658 151.428 30.7064 151.566 31.0446C151.654 30.83 151.739 30.6145 151.824 30.3981C151.874 30.2734 151.922 30.1484 151.971 30.0232L152.145 29.5785C152.185 29.4772 152.225 29.3758 152.265 29.2744C152.343 29.0763 152.423 28.8781 152.504 28.6804L152.505 28.6786C152.633 28.3713 152.767 28.0645 152.9 27.7634C152.916 27.7228 152.916 27.6776 152.899 27.6373L152.895 27.628C152.894 27.6244 152.893 27.6207 152.891 27.617C152.476 26.3284 152.206 24.9976 152.085 23.649C152.085 23.6422 152.084 23.6354 152.084 23.6286C152.083 23.5218 152.082 23.4152 152.081 23.3085Z" fill="#C8BD90"/>
<path d="M149.354 23.3085H150.515C150.513 23.4125 150.51 23.5165 150.506 23.6206C150.438 24.6198 150.156 25.7594 149.616 26.5703C149.347 26.9737 149.022 27.2849 148.638 27.4656C148.258 27.6445 147.801 27.7046 147.247 27.5752L147.244 27.5744C146.723 27.4602 146.356 27.1428 146.198 26.7704C146.059 26.4432 146.071 26.051 146.315 25.6716C146.634 26.0121 147.008 26.2466 147.415 26.2852C147.889 26.3302 148.332 26.1016 148.693 25.6342L148.7 25.6239C148.704 25.6192 148.707 25.6142 148.71 25.6092C149.067 25.0218 149.278 24.3573 149.326 23.6714C149.337 23.5505 149.346 23.4296 149.354 23.3085Z" fill="#C8BD90"/>
<path d="M149.203 20.3436H150.392C150.382 20.2454 150.371 20.1474 150.359 20.0494L150.359 20.0423C150.211 18.4337 149.726 16.5941 148.921 14.9406C148.114 13.2853 146.996 11.8381 145.595 10.9846C144.516 10.3355 143.249 10.0699 142.001 10.2309C141.994 10.2318 141.987 10.2324 141.98 10.2328C141.409 10.2626 140.856 10.4477 140.382 10.7683C139.909 11.0878 139.532 11.5295 139.29 12.0466C139.097 12.5252 139.01 13.0402 139.036 13.5557C139.063 14.0736 139.202 14.5794 139.444 15.0377L139.445 15.0409C139.927 15.9833 141.01 16.9662 142.082 17.742C142.613 18.1261 143.13 18.4521 143.552 18.6894L143.595 18.7139L143.648 18.7432C143.468 18.4063 143.306 18.0358 143.205 17.6611C143.02 16.9693 143.032 16.1967 143.629 15.6254L143.638 15.6168L143.646 15.6102C143.902 15.4038 144.209 15.2696 144.535 15.2217C144.857 15.1742 145.187 15.2133 145.489 15.3349C146.162 15.5644 146.754 15.9818 147.198 16.5377C148.116 17.5044 148.781 18.6835 149.134 19.97C149.136 19.9766 149.138 19.9832 149.139 19.9898C149.162 20.1075 149.183 20.2254 149.203 20.3436Z" fill="#C8BD90"/>
<path d="M152.627 23.3085H153.793C153.801 23.4295 153.81 23.5504 153.821 23.6713C153.869 24.3572 154.08 25.0217 154.437 25.6092C154.442 25.6178 154.448 25.6262 154.454 25.6342C154.815 26.1016 155.257 26.3302 155.732 26.2851C156.137 26.2466 156.511 26.0123 156.827 25.6721C157.071 26.0513 157.083 26.4433 156.944 26.7704C156.786 27.1428 156.419 27.4602 155.899 27.5743L155.895 27.5752C155.341 27.7045 154.884 27.6445 154.504 27.4656C154.12 27.2849 153.795 26.9736 153.526 26.5703C152.986 25.7594 152.704 24.6199 152.636 23.6206C152.633 23.5165 152.63 23.4125 152.627 23.3085Z" fill="#C8BD90"/>
<path d="M153.94 20.3436C153.959 20.2257 153.98 20.108 154.003 19.9906C154.004 19.9836 154.006 19.9766 154.008 19.9696C154.363 18.6841 155.028 17.5057 155.944 16.5379C156.387 15.9818 156.98 15.5644 157.653 15.3349C157.955 15.2133 158.285 15.1742 158.608 15.2217C158.933 15.2696 159.24 15.4037 159.496 15.6102C159.502 15.6151 159.508 15.6201 159.513 15.6254C160.11 16.1967 160.123 16.9693 159.937 17.661C159.836 18.0358 159.674 18.4063 159.494 18.7432C159.525 18.7259 159.557 18.7079 159.59 18.6894C160.012 18.4521 160.529 18.1261 161.06 17.742C162.132 16.9662 163.215 15.9833 163.697 15.0409L163.699 15.0373C163.941 14.5793 164.081 14.0737 164.108 13.5559C164.135 13.0406 164.049 12.5257 163.857 12.047C163.613 11.5317 163.235 11.0915 162.763 10.7724C162.288 10.4519 161.736 10.2654 161.165 10.2327C161.159 10.2323 161.152 10.2317 161.146 10.2309C159.896 10.0692 158.628 10.3348 157.547 10.9845C156.149 11.8381 155.031 13.2853 154.224 14.9406C153.418 16.5941 152.933 18.4335 152.788 20.0418L152.788 20.05C152.776 20.1478 152.765 20.2457 152.754 20.3436H153.94Z" fill="#C8BD90"/>
</svg>
