<svg width="390" height="149" viewBox="0 0 390 149" fill="none" xmlns="http://www.w3.org/2000/svg">
<path d="M287.701 77.1692C287.46 77.2497 285.822 79.208 283.621 79.36H273.393C273.393 75.4077 273.393 61.2796 273.473 58.6418C273.473 57.3989 273.473 55.4049 275.03 55.4049C276.23 55.4049 275.746 54.9667 274.986 54.9667H267.335C266.529 54.9667 266.61 55.4049 267.254 55.4049C268.767 55.6016 270.046 56.1202 270.046 57.8013V79.4047C269.849 79.4047 268.534 79.4047 268.534 79.6819C268.534 79.9591 270.046 79.9233 270.207 79.9233C273.724 79.9233 280.605 79.9233 283.997 79.9233C285.36 80.0271 286.651 80.5735 287.675 81.4792C288.319 81.6402 288.569 81.5597 288.516 81.3987C288.052 80.0955 288.109 78.6635 288.677 77.4017C288.722 77.2408 288.077 77.1245 287.719 77.205M265.348 77.205C265.107 77.2855 263.469 79.2438 261.268 79.3958H251.04C251.04 75.4435 251.04 61.3154 251.12 58.6776C251.12 57.4347 251.165 55.4406 252.686 55.4406C253.885 55.4406 253.402 55.0025 252.641 55.0025H244.964C244.167 55.0025 244.248 55.4406 244.883 55.4406C246.404 55.6374 247.684 56.156 247.684 57.837V79.4047C247.487 79.4047 246.163 79.4047 246.163 79.6819C246.163 79.9591 247.684 79.9233 247.845 79.9233C251.362 79.9233 258.234 79.9233 261.635 79.9233C264.194 80.12 264.99 81.4345 265.312 81.4792C265.957 81.6402 266.207 81.5597 266.154 81.3987C265.683 80.0965 265.741 78.662 266.315 77.4017C266.315 77.2408 265.715 77.1245 265.357 77.205M242.807 75.6044C241.991 75.4393 241.153 75.4121 240.328 75.524C240.16 75.5258 239.993 75.5625 239.839 75.6318C239.685 75.701 239.547 75.8013 239.434 75.9263C237.313 78.0455 233.957 79.7981 231.04 79.2795C223.926 78.2423 219.684 70.6149 221.483 64.1768C225.76 64.1768 233.796 64.2573 234.959 64.2573C236.577 64.1983 238.153 64.7726 239.353 65.8579C239.988 66.0188 240.248 65.9383 240.194 65.7774C239.724 64.4751 239.781 63.0406 240.355 61.7804C240.355 61.6284 239.756 61.5032 239.389 61.5837C239.022 61.6641 237.357 63.4972 234.915 63.4972C233.393 63.4972 225.438 63.4972 221.68 63.4972C222.539 61.2137 224.066 59.2418 226.063 57.8382C228.06 56.4346 230.433 55.6646 232.874 55.6284C236.946 55.6284 238.95 58.9011 239.344 58.9011C239.738 58.9011 240.105 57.6224 240.31 57.0233C241.107 55.4675 241.205 55.1456 239.55 55.1456C237.894 55.1456 231.389 55.0293 229.59 55.226C223.076 55.9503 217.68 60.8236 217.519 67.3332C217.438 73.521 222.235 78.4748 228.114 79.5925C230.907 80.1219 233.781 80.0671 236.552 79.4315C238.782 78.909 240.835 77.8079 242.503 76.2393C242.709 76.0426 243.183 75.7564 242.744 75.6402M210.127 55.074C209.765 55.0269 209.396 55.0543 209.045 55.1545C208.928 55.235 210.208 55.9145 210.602 56.4332C211.12 57.1083 211.403 57.9342 211.407 58.7849C211.407 64.7759 211.488 70.3288 211.488 75.8816C204.57 68.2185 198.772 61.7446 192.973 55.3154C192.696 54.9935 191.577 55.074 191.139 55.074H188.383C188.338 55.074 187.577 55.1903 187.819 55.4317C188.061 55.6731 188.418 55.5926 188.66 55.5926C189.719 55.8343 190.665 56.4268 191.345 57.2737C191.506 68.8176 191.345 74.8444 191.264 75.6044C191.103 76.7669 190.942 78.287 190.19 79.1812C190.19 79.2616 189.43 79.8965 189.465 79.8965C189.875 79.9755 190.293 80.0026 190.709 79.977H194.423C195.318 79.977 195.586 79.8965 195.506 79.8607C194.786 79.4946 194.187 78.9305 193.778 78.2349C193.368 77.5394 193.167 76.7415 193.197 75.9353C193.197 70.4182 193.197 64.5523 193.197 59.1515C199.461 66.1887 205.385 72.7341 211.3 79.2885C212.06 80.129 212.418 79.8518 213.259 79.8518C213.259 72.8593 213.304 67.0292 213.304 60.8325C213.31 59.701 213.458 58.5746 213.743 57.4794C214.02 56.5226 214.781 55.0025 215.138 55.0025L210.127 55.074ZM166.298 67.8876V62.5226C166.298 59.6075 168.374 57.4078 170.853 56.3259C173.17 55.3333 176.651 55.2081 177.77 57.8102C179.005 60.7252 177.045 63.8012 174.647 65.3571C172.249 66.913 168.902 67.4584 166.298 67.8876ZM185.904 79.4047C182.861 79.047 180.463 75.211 178.665 73.2527C176.195 70.5575 172.882 68.7821 169.269 68.2185C172.553 67.8608 176.07 67.065 178.709 64.9816C180.866 63.3094 182.7 59.7148 180.785 57.1575C179.067 54.8415 173.985 54.9578 171.712 55.1992C169.719 55.3501 167.789 55.9624 166.074 56.9876C165.179 54.7521 161.913 54.7163 159.998 55.1098C159.318 55.2707 160.195 55.4675 160.437 55.4675C163.238 55.7894 162.915 58.5882 162.915 60.7074C162.915 75.0858 163.032 76.3645 162.835 77.6432C162.814 78.115 162.62 78.5627 162.29 78.9008C161.96 79.2389 161.517 79.4437 161.045 79.4762C160.607 79.6014 161.206 79.7624 161.367 79.7981C162.018 79.8651 162.673 79.892 163.327 79.8786C164.571 79.8786 165.689 79.8786 166.969 79.8786C167.52 79.9468 168.079 79.8918 168.607 79.7177C168.929 79.5567 168.446 79.4405 168.284 79.4405C166.003 78.8771 166.289 77.7236 166.289 75.7207V68.5404C167.862 68.6879 169.386 69.163 170.763 69.9353C175.085 72.2513 176.481 75.3004 179.157 78.8771C179.407 79.1877 179.723 79.4387 180.082 79.6119C180.441 79.7851 180.834 79.8762 181.233 79.8786C182.512 79.8786 183.515 79.8786 184.875 79.8786C185.319 79.9046 185.765 79.8501 186.19 79.7177C186.512 79.6014 185.958 79.3958 185.877 79.36M132.634 67.4584C132.715 65.2819 133.435 63.1772 134.704 61.4067C135.974 59.6362 137.736 58.2782 139.773 57.5019C141.809 56.7255 144.029 56.5652 146.157 57.0409C148.284 57.5165 150.223 58.6072 151.735 60.1769C153.246 61.7466 154.261 63.7259 154.654 65.8682C155.047 68.0105 154.801 70.2211 153.945 72.2244C153.09 74.2278 151.664 75.9353 149.844 77.1342C148.024 78.333 145.892 78.9703 143.712 78.9666C140.717 78.9055 137.868 77.6595 135.791 75.5019C133.714 73.3444 132.579 70.4516 132.634 67.4584ZM143.712 54.9935C135.658 54.9935 129.162 60.5911 129.162 67.4584C129.162 74.3257 135.676 79.8876 143.712 79.8876C151.748 79.8876 158.298 74.3347 158.298 67.4584C158.298 60.5822 151.784 54.9935 143.712 54.9935ZM126.558 75.6134C125.742 75.4437 124.904 75.4165 124.079 75.5329C123.911 75.532 123.744 75.5666 123.59 75.6343C123.436 75.7021 123.297 75.8016 123.184 75.9263C121.064 78.0455 117.708 79.8071 114.791 79.2885C100.473 77.205 102.639 55.5926 116.67 55.5926C120.741 55.5926 122.746 58.8743 123.148 58.8743C123.551 58.8743 123.9 57.5956 124.106 56.9965C124.902 55.4406 125.001 55.1187 123.345 55.1187C121.69 55.1187 115.193 54.9935 113.395 55.1992C106.871 55.9145 101.475 60.7878 101.314 67.2975C101.234 73.4942 106.039 78.4479 111.909 79.5657C114.703 80.0894 117.575 80.0346 120.348 79.4047C122.576 78.8782 124.628 77.7776 126.298 76.2125C126.504 76.0068 126.978 75.7296 126.54 75.6134" fill="white"/>
<path d="M284.095 95.813C284.095 96.9575 284.095 97.8875 284.033 98.3703C283.97 98.7191 283.943 98.9605 283.71 98.9963C283.587 99.0251 283.461 99.046 283.335 99.0589C283.322 99.0576 283.309 99.059 283.298 99.0629C283.286 99.0668 283.275 99.0732 283.265 99.0817C283.256 99.0901 283.249 99.1004 283.244 99.1119C283.239 99.1233 283.236 99.1357 283.236 99.1483C283.236 99.2198 283.308 99.2466 283.433 99.2466C283.558 99.2466 283.907 99.2466 284.14 99.2466H284.668C284.847 99.2466 285.169 99.2466 285.679 99.2466C286.189 99.2466 286.896 99.2466 287.818 99.2466C288.283 99.2466 288.408 99.2466 288.498 98.9426C288.571 98.567 288.624 98.188 288.659 97.807C288.659 97.7176 288.659 97.6192 288.578 97.6192C288.498 97.6192 288.48 97.6192 288.453 97.807C288.452 97.9835 288.399 98.1559 288.3 98.3023C288.202 98.4487 288.062 98.5626 287.898 98.6296C287.498 98.7332 287.085 98.7754 286.672 98.7548C285.464 98.7548 285.241 98.5939 285.214 97.807C285.214 97.5656 285.214 96.1885 285.214 95.7861V94.8025C285.214 94.8025 285.214 94.7131 285.294 94.7131C285.5 94.7131 286.816 94.7131 287.147 94.7668C287.621 94.8294 287.728 94.9635 287.773 95.1334C287.814 95.2572 287.833 95.3875 287.827 95.5179C287.827 95.5894 287.827 95.6341 287.907 95.6341C287.988 95.6341 288.024 95.509 288.024 95.4106C288.024 95.3122 288.024 94.883 288.077 94.6416C288.097 94.4252 288.13 94.2103 288.176 93.9978C288.176 93.9263 288.176 93.8994 288.104 93.8994C288.033 93.8994 288.006 93.962 287.925 94.0514C287.845 94.1409 287.621 94.1856 287.326 94.2124C287.03 94.2392 285.428 94.2124 285.276 94.2124C285.124 94.2124 285.214 94.1677 285.214 94.0872V90.8681C285.214 90.7877 285.214 90.743 285.276 90.743C285.339 90.743 286.842 90.743 287.066 90.7877C287.737 90.8682 287.862 90.9486 287.961 91.1453C288.006 91.281 288.03 91.4227 288.033 91.5656C288.033 91.664 288.033 91.7176 288.131 91.7176C288.229 91.7176 288.22 91.6461 288.238 91.5924C288.256 91.5388 288.292 90.9218 288.31 90.8145C288.333 90.6281 288.366 90.4431 288.408 90.2601C288.408 90.2065 288.408 90.1439 288.346 90.1439C288.283 90.1439 288.238 90.1886 288.185 90.2065C288.131 90.2243 287.862 90.2601 287.63 90.269C287.397 90.278 284.784 90.269 284.704 90.269C284.623 90.269 283.809 90.269 283.281 90.269C283.147 90.269 283.093 90.269 283.093 90.3674C283.097 90.3922 283.108 90.4152 283.126 90.4329C283.144 90.4507 283.167 90.4622 283.191 90.4658C283.328 90.4566 283.466 90.4566 283.603 90.4658C284.006 90.5194 284.077 90.7161 284.104 91.1185C284.131 91.5209 284.104 91.8249 284.104 93.6669L284.095 95.813ZM273.787 99.3897C274.532 99.4189 275.278 99.3314 275.997 99.1304C276.203 99.0499 276.23 99.0052 276.301 98.7817C276.431 98.2816 276.53 97.7739 276.596 97.2615C276.596 97.1811 276.534 97.1006 276.48 97.1006C276.426 97.1006 276.382 97.1006 276.355 97.2615C276.286 97.6263 276.126 97.9678 275.889 98.2541C275.609 98.4811 275.284 98.6475 274.936 98.7429C274.588 98.8383 274.224 98.8607 273.867 98.8085C273.294 98.824 272.724 98.7247 272.19 98.5166C271.656 98.3084 271.169 97.9955 270.758 97.5963C270.346 97.1972 270.019 96.7198 269.796 96.1924C269.572 95.665 269.457 95.0982 269.456 94.5254C269.401 93.9619 269.471 93.3934 269.662 92.8602C269.852 92.3271 270.157 91.8423 270.556 91.4404C270.938 91.1275 271.378 90.8936 271.852 90.7523C272.325 90.6111 272.821 90.5654 273.312 90.6178C274.164 90.5696 275.009 90.7986 275.719 91.2705C275.885 91.4185 276.017 91.6007 276.105 91.8045C276.193 92.0083 276.235 92.2289 276.23 92.4509C276.23 92.6207 276.23 92.7012 276.328 92.7012C276.426 92.7012 276.453 92.6297 276.471 92.4509C276.489 92.272 276.471 91.6282 276.471 91.2437C276.471 90.8592 276.525 90.6714 276.525 90.5731C276.525 90.4747 276.525 90.4479 276.373 90.4479C275.951 90.4197 275.532 90.3599 275.12 90.269C274.528 90.1793 273.929 90.1345 273.33 90.1349C272.656 90.0854 271.978 90.1714 271.337 90.388C270.696 90.6045 270.105 90.9472 269.599 91.3957C268.737 92.2522 268.243 93.4098 268.221 94.6237C268.195 95.2812 268.315 95.9363 268.571 96.5422C268.828 97.1481 269.216 97.6899 269.706 98.1289C270.847 99.0432 272.292 99.4934 273.751 99.3897M254.028 92.0306C254.404 92.4509 255.818 93.8994 257.205 95.3838C258.494 96.734 260.265 98.4687 260.391 98.5849C261.071 99.2109 261.196 99.3092 261.286 99.3092C261.375 99.3092 261.384 99.2377 261.384 98.415V91.4851C261.384 90.7787 261.384 90.5373 261.814 90.4568C261.912 90.4471 262.011 90.4471 262.109 90.4568C262.143 90.4574 262.175 90.4461 262.202 90.4248C262.228 90.4035 262.246 90.3737 262.252 90.3406C262.252 90.278 262.154 90.2601 262.028 90.2601C261.527 90.2601 261.133 90.2601 260.981 90.2601C260.829 90.2601 260.257 90.2601 259.702 90.2601C259.559 90.2601 259.46 90.2601 259.46 90.3406C259.46 90.4211 259.46 90.4568 259.559 90.4568C259.76 90.4579 259.96 90.4758 260.158 90.5105C260.534 90.582 260.606 90.8413 260.614 91.6103L260.74 97.5388C260.364 97.1453 259.057 95.7504 257.849 94.4896C255.961 92.5403 254.181 90.6535 253.984 90.4568C253.787 90.2601 253.653 90.0992 253.509 90.0992C253.366 90.0992 253.339 90.2243 253.339 90.6893V97.4672C253.339 98.5402 253.339 98.8621 252.999 98.9426C252.836 98.9863 252.668 99.0103 252.498 99.0141C252.486 99.0129 252.473 99.0143 252.461 99.0182C252.449 99.0221 252.438 99.0285 252.429 99.037C252.42 99.0454 252.412 99.0557 252.407 99.0671C252.402 99.0786 252.4 99.091 252.4 99.1036C252.4 99.193 252.462 99.2019 252.588 99.2019C253.151 99.2019 253.662 99.2019 253.778 99.2019C253.894 99.2019 254.368 99.2019 255.066 99.2019C255.21 99.2019 255.29 99.2019 255.29 99.1036C255.29 99.091 255.288 99.0786 255.283 99.0671C255.278 99.0557 255.27 99.0454 255.261 99.037C255.252 99.0285 255.241 99.0221 255.229 99.0182C255.217 99.0143 255.204 99.0129 255.192 99.0141C254.987 99.0105 254.783 98.9866 254.583 98.9426C254.243 98.8621 254.136 98.5671 254.109 97.5924L254.028 92.0306ZM241.125 95.4374C241.125 95.4374 241.071 95.4374 241.125 95.3569L242.261 92.12C242.333 91.9352 242.404 91.9352 242.476 92.12L243.684 95.3569C243.684 95.4106 243.684 95.4374 243.684 95.4374H241.125ZM239.335 97.9143C239.102 98.5134 238.861 98.9337 238.306 99.0052H237.939C237.926 99.004 237.913 99.0053 237.901 99.0092C237.888 99.013 237.877 99.0193 237.867 99.0276C237.857 99.0359 237.849 99.0461 237.843 99.0576C237.837 99.0691 237.833 99.0817 237.832 99.0946C237.832 99.1662 237.912 99.193 238.064 99.193C238.566 99.193 239.183 99.193 239.308 99.193C239.434 99.193 240.114 99.193 240.409 99.193C240.516 99.193 240.588 99.193 240.588 99.0946C240.588 98.9963 240.588 99.0052 240.463 99.0052H240.346C240.14 99.0052 239.935 98.9158 239.935 98.6833C239.951 98.4101 240.011 98.1414 240.114 97.8875L240.812 95.9918C240.821 95.9659 240.838 95.9434 240.86 95.9274C240.883 95.9114 240.909 95.9027 240.937 95.9024H243.765C243.827 95.9024 243.845 95.9024 243.872 95.965L244.973 98.6475C244.989 98.6757 244.999 98.7072 245.002 98.7397C245.005 98.7722 245.001 98.8049 244.989 98.8356C244.978 98.8662 244.961 98.8941 244.938 98.9172C244.915 98.9404 244.887 98.9582 244.856 98.9694C244.803 98.9694 244.776 98.9694 244.776 99.0499C244.776 99.1304 244.973 99.1215 245.205 99.1304C246.055 99.1304 246.995 99.1304 247.138 99.1304C247.281 99.1304 247.424 99.1304 247.424 99.032C247.424 98.9337 247.335 98.9426 247.263 98.9426C247.1 98.941 246.937 98.9169 246.78 98.8711C246.512 98.7906 246.181 98.6296 245.733 97.5745C244.982 95.7861 243.049 90.9039 242.798 90.4211C242.673 90.1528 242.637 89.9829 242.512 89.9829C242.387 89.9829 242.369 90.0544 242.216 90.4479L239.335 97.9143ZM227.389 90.9039C227.389 90.8324 227.434 90.7966 227.487 90.7609C227.784 90.7166 228.083 90.6957 228.382 90.6983C228.682 90.685 228.982 90.7378 229.259 90.8529C229.536 90.968 229.785 91.1427 229.987 91.3645C230.19 91.5863 230.341 91.8498 230.43 92.1365C230.519 92.4231 230.544 92.7258 230.503 93.0231C230.532 93.3589 230.479 93.6966 230.35 94.0079C230.221 94.3191 230.018 94.5948 229.76 94.8115C229.489 94.9684 229.178 95.04 228.865 95.0172C228.408 95.033 227.952 94.9725 227.514 94.8383C227.487 94.8236 227.464 94.8016 227.448 94.7748C227.432 94.748 227.424 94.7174 227.425 94.6863L227.389 90.9039ZM226.333 95.7861C226.356 96.6393 226.332 97.493 226.261 98.3435C226.208 98.6922 226.181 98.9158 225.948 98.9694C225.826 99.0069 225.7 99.028 225.572 99.032C225.56 99.0308 225.547 99.0322 225.535 99.0361C225.523 99.04 225.512 99.0464 225.503 99.0548C225.494 99.0633 225.487 99.0736 225.481 99.085C225.476 99.0965 225.474 99.1089 225.474 99.1214C225.474 99.193 225.546 99.2198 225.671 99.2198C226.047 99.2198 226.861 99.2198 226.879 99.2198C226.897 99.2198 227.711 99.2198 228.382 99.2198C228.516 99.2198 228.579 99.2198 228.579 99.1214C228.579 99.1089 228.577 99.0965 228.571 99.085C228.566 99.0736 228.559 99.0633 228.55 99.0548C228.54 99.0464 228.53 99.04 228.518 99.0361C228.506 99.0322 228.493 99.0308 228.481 99.032C228.297 99.0259 228.115 99.005 227.935 98.9694C227.559 98.9158 227.487 98.6922 227.443 98.3435C227.389 97.8607 227.389 96.9396 227.389 95.804V95.5179C227.389 95.4553 227.389 95.4285 227.478 95.4285H229.035C229.067 95.4253 229.098 95.4292 229.128 95.4401C229.157 95.4509 229.184 95.4684 229.205 95.4911C229.465 95.813 230.011 96.582 230.521 97.2168C230.955 97.9172 231.524 98.525 232.194 99.0052C232.601 99.1982 233.052 99.2785 233.501 99.2377H234.27C234.494 99.2377 234.557 99.2377 234.557 99.1393C234.555 99.1264 234.552 99.1138 234.546 99.1023C234.54 99.0908 234.532 99.0806 234.522 99.0723C234.512 99.064 234.5 99.0577 234.488 99.0539C234.475 99.05 234.462 99.0487 234.449 99.0499C234.306 99.0649 234.162 99.0649 234.02 99.0499C233.478 98.9534 232.99 98.6605 232.651 98.2273C231.944 97.494 231.094 96.4389 230.091 95.1692C230.532 94.8685 230.898 94.4698 231.158 94.0044C231.419 93.539 231.569 93.0194 231.595 92.4866C231.586 92.1711 231.505 91.8619 231.357 91.5828C231.21 91.3037 231 91.0622 230.745 90.8771C230.053 90.4803 229.258 90.2996 228.463 90.3585H226.933C226.861 90.3585 226.038 90.3585 225.483 90.3585C225.349 90.3585 225.295 90.3585 225.295 90.4568C225.298 90.4804 225.308 90.5025 225.324 90.5201C225.34 90.5376 225.361 90.5499 225.384 90.5552C225.524 90.5457 225.665 90.5457 225.805 90.5552C226.208 90.6088 226.279 90.8056 226.306 91.2079C226.333 91.6103 226.306 91.9143 226.306 93.7564L226.333 95.7861ZM214.297 95.7861C214.32 96.6393 214.296 97.493 214.226 98.3435C214.172 98.6922 214.145 98.9337 213.904 98.9694C213.78 98.9997 213.654 99.0206 213.528 99.032C213.515 99.0308 213.503 99.0322 213.491 99.0361C213.479 99.04 213.468 99.0464 213.459 99.0548C213.449 99.0633 213.442 99.0736 213.437 99.085C213.432 99.0965 213.429 99.1089 213.429 99.1214C213.429 99.193 213.501 99.2198 213.626 99.2198C214.002 99.2198 214.772 99.2198 214.834 99.2198C214.897 99.2198 215.684 99.2198 216.364 99.2198C216.508 99.2198 216.561 99.2198 216.561 99.1214C216.561 99.1089 216.559 99.0965 216.554 99.085C216.549 99.0736 216.541 99.0633 216.532 99.0548C216.523 99.0464 216.512 99.04 216.5 99.0361C216.488 99.0322 216.475 99.0308 216.463 99.032C216.277 99.025 216.091 99.0041 215.908 98.9694C215.577 98.9158 215.505 98.6922 215.461 98.3435C215.416 97.9948 215.407 96.9575 215.407 95.7861V94.8383C215.407 94.7578 215.407 94.731 215.487 94.731C215.702 94.731 217.152 94.731 217.456 94.731C217.76 94.731 218.029 94.9367 218.083 95.1066C218.13 95.245 218.157 95.3896 218.163 95.5358C218.163 95.5894 218.163 95.652 218.244 95.652C218.324 95.652 218.36 95.5268 218.36 95.4106C218.36 95.2944 218.36 94.8562 218.36 94.6148C218.381 94.3974 218.42 94.182 218.476 93.971C218.476 93.9084 218.476 93.8726 218.405 93.8726C218.333 93.8726 218.306 93.9263 218.253 93.9978C218.199 94.0693 217.975 94.1766 217.68 94.2034C217.495 94.2131 217.31 94.2131 217.125 94.2034H215.452C215.371 94.2034 215.371 94.2034 215.371 94.0961V90.8681C215.371 90.7698 215.371 90.743 215.47 90.743H217.474C217.631 90.7222 217.791 90.7436 217.937 90.8048C218.084 90.8661 218.211 90.9651 218.306 91.0917C218.371 91.2297 218.41 91.378 218.423 91.5298C218.423 91.6193 218.423 91.6729 218.512 91.6729C218.602 91.6729 218.61 91.6014 218.628 91.5477C218.646 91.4941 218.673 90.8771 218.682 90.7698C218.727 90.4389 218.78 90.2959 218.78 90.2154C218.78 90.1349 218.78 90.0992 218.7 90.0992C218.619 90.0992 218.602 90.1617 218.53 90.1707C218.348 90.2129 218.162 90.2309 217.975 90.2243C217.698 90.2243 215.04 90.2243 214.798 90.2243C214.736 90.2243 213.966 90.2243 213.411 90.2243C213.268 90.2243 213.215 90.2243 213.215 90.3227C213.218 90.3475 213.23 90.3705 213.247 90.3882C213.265 90.4059 213.288 90.4175 213.313 90.4211C213.453 90.4119 213.594 90.4119 213.734 90.4211C214.136 90.4747 214.199 90.6714 214.235 91.0738C214.27 91.4762 214.235 91.7802 214.235 93.6222L214.297 95.7861ZM194.611 95.7861C194.634 96.6393 194.61 97.493 194.539 98.3435C194.485 98.6922 194.459 98.9337 194.217 98.9694C194.093 98.9997 193.968 99.0206 193.841 99.032C193.829 99.0308 193.816 99.0322 193.804 99.0361C193.792 99.04 193.781 99.0464 193.772 99.0548C193.763 99.0633 193.755 99.0736 193.75 99.085C193.745 99.0965 193.743 99.1089 193.743 99.1214C193.743 99.193 193.814 99.2198 193.94 99.2198C194.065 99.2198 194.414 99.2198 194.647 99.2198H195.174C195.353 99.2198 195.676 99.2198 196.195 99.2198C196.714 99.2198 197.403 99.2198 198.324 99.2198C198.799 99.2198 198.924 99.2198 199.004 98.9158C199.084 98.541 199.141 98.1618 199.174 97.7802C199.174 97.6908 199.174 97.5924 199.085 97.5924C198.995 97.5924 198.987 97.5924 198.96 97.7802C198.959 97.9567 198.906 98.129 198.807 98.2754C198.708 98.4218 198.568 98.5357 198.405 98.6028C198.005 98.7063 197.592 98.7485 197.179 98.728C195.971 98.728 195.747 98.5671 195.72 97.7802C195.72 97.5387 195.72 96.1617 195.72 95.7593V94.7757C195.72 94.7757 195.72 94.6863 195.801 94.6863C196.016 94.6863 197.322 94.6863 197.653 94.74C198.127 94.8025 198.244 94.9367 198.28 95.1066C198.329 95.2286 198.35 95.3599 198.342 95.4911C198.342 95.5626 198.342 95.6073 198.423 95.6073C198.503 95.6073 198.53 95.4821 198.53 95.3838C198.53 95.2854 198.53 94.8562 198.584 94.6148C198.604 94.3984 198.637 94.1834 198.682 93.971C198.682 93.8994 198.682 93.8726 198.611 93.8726C198.539 93.8726 198.521 93.9352 198.432 94.0246C198.342 94.114 198.127 94.1587 197.832 94.1856C197.537 94.2124 195.944 94.1856 195.792 94.1856C195.64 94.1856 195.72 94.1409 195.72 94.0604V90.8413C195.72 90.7608 195.72 90.7161 195.792 90.7161C195.864 90.7161 197.349 90.7161 197.582 90.7609C198.253 90.8413 198.378 90.9218 198.476 91.1185C198.521 91.2542 198.546 91.3959 198.548 91.5388C198.548 91.6371 198.548 91.6908 198.646 91.6908C198.745 91.6908 198.745 91.6193 198.754 91.5656C198.763 91.512 198.817 90.895 198.825 90.7877C198.849 90.6013 198.881 90.4162 198.924 90.2333C198.924 90.1796 198.924 90.117 198.87 90.117C198.811 90.1299 198.754 90.151 198.7 90.1796C198.602 90.1796 198.387 90.2333 198.145 90.2422C197.904 90.2512 195.309 90.2422 195.219 90.2422C195.13 90.2422 194.324 90.2422 193.805 90.2422C193.662 90.2422 193.609 90.2422 193.609 90.3406C193.612 90.3654 193.624 90.3884 193.641 90.4061C193.659 90.4238 193.682 90.4353 193.707 90.4389C193.847 90.4298 193.987 90.4298 194.128 90.4389C194.53 90.4926 194.593 90.6893 194.629 91.0917C194.664 91.4941 194.629 91.7981 194.629 93.6401L194.611 95.7861ZM179.989 91.0291C179.989 90.886 179.989 90.8324 180.141 90.7966C180.384 90.737 180.634 90.707 180.884 90.7072C181.601 90.6321 182.326 90.7113 183.009 90.9396C183.693 91.1679 184.32 91.5399 184.848 92.0306C185.228 92.4219 185.526 92.8855 185.725 93.3938C185.923 93.9021 186.017 94.445 186.002 94.9903C186.061 96.0177 185.717 97.0276 185.045 97.807C184.262 98.5218 183.233 98.9063 182.172 98.88C180.732 98.88 180.293 98.6296 180.141 98.4061C180.034 98.1208 179.988 97.8161 180.007 97.5119C180.007 97.2884 180.007 96.1885 180.007 94.9367L179.989 91.0291ZM178.879 95.7861C178.902 96.6393 178.878 97.493 178.808 98.3435C178.754 98.6922 178.727 98.9158 178.486 98.9694C178.364 99.0083 178.237 99.0294 178.11 99.032C178.085 99.0319 178.061 99.0411 178.043 99.0576C178.025 99.0742 178.014 99.0969 178.011 99.1214C178.011 99.193 178.083 99.2198 178.208 99.2198H178.951H179.452L180.454 99.2824C180.982 99.2824 181.636 99.3539 182.163 99.3539C182.843 99.3974 183.524 99.299 184.163 99.065C184.803 98.831 185.386 98.4665 185.877 97.9948C186.735 97.1006 187.21 95.9072 187.201 94.6684C187.214 94.1128 187.114 93.5603 186.908 93.0441C186.702 92.5278 186.394 92.0584 186.002 91.664C184.562 90.2065 182.316 90.3138 181.09 90.3138C180.365 90.3138 179.586 90.3138 179.452 90.3138C179.318 90.3138 178.557 90.3138 178.029 90.3138C177.886 90.3138 177.832 90.3138 177.832 90.4121C177.836 90.4369 177.848 90.4599 177.865 90.4776C177.883 90.4954 177.906 90.5069 177.931 90.5105C178.071 90.501 178.211 90.501 178.351 90.5105C178.754 90.5641 178.826 90.7608 178.853 91.1632C178.879 91.5656 178.853 91.8696 178.853 93.7116L178.879 95.7861ZM160.508 93.7027C160.508 91.8607 160.508 91.5298 160.508 91.1543C160.508 90.7787 160.598 90.5552 160.965 90.4836H161.367C161.367 90.4836 161.466 90.4837 161.466 90.4032C161.466 90.3227 161.394 90.3048 161.269 90.3048H159.918C159.855 90.3048 159.085 90.3048 158.531 90.3048C158.387 90.3048 158.334 90.3048 158.334 90.4032C158.337 90.428 158.349 90.451 158.367 90.4687C158.384 90.4864 158.407 90.4979 158.432 90.5015C158.572 90.4924 158.713 90.4924 158.853 90.5015C159.255 90.5552 159.327 90.7519 159.354 91.1543C159.381 91.5567 159.354 91.8607 159.354 93.7027V95.7861C159.377 96.6393 159.353 97.493 159.282 98.3435C159.229 98.6922 159.202 98.9158 158.96 98.9694C158.839 99.0083 158.712 99.0294 158.584 99.032C158.572 99.0308 158.559 99.0322 158.547 99.0361C158.535 99.04 158.524 99.0464 158.515 99.0548C158.506 99.0633 158.498 99.0736 158.493 99.085C158.488 99.0965 158.486 99.1089 158.486 99.1214C158.486 99.193 158.557 99.2198 158.683 99.2198H159.39H159.953H161.296C161.859 99.2198 162.548 99.2198 163.425 99.2198C164.079 99.2198 164.114 99.2198 164.204 98.9068C164.296 98.516 164.356 98.1182 164.383 97.7176C164.383 97.5924 164.383 97.5388 164.302 97.5388C164.222 97.5388 164.186 97.6103 164.177 97.6908C164.137 97.9356 164.035 98.1662 163.882 98.3614C163.586 98.7101 163.05 98.728 162.405 98.728C161.448 98.728 160.974 98.6386 160.777 98.4419C160.58 98.2451 160.526 97.5477 160.526 95.7593L160.508 93.7027ZM147.13 95.7861C147.13 96.9307 147.13 97.8607 147.068 98.3435C147.005 98.6922 146.978 98.9337 146.746 98.9694C146.622 98.9983 146.496 99.0192 146.37 99.032C146.357 99.0308 146.345 99.0322 146.333 99.0361C146.321 99.04 146.31 99.0464 146.301 99.0548C146.291 99.0633 146.284 99.0736 146.279 99.085C146.274 99.0965 146.271 99.1089 146.271 99.1214C146.271 99.193 146.343 99.2198 146.468 99.2198C146.593 99.2198 146.942 99.2198 147.175 99.2198H147.703C147.882 99.2198 148.204 99.2198 148.723 99.2198C149.242 99.2198 149.931 99.2198 150.853 99.2198C151.318 99.2198 151.443 99.2198 151.533 98.9158C151.606 98.5402 151.659 98.1612 151.694 97.7802C151.694 97.6908 151.694 97.5924 151.613 97.5924C151.533 97.5924 151.515 97.5924 151.488 97.7802C151.487 97.9567 151.434 98.129 151.335 98.2754C151.237 98.4218 151.097 98.5357 150.933 98.6028C150.533 98.7063 150.12 98.7485 149.707 98.728C148.499 98.728 148.276 98.5671 148.249 97.7802C148.249 97.5387 148.249 96.1617 148.249 95.7593V94.7757C148.249 94.7757 148.249 94.6863 148.329 94.6863C148.41 94.6863 149.851 94.6863 150.182 94.74C150.656 94.8025 150.763 94.9367 150.808 95.1066C150.849 95.2304 150.868 95.3607 150.862 95.4911C150.862 95.5626 150.862 95.6073 150.942 95.6073C151.023 95.6073 151.059 95.4821 151.059 95.3838C151.059 95.2854 151.059 94.8562 151.112 94.6148C151.132 94.3984 151.165 94.1834 151.211 93.971C151.211 93.8994 151.211 93.8726 151.139 93.8726C151.068 93.8726 151.041 93.9352 150.96 94.0246C150.88 94.114 150.656 94.1587 150.361 94.1856C150.065 94.2124 148.473 94.1856 148.311 94.1856C148.15 94.1856 148.249 94.1409 148.249 94.0604V90.8413C148.249 90.7608 148.249 90.7161 148.311 90.7161C148.374 90.7161 149.877 90.7161 150.101 90.7609C150.772 90.8413 150.898 90.9218 150.996 91.1185C151.041 91.2542 151.065 91.3959 151.068 91.5388C151.068 91.6371 151.068 91.6908 151.166 91.6908C151.264 91.6908 151.256 91.6193 151.273 91.5656C151.291 91.512 151.327 90.895 151.345 90.7877C151.368 90.6013 151.401 90.4162 151.443 90.2333C151.443 90.1796 151.443 90.117 151.381 90.117C151.318 90.117 151.273 90.1617 151.22 90.1796C151.166 90.1975 150.898 90.2333 150.665 90.2422C150.432 90.2512 147.819 90.2422 147.739 90.2422C147.658 90.2422 146.844 90.2422 146.316 90.2422C146.182 90.2422 146.128 90.2422 146.128 90.3406C146.132 90.3654 146.143 90.3884 146.161 90.4061C146.179 90.4238 146.202 90.4353 146.227 90.4389C146.364 90.4298 146.501 90.4298 146.638 90.4389C147.041 90.4926 147.112 90.6893 147.139 91.0917C147.166 91.4941 147.139 91.7981 147.139 93.6401L147.13 95.7861ZM136.723 90.8234H138.253C139.417 90.8234 139.685 91.1096 139.721 91.4762V91.6014C139.721 91.7713 139.766 91.807 139.819 91.807C139.873 91.807 139.927 91.7534 139.927 91.655C139.927 91.5567 139.927 90.6714 139.927 90.3048C139.927 90.2422 139.927 90.1707 139.873 90.1707L139.524 90.2243C139.227 90.2633 138.928 90.2812 138.629 90.278H134.012C133.71 90.2814 133.409 90.2695 133.108 90.2422C132.924 90.2078 132.742 90.163 132.562 90.1081C132.517 90.1081 132.446 90.2601 132.437 90.3227C132.428 90.3853 132.168 91.4762 132.168 91.6014C132.168 91.626 132.178 91.6497 132.194 91.668C132.211 91.6862 132.233 91.6975 132.258 91.6997C132.312 91.6997 132.356 91.6997 132.383 91.5924C132.428 91.4592 132.492 91.3328 132.571 91.2169C132.759 90.9397 133.045 90.8503 133.815 90.8413H135.605V95.804C135.605 96.9486 135.605 97.8785 135.551 98.3614C135.551 98.7101 135.444 98.9516 135.193 99.0052C135.073 99.0362 134.95 99.0542 134.826 99.0589C134.814 99.0576 134.803 99.0587 134.791 99.0621C134.78 99.0655 134.769 99.0711 134.76 99.0786C134.751 99.0861 134.743 99.0953 134.738 99.1057C134.732 99.1161 134.729 99.1276 134.728 99.1393C134.728 99.2109 134.79 99.2377 134.925 99.2377C135.292 99.2377 136.133 99.2377 136.195 99.2377C136.258 99.2377 137.036 99.2377 137.708 99.2377C137.851 99.2377 137.904 99.2377 137.904 99.1393C137.905 99.1268 137.902 99.1144 137.897 99.1029C137.892 99.0914 137.884 99.0812 137.875 99.0727C137.866 99.0643 137.855 99.0579 137.843 99.054C137.831 99.05 137.818 99.0487 137.806 99.0499C137.62 99.0443 137.434 99.0234 137.251 98.9873C136.875 98.9337 136.822 98.7101 136.777 98.3614C136.723 97.8785 136.723 96.9486 136.723 95.804V90.8234ZM118.433 94.4002C118.433 91.8249 119.909 90.5462 121.949 90.5462C123.99 90.5462 125.618 92.0395 125.618 94.8741C125.618 98.2988 123.399 98.88 122.298 98.88C120.088 98.88 118.433 97.1543 118.433 94.4091M117.162 94.731C117.146 95.357 117.26 95.9795 117.497 96.5592C117.734 97.1389 118.089 97.6633 118.538 98.0993C118.988 98.5353 119.523 98.8735 120.111 99.0925C120.698 99.3115 121.324 99.4066 121.949 99.3718C122.594 99.3963 123.236 99.2891 123.837 99.0567C124.438 98.8243 124.986 98.4717 125.446 98.0204C125.906 97.5691 126.268 97.0287 126.512 96.4324C126.756 95.836 126.875 95.1962 126.862 94.5522C126.862 91.7981 124.777 90.0813 122.021 90.0813C121.397 90.0586 120.775 90.1606 120.191 90.3814C119.607 90.6023 119.073 90.9374 118.62 91.3672C118.168 91.7969 117.806 92.3127 117.555 92.8842C117.305 93.4557 117.171 94.0714 117.162 94.6953M109.842 93.7295C109.842 91.8875 109.842 91.5567 109.842 91.1811C109.842 90.8056 109.941 90.5999 110.263 90.5284C110.364 90.5179 110.466 90.5179 110.567 90.5284C110.593 90.5266 110.618 90.5159 110.638 90.4981C110.657 90.4802 110.67 90.4562 110.674 90.43C110.674 90.3585 110.612 90.3316 110.469 90.3316H109.26C109.207 90.3316 108.366 90.3316 107.865 90.3316C107.73 90.3316 107.677 90.3316 107.677 90.43C107.677 90.4561 107.687 90.4811 107.705 90.4996C107.724 90.518 107.749 90.5284 107.775 90.5284C107.912 90.5192 108.05 90.5192 108.187 90.5284C108.589 90.582 108.652 90.7787 108.679 91.1811C108.706 91.5835 108.679 91.9233 108.679 93.7564V94.0067C108.679 94.0783 108.679 94.0783 108.607 94.0783H103.578C103.578 94.0783 103.507 94.0783 103.507 94.0067V93.7564C103.507 91.9233 103.507 91.5567 103.507 91.1811C103.507 90.8056 103.605 90.5999 103.936 90.5284C104.037 90.5176 104.139 90.5176 104.24 90.5284C104.265 90.5248 104.288 90.5132 104.306 90.4955C104.324 90.4778 104.335 90.4548 104.339 90.43C104.339 90.3585 104.285 90.3316 104.142 90.3316H102.934C102.862 90.3316 102.039 90.3316 101.529 90.3316C101.395 90.3316 101.332 90.3316 101.332 90.43C101.337 90.4543 101.349 90.4766 101.366 90.4941C101.384 90.5116 101.406 90.5235 101.431 90.5284C101.571 90.5189 101.711 90.5189 101.851 90.5284C102.254 90.582 102.325 90.7787 102.352 91.1811C102.379 91.5835 102.352 91.8875 102.352 93.7295V95.813C102.375 96.6661 102.351 97.5198 102.281 98.3703C102.227 98.7191 102.2 98.9426 101.959 98.9963C101.837 99.0351 101.71 99.0562 101.583 99.0589C101.559 99.0589 101.536 99.0683 101.519 99.085C101.503 99.1018 101.493 99.1246 101.493 99.1483C101.493 99.2198 101.556 99.2466 101.681 99.2466C102.057 99.2466 102.835 99.2466 102.907 99.2466C102.979 99.2466 103.739 99.2466 104.428 99.2466C104.563 99.2466 104.616 99.2466 104.616 99.1483C104.616 99.1357 104.614 99.1233 104.609 99.1119C104.604 99.1004 104.596 99.0901 104.587 99.0817C104.578 99.0732 104.567 99.0668 104.555 99.0629C104.543 99.059 104.53 99.0576 104.518 99.0589C104.332 99.0518 104.146 99.0309 103.963 98.9963C103.605 98.9426 103.56 98.7191 103.516 98.3703C103.462 97.8875 103.462 96.9844 103.462 95.8398V94.6595C103.462 94.6058 103.462 94.5879 103.533 94.5879H108.643C108.643 94.5879 108.715 94.5879 108.715 94.6595V95.8398C108.715 96.9844 108.715 97.8696 108.661 98.3614C108.661 98.7101 108.571 98.9426 108.321 98.9963C108.205 99.0344 108.085 99.0555 107.963 99.0589C107.95 99.0576 107.938 99.059 107.926 99.0629C107.914 99.0668 107.903 99.0732 107.894 99.0817C107.885 99.0901 107.877 99.1004 107.872 99.1119C107.867 99.1233 107.864 99.1357 107.865 99.1483C107.865 99.2198 107.918 99.2466 108.061 99.2466C108.419 99.2466 109.216 99.2466 109.269 99.2466C109.323 99.2466 110.164 99.2466 110.782 99.2466C110.925 99.2466 110.996 99.2466 110.996 99.1483C110.996 99.0499 110.996 99.0589 110.88 99.0589C110.7 99.0522 110.52 99.0313 110.343 98.9963C109.967 98.9426 109.932 98.7191 109.896 98.3703C109.842 97.8875 109.824 96.9575 109.824 95.813L109.842 93.7295Z" fill="#C8BD90"/>
<path d="M64.1304 83.6847C64.4492 83.3661 64.8817 83.1871 65.3326 83.1871H74.0484C74.4993 83.1871 74.9317 83.3661 75.2506 83.6847C75.5694 84.0033 75.7486 84.4355 75.7486 84.8861C75.7486 85.3366 75.5694 85.7688 75.2506 86.0874C74.9317 86.406 74.4993 86.585 74.0484 86.585H65.3326C64.8817 86.585 64.4492 86.406 64.1304 86.0874C63.8115 85.7688 63.6324 85.3366 63.6324 84.8861C63.6324 84.4355 63.8115 84.0033 64.1304 83.6847Z" fill="#C8BD90"/>
<path d="M69.745 47.189C68.8475 48.5389 67.8231 49.8006 66.6858 50.9568L66.6801 50.9626C65.5789 52.0456 64.5878 53.2348 63.7213 54.513C63.388 55.0332 63.1042 55.5836 62.8736 56.1568C61.4386 59.9068 62.8573 63.8518 64.8055 67.3631L64.808 67.3677C67.3523 72.0696 68.058 76.477 68.4448 81.5708L68.4452 81.5744L68.4477 81.601L68.4572 81.7035C68.4653 81.7931 68.4769 81.9246 68.4904 82.0933C68.4933 82.1284 68.4962 82.1652 68.4993 82.2035H70.7744C70.7914 81.9921 70.8097 81.7807 70.8289 81.5693C71.2782 76.5049 71.9925 72.0713 74.5092 67.3696C76.4187 63.803 77.8785 59.9059 76.4453 56.1582C76.2099 55.5838 75.9246 55.0311 75.5928 54.5064C74.7782 53.235 73.8428 52.0452 72.7993 50.9535C71.6685 49.7939 70.6463 48.5338 69.745 47.189Z" fill="#C8BD90"/>
<path d="M70.5709 87.5686H68.7016C68.701 87.7594 68.6996 87.9523 68.6972 88.147L68.6965 88.1657L68.6951 88.1863C68.4688 90.6257 67.9755 93.0328 67.2239 95.3646C67.2209 95.3738 67.2177 95.3828 67.2142 95.3917C67.1841 95.4693 67.1828 95.5549 67.2102 95.6332C67.3223 95.8776 67.4307 96.1235 67.5368 96.3694C67.6676 96.6725 67.7948 96.9757 67.921 97.2765L67.9236 97.2824L67.9256 97.2869C68.2568 98.0814 68.5682 98.8793 68.8769 99.6702L68.8962 99.7195L69.1264 100.308C69.1875 100.464 69.2488 100.62 69.3103 100.775L69.4504 101.127C69.5092 101.274 69.5683 101.42 69.628 101.567C69.7903 101.17 69.9495 100.771 70.1078 100.37C70.1934 100.153 70.2788 99.936 70.3643 99.7184L70.386 99.6634L70.3922 99.6474L70.3941 99.6421C70.7016 98.8602 71.0116 98.0717 71.339 97.2869L71.3411 97.282L71.3431 97.2774C71.5717 96.7327 71.8039 96.1791 72.0544 95.6332C72.0818 95.5549 72.0805 95.4693 72.0504 95.3917L72.0466 95.3816L72.0403 95.3632C71.2963 93.0304 70.8062 90.6243 70.5785 88.1866C70.5772 88.1736 70.5766 88.1608 70.5763 88.1478C70.5736 87.9547 70.5718 87.7617 70.5709 87.5686Z" fill="#C8BD90"/>
<path d="M65.6775 87.5686H67.8003C67.7965 87.7568 67.7914 87.945 67.785 88.1331C67.6576 89.9416 67.1437 92.0034 66.1626 93.4708C65.6746 94.2007 65.0844 94.7641 64.3878 95.091C63.6983 95.4146 62.8695 95.5233 61.8649 95.2892L61.8581 95.2877C60.9096 95.081 60.2422 94.506 59.9554 93.833C59.7034 93.2414 59.7263 92.5318 60.1731 91.8448C60.7473 92.4608 61.4246 92.8851 62.1609 92.9549C63.0213 93.0365 63.8231 92.6227 64.4779 91.7771L64.4904 91.7602C64.4969 91.751 64.5032 91.7415 64.5091 91.7318C65.1565 90.6689 65.5396 89.4664 65.6262 88.2253C65.6464 88.0065 65.6636 87.7877 65.6775 87.5686Z" fill="#C8BD90"/>
<path d="M65.4039 82.2035H67.563C67.5437 82.0266 67.5233 81.8496 67.5016 81.6729L67.5001 81.6583C67.2325 78.7475 66.3534 75.4188 64.8914 72.4268C63.4278 69.4314 61.3997 66.8127 58.8587 65.2683C56.9011 64.0937 54.6043 63.6132 52.3395 63.9044L52.3218 63.9064L52.3049 63.9077C51.2686 63.967 50.2675 64.3044 49.407 64.8844C48.5503 65.4618 47.8645 66.2584 47.4212 67.191C47.0717 68.0568 46.9151 68.9884 46.9622 69.9209C47.0096 70.8578 47.2617 71.7732 47.7007 72.6025L47.7036 72.6082C48.5781 74.3136 50.5422 76.0921 52.4867 77.496C53.4492 78.191 54.3882 78.7809 55.1526 79.2103C55.2123 79.2438 55.2708 79.2762 55.3282 79.3077C55.0017 78.6981 54.7065 78.0276 54.524 77.3495C54.1873 76.0978 54.2093 74.6998 55.2924 73.666C55.3026 73.6564 55.3131 73.6472 55.3239 73.6385C55.7887 73.2649 56.3451 73.0221 56.9353 72.9354C57.5207 72.8495 58.1183 72.9203 58.6672 73.1402C59.887 73.5555 60.9623 74.3108 61.7666 75.3167C63.4318 77.066 64.6384 79.1996 65.279 81.5276C65.2823 81.5394 65.2852 81.5514 65.2876 81.5634C65.3293 81.7764 65.3681 81.9897 65.4039 82.2035Z" fill="#C8BD90"/>
<path d="M71.6154 87.5686H73.73C73.7441 87.7876 73.7612 88.0064 73.7814 88.2252C73.8681 89.4663 74.2511 90.6689 74.8985 91.7318C74.9038 91.7404 74.9093 91.7489 74.9151 91.7572C74.9198 91.7639 74.9246 91.7706 74.9296 91.7771C75.5845 92.6227 76.3863 93.0364 77.2468 92.9549C77.9826 92.8851 78.6598 92.4613 79.2338 91.8456C79.6761 92.5318 79.6976 93.2411 79.4455 93.833C79.1584 94.5068 78.4926 95.0813 77.5492 95.2877L77.5426 95.2892C76.5381 95.5233 75.7094 95.4146 75.02 95.091C74.3236 94.7641 73.7336 94.2007 73.2462 93.4709C72.2662 92.0035 71.7544 89.9416 71.6315 88.1334C71.6249 87.9451 71.6195 87.7569 71.6154 87.5686Z" fill="#C8BD90"/>
<path d="M73.9966 82.2035C74.0317 81.9902 74.0698 81.7773 74.1108 81.5649C74.1133 81.5519 74.1164 81.539 74.1199 81.5263C74.7665 79.2014 75.9721 77.0698 77.6317 75.3173C78.4358 74.3111 79.5112 73.5558 80.731 73.1403C81.2799 72.9193 81.8778 72.8481 82.4635 72.934C83.0542 73.0207 83.6109 73.2642 84.0755 73.639C84.0861 73.6477 84.0963 73.6566 84.1062 73.666C85.1893 74.6997 85.2114 76.0978 84.8746 77.3494C84.7886 77.6694 84.6774 77.9877 84.5497 78.2987C84.4062 78.6479 84.242 78.9878 84.069 79.3105C84.128 79.2782 84.1883 79.2447 84.2499 79.2102C85.0146 78.7809 85.9532 78.191 86.9152 77.4961C88.8584 76.0923 90.8206 74.3137 91.695 72.6082L91.6989 72.6007C92.1413 71.7731 92.3959 70.8583 92.4448 69.9212C92.4934 68.9887 92.3369 68.0568 91.9865 67.1913C91.5431 66.2585 90.8574 65.4618 90.0005 64.8843C89.1401 64.3044 88.139 63.967 87.1028 63.9077C87.0911 63.9071 87.0794 63.906 87.0678 63.9044C84.8004 63.6118 82.5003 64.0924 80.54 65.2682C78.0035 66.8127 75.9753 69.4314 74.5117 72.4268C73.0497 75.4188 72.1707 78.7473 71.9076 81.6575L71.9061 81.6723C71.8846 81.8492 71.8644 82.0264 71.8453 82.2035H73.9966Z" fill="#C8BD90"/>
<path d="M314.714 83.6847C315.032 83.366 315.465 83.187 315.916 83.187H324.667C325.118 83.187 325.551 83.366 325.87 83.6847C326.188 84.0033 326.368 84.4354 326.368 84.886C326.368 85.3366 326.188 85.7687 325.87 86.0873C325.551 86.406 325.118 86.585 324.667 86.585H315.916C315.465 86.585 315.032 86.406 314.714 86.0873C314.395 85.7687 314.216 85.3366 314.216 84.886C314.216 84.4354 314.395 84.0033 314.714 83.6847Z" fill="#C8BD90"/>
<path d="M320.301 47.1895C319.404 48.5392 318.379 49.8007 317.242 50.9568L317.241 50.9584C316.161 52.0456 315.189 53.2336 314.336 54.5061C314.02 55.031 313.75 55.5822 313.53 56.1536C312.093 59.9046 313.512 63.8508 315.46 67.363L315.463 67.3669C318.016 72.07 318.722 76.4783 319.1 81.5735C319.118 81.7834 319.136 81.9934 319.152 82.2035H321.42C321.437 81.9929 321.455 81.7823 321.475 81.5719C321.87 76.5057 322.576 72.0708 325.129 67.3681C327.039 63.8006 328.499 59.9024 327.063 56.1536C326.842 55.5822 326.572 55.0309 326.256 54.5058C325.406 53.2336 324.436 52.0456 323.36 50.9579L323.358 50.956C322.224 49.7979 321.201 48.5369 320.301 47.1895Z" fill="#C8BD90"/>
<path d="M321.217 87.5685H319.349C319.348 87.7616 319.346 87.9546 319.343 88.1477C319.343 88.16 319.342 88.1724 319.341 88.1847C319.122 90.6249 318.632 93.0332 317.879 95.3648C317.876 95.3739 317.873 95.3828 317.869 95.3917C317.858 95.4206 317.851 95.4506 317.847 95.4809C317.842 95.5329 317.848 95.5857 317.866 95.6355C318.106 96.1785 318.347 96.7318 318.58 97.2859L318.581 97.2891C318.884 98.0244 319.173 98.7631 319.461 99.497L319.548 99.7189C319.79 100.339 320.033 100.955 320.283 101.567C320.441 101.179 320.597 100.789 320.751 100.397C320.84 100.172 320.929 99.9455 321.018 99.7189L321.333 98.9142C321.405 98.731 321.478 98.5475 321.551 98.3639C321.693 98.0054 321.837 97.6469 321.984 97.2891L321.985 97.2859C322.219 96.7299 322.461 96.1746 322.702 95.6297C322.731 95.5564 322.73 95.4746 322.7 95.4017L322.694 95.3848C322.691 95.3782 322.689 95.3716 322.687 95.3648C321.934 93.0332 321.443 90.6249 321.224 88.1847C321.223 88.1724 321.223 88.16 321.222 88.1477C321.22 87.9546 321.218 87.7616 321.217 87.5685Z" fill="#C8BD90"/>
<path d="M316.27 87.5685H318.376C318.372 87.7568 318.366 87.945 318.359 88.1333C318.237 89.9414 317.725 92.0034 316.745 93.4709C316.257 94.2008 315.667 94.764 314.971 95.0909C314.282 95.4146 313.453 95.5234 312.448 95.2892L312.442 95.2877C311.498 95.0812 310.833 94.5068 310.546 93.833C310.293 93.2408 310.315 92.5312 310.758 91.8446C311.335 92.4608 312.015 92.8852 312.752 92.9549C313.613 93.0364 314.415 92.6228 315.07 91.7771L315.084 91.7584C315.09 91.7498 315.096 91.7408 315.101 91.7318C315.749 90.6688 316.132 89.4664 316.218 88.2252C316.239 88.0065 316.256 87.7876 316.27 87.5685Z" fill="#C8BD90"/>
<path d="M315.996 82.2035H318.153C318.135 82.0259 318.115 81.8485 318.094 81.6711L318.092 81.6582C317.825 78.7475 316.946 75.4187 315.484 72.4267C314.02 69.4314 311.992 66.8127 309.451 65.2683C307.493 64.0937 305.197 63.6132 302.932 63.9044C302.919 63.906 302.907 63.9071 302.895 63.9078C301.858 63.9617 300.855 64.2968 299.994 64.8769C299.137 65.4549 298.453 66.2542 298.014 67.1899C297.664 68.0559 297.507 68.9879 297.554 69.9208C297.602 70.8578 297.854 71.7731 298.293 72.6025L298.296 72.6081C299.17 74.3135 301.134 76.0921 303.079 77.4959C304.042 78.191 304.981 78.7809 305.745 79.2103L305.824 79.2546L305.92 79.3076C305.594 78.698 305.299 78.0276 305.116 77.3494C304.78 76.0978 304.802 74.6997 305.885 73.6659L305.902 73.6502L305.916 73.6384C306.381 73.2648 306.937 73.022 307.528 72.9354C308.113 72.8495 308.711 72.9202 309.26 73.1402C310.479 73.5555 311.555 74.3107 312.359 75.3167C314.024 77.066 315.231 79.1996 315.871 81.5276C315.875 81.5394 315.877 81.5514 315.88 81.5634C315.922 81.7763 315.96 81.9896 315.996 82.2035Z" fill="#C8BD90"/>
<path d="M322.208 87.5685H324.322C324.336 87.7875 324.353 88.0064 324.374 88.2251C324.46 89.4663 324.843 90.6687 325.491 91.7318C325.5 91.7474 325.511 91.7625 325.522 91.7771C326.177 92.6227 326.979 93.0364 327.839 92.9548C328.575 92.8851 329.252 92.4612 329.826 91.8455C330.268 92.5317 330.29 93.241 330.038 93.833C329.751 94.5068 329.085 95.0812 328.141 95.2876L328.135 95.2892C327.13 95.5233 326.302 95.4146 325.612 95.0909C324.916 94.764 324.326 94.2007 323.839 93.4709C322.858 92.0034 322.347 89.9415 322.224 88.1333C322.217 87.945 322.212 87.7568 322.208 87.5685Z" fill="#C8BD90"/>
<path d="M324.589 82.2035C324.624 81.9902 324.662 81.7772 324.703 81.5648C324.706 81.552 324.709 81.5394 324.712 81.5268C325.356 79.2005 326.562 77.0682 328.224 75.317C329.028 74.3108 330.104 73.5555 331.324 73.1402C331.873 72.9202 332.47 72.8495 333.056 72.9354C333.646 73.022 334.202 73.2647 334.667 73.6384C334.678 73.6472 334.688 73.6563 334.698 73.6659C335.782 74.6996 335.804 76.0978 335.467 77.3493C335.285 78.0276 334.989 78.698 334.663 79.3076C334.72 79.2762 334.779 79.2437 334.838 79.2102C335.603 78.7809 336.542 78.1909 337.504 77.4959C339.449 76.092 341.413 74.3135 342.287 72.6081L342.291 72.6017C342.731 71.773 342.985 70.858 343.033 69.921C343.082 68.9886 342.927 68.0569 342.578 67.1907C342.135 66.2582 341.449 65.4617 340.593 64.8843C339.732 64.3043 338.731 63.9669 337.695 63.9077C337.683 63.907 337.672 63.9059 337.66 63.9044C335.393 63.6117 333.093 64.0923 331.132 65.2681C328.596 66.8127 326.568 69.4314 325.104 72.4267C323.642 75.4187 322.763 78.7472 322.5 81.6575L322.498 81.6722C322.477 81.8491 322.457 82.0263 322.438 82.2035H324.589Z" fill="#C8BD90"/>
</svg>
