<svg width="24" height="25" viewBox="0 0 24 25" fill="none" xmlns="http://www.w3.org/2000/svg">
<path fill-rule="evenodd" clip-rule="evenodd" d="M20.528 6.24228C20.7951 6.95105 20.9369 7.7009 20.947 8.45828C21.0028 9.41087 21.003 9.72241 21.005 12.1336L21.005 12.1673C21.005 14.6103 20.992 14.9153 20.949 15.8773C20.934 16.6263 20.793 17.3643 20.53 18.0643C20.2981 18.662 19.9442 19.2048 19.4909 19.6581C19.0375 20.1115 18.4947 20.4654 17.897 20.6973C17.1974 20.9599 16.4582 21.1016 15.711 21.1163C14.756 21.1723 14.443 21.1723 12.001 21.1723C9.55901 21.1723 9.25401 21.1593 8.29101 21.1163C7.54238 21.0917 6.80344 20.9395 6.10601 20.6663C5.50807 20.4349 4.96499 20.0812 4.51145 19.6281C4.05791 19.1749 3.70389 18.632 3.47201 18.0343C3.20901 17.3333 3.06801 16.5953 3.05301 15.8473C2.99701 14.8913 2.99701 14.5793 2.99701 12.1373C2.99701 9.69528 3.01001 9.39028 3.05301 8.42728C3.06713 7.68039 3.20884 6.94141 3.47201 6.24228C3.7035 5.64434 4.05725 5.1013 4.51064 4.64791C4.96403 4.19452 5.50707 3.84077 6.10501 3.60928C6.80436 3.34675 7.54317 3.20473 8.29001 3.18928C9.24501 3.13428 9.55801 3.13428 12 3.13428C14.442 3.13428 14.747 3.14628 15.709 3.18928C16.4562 3.20462 17.1953 3.34663 17.895 3.60928C18.4929 3.84093 19.0358 4.19474 19.4892 4.64811C19.9425 5.10148 20.2964 5.64443 20.528 6.24228ZM7.37101 12.1323C7.37101 14.6863 9.44001 16.7553 11.994 16.7553C13.2201 16.7553 14.396 16.2682 15.263 15.4012C16.1299 14.5343 16.617 13.3584 16.617 12.1323C16.617 10.9062 16.1299 9.7303 15.263 8.86332C14.396 7.99634 13.2201 7.50928 11.994 7.50928C9.44001 7.50928 7.37101 9.57828 7.37101 12.1323ZM16.3883 8.33449C16.5192 8.38862 16.6594 8.41641 16.801 8.41628C17.396 8.41628 17.878 7.93428 17.878 7.33828C17.878 7.19678 17.8501 7.05666 17.796 6.92594C17.7418 6.79521 17.6625 6.67642 17.5624 6.57637C17.4624 6.47631 17.3436 6.39695 17.2129 6.3428C17.0821 6.28865 16.942 6.26078 16.8005 6.26078C16.659 6.26078 16.5189 6.28865 16.3882 6.3428C16.2574 6.39695 16.1387 6.47631 16.0386 6.57637C15.9385 6.67642 15.8592 6.79521 15.805 6.92594C15.7509 7.05666 15.723 7.19678 15.723 7.33828C15.7229 7.47988 15.7507 7.62012 15.8048 7.75097C15.8589 7.88181 15.9383 8.0007 16.0385 8.10083C16.1386 8.20096 16.2575 8.28036 16.3883 8.33449ZM14.997 12.1324C14.997 13.7909 13.6525 15.1354 11.994 15.1354C10.3355 15.1354 8.99101 13.7909 8.99101 12.1324C8.99101 10.4739 10.3355 9.12939 11.994 9.12939C13.6525 9.12939 14.997 10.4739 14.997 12.1324Z" fill="white"/>
</svg>
