<svg width="24" height="25" viewBox="0 0 24 25" fill="none" xmlns="http://www.w3.org/2000/svg">
<path d="M19.633 8.15036C19.646 8.32536 19.646 8.49936 19.646 8.67336C19.646 13.9984 15.593 20.1344 8.186 20.1344C5.904 20.1344 3.784 19.4734 2 18.3254C2.324 18.3624 2.636 18.3754 2.973 18.3754C4.78599 18.3797 6.54765 17.7735 7.974 16.6544C7.13342 16.6391 6.31858 16.3618 5.64324 15.8611C4.9679 15.3604 4.46578 14.6613 4.207 13.8614C4.456 13.8984 4.706 13.9234 4.968 13.9234C5.329 13.9234 5.692 13.8734 6.029 13.7864C5.11676 13.6022 4.29647 13.1077 3.70762 12.387C3.11876 11.6664 2.79769 10.764 2.799 9.83336V9.78336C3.336 10.0824 3.959 10.2694 4.619 10.2944C4.06609 9.92695 3.61272 9.42839 3.29934 8.84315C2.98596 8.25792 2.82231 7.60422 2.823 6.94036C2.823 6.19236 3.022 5.50636 3.371 4.90836C4.38314 6.15338 5.6455 7.17193 7.07634 7.89802C8.50717 8.62412 10.0746 9.04158 11.677 9.12336C11.615 8.82336 11.577 8.51236 11.577 8.20036C11.5767 7.67133 11.6807 7.14742 11.8831 6.6586C12.0854 6.16979 12.3821 5.72564 12.7562 5.35155C13.1303 4.97746 13.5744 4.68077 14.0632 4.47844C14.5521 4.27611 15.076 4.1721 15.605 4.17236C16.765 4.17236 17.812 4.65836 18.548 5.44436C19.4498 5.26998 20.3145 4.94079 21.104 4.47136C20.8034 5.40218 20.1738 6.19147 19.333 6.69136C20.1328 6.60014 20.9144 6.38982 21.652 6.06736C21.1011 6.87046 20.4185 7.57471 19.633 8.15036Z" fill="white"/>
</svg>
