<svg width="136" height="25" viewBox="0 0 136 25" fill="none" xmlns="http://www.w3.org/2000/svg">
<path d="M24.9 19.6074C25 19.7074 25.1 19.8074 25.2 19.9074C25.4 19.9074 25.6 19.9074 25.8 19.8074C26 19.7074 26.3 19.5074 26.5 19.1074C26.7 18.8074 26.8 18.3074 26.8 17.9074C26.8 17.7074 26.7 17.4074 26.6 17.2074C26.5 16.9074 26.3 16.6074 26.1 16.4074C25.9 16.1074 25.6 15.9074 25.3 15.7074C25 15.5074 24.7 15.4074 24.4 15.3074C24.1 15.2074 23.8 15.2074 23.5 15.1074C23.4 15.1074 23.2 15.1074 23.1 15.1074C23 15.1074 22.9 15.1074 22.8 15.1074C22.7 15.1074 22.6 15.1074 22.5 15.1074C22.4 15.1074 22.4 15.1074 22.3 15.2074C22.2 15.2074 22.1 15.3074 22.1 15.3074C22.1 15.3074 22.2 15.4074 22.3 15.4074C22.4 15.4074 22.6 15.5074 22.7 15.6074C22.8 15.6074 22.9 15.7074 23 15.7074C23.1 15.7074 23.2 15.8074 23.3 15.8074C23.5 15.9074 23.7 16.0074 23.9 16.2074C24.1 16.4074 24.3 16.5074 24.4 16.7074C24.5 16.9074 24.6 17.1074 24.7 17.2074C24.8 17.4074 24.8 17.5074 24.8 17.6074V17.8074C24.8 17.8074 24.8 17.8074 24.8 17.9074C24.8 17.9074 24.8 17.9074 24.8 18.0074C24.8 18.1074 24.8 18.2074 24.8 18.4074C24.8 18.5074 24.8 18.6074 24.8 18.8074C24.9 19.1074 24.8 19.4074 24.9 19.6074Z" fill="#213357"/>
<path d="M21.5999 16.2075C21.5999 16.2075 21.6999 19.4075 20.4999 18.8075C19.1999 18.3075 21.5999 16.0075 21.5999 16.2075Z" fill="#213357"/>
<path d="M22.2 16.3075C22.2 16.3075 24.3 17.4075 23.5 18.1075C22.7 18.7075 22.1 16.3075 22.2 16.3075Z" fill="#213357"/>
<path d="M19.3 23.4074C19.3 23.6074 19.1999 23.8075 18.9999 24.0075C18.7999 24.2075 18.3999 24.3075 17.9999 24.2075C17.4999 24.2075 16.9999 24.0074 16.4999 23.6074C15.9999 23.2074 15.6 22.6074 15.4 21.9074C15.3 21.6074 15.2 21.1074 15.2 20.6074C15.2 20.1074 15.2999 19.6074 15.4999 19.0074C15.6999 18.5074 16 17.9074 16.3 17.5074C16.7 17.0074 17.0999 16.6074 17.4999 16.3074C17.8999 16.0074 18.4 15.7074 18.8 15.5074C19 15.4074 19.2 15.3074 19.4 15.3074C19.6 15.2074 19.8 15.2074 19.9 15.1074C20.1 15.1074 20.2 15.0074 20.4 15.0074C20.5 15.0074 20.7 15.0074 20.8 15.0074C21 15.0074 21.0999 15.0074 21.0999 15.1074C21.0999 15.1074 21 15.2074 20.9 15.4074C20.7 15.5074 20.6 15.7074 20.3 15.9074C20.2 16.0074 20.1 16.1075 19.9 16.2075C19.8 16.3075 19.5999 16.5074 19.4999 16.6074C19.2999 16.9074 19 17.2074 18.8 17.6074C18.6 17.9074 18.4 18.3075 18.3 18.7075C18.2 19.1075 18.0999 19.4075 18.0999 19.7075C18.0999 20.0075 18.1 20.3074 18.2 20.5074C18.2 20.6074 18.2 20.6074 18.2 20.6074V20.9074C18.3 21.1074 18.3 21.3074 18.4 21.5074C18.5 21.7074 18.4999 21.9074 18.5999 22.1074C18.9999 22.5074 19.3 23.0074 19.3 23.4074Z" fill="#213357"/>
<path d="M19.3 1.80749C19.3 1.60749 19.1999 1.4075 18.9999 1.2075C18.7999 1.0075 18.3999 0.907491 17.9999 1.00749C17.4999 1.00749 16.9999 1.20749 16.4999 1.60749C15.9999 2.00749 15.6 2.60749 15.4 3.30749C15.3 3.60749 15.2 4.10749 15.2 4.60749C15.2 5.10749 15.2999 5.6075 15.4999 6.2075C15.6999 6.7075 16 7.3075 16.3 7.7075C16.7 8.2075 17.0999 8.60749 17.4999 8.90749C17.8999 9.20749 18.4 9.5075 18.8 9.7075C19 9.8075 19.2 9.90749 19.4 9.90749C19.6 10.0075 19.8 10.0075 19.9 10.1075C20.1 10.1075 20.2 10.2075 20.4 10.2075C20.5 10.2075 20.7 10.2075 20.8 10.2075C21 10.2075 21.0999 10.2075 21.0999 10.1075C21.0999 10.1075 21 10.0075 20.9 9.80749C20.7 9.70749 20.6 9.50749 20.3 9.30749C20.2 9.20749 20.1 9.10749 19.9 9.00749C19.8 8.90749 19.5999 8.70749 19.4999 8.60749C19.2999 8.30749 19 8.00749 18.8 7.60749C18.6 7.30749 18.4 6.90749 18.3 6.50749C18.2 6.10749 18.0999 5.80749 18.0999 5.50749C18.0999 5.20749 18.1 4.9075 18.2 4.7075C18.2 4.6075 18.2 4.60749 18.2 4.60749V4.30749C18.3 4.10749 18.3 3.9075 18.4 3.7075C18.5 3.5075 18.4999 3.30749 18.5999 3.10749C18.9999 2.60749 19.3 2.20749 19.3 1.80749Z" fill="#213357"/>
<path d="M24.9 5.60749C25 5.50749 25.1 5.4075 25.2 5.3075C25.4 5.3075 25.6 5.30749 25.8 5.40749C26 5.50749 26.3 5.70749 26.5 6.10749C26.7 6.40749 26.8 6.9075 26.8 7.3075C26.8 7.50749 26.7 7.80749 26.6 8.00749C26.5 8.30749 26.3 8.6075 26.1 8.8075C25.9 9.1075 25.6 9.30749 25.3 9.50749C25 9.70749 24.7 9.80749 24.4 9.90749C24.1 10.0075 23.8 10.0075 23.5 10.1075C23.4 10.1075 23.2 10.1075 23.1 10.1075C23 10.1075 22.9 10.1075 22.8 10.1075C22.7 10.1075 22.6 10.1075 22.5 10.1075C22.4 10.1075 22.4 10.1075 22.3 10.0075C22.2 10.0075 22.1 9.90749 22.1 9.90749C22.1 9.90749 22.2 9.8075 22.3 9.8075C22.4 9.8075 22.6 9.70749 22.7 9.60749C22.8 9.60749 22.9 9.50749 23 9.50749C23.1 9.50749 23.2 9.40749 23.3 9.40749C23.5 9.30749 23.7 9.20749 23.9 9.00749C24.1 8.80749 24.3 8.70749 24.4 8.50749C24.5 8.30749 24.6 8.10749 24.7 8.00749C24.8 7.80749 24.8 7.70749 24.8 7.60749V7.40749C24.8 7.40749 24.8 7.4075 24.8 7.3075C24.8 7.3075 24.8 7.3075 24.8 7.2075C24.8 7.1075 24.8 7.00749 24.8 6.8075C24.8 6.7075 24.8 6.60749 24.8 6.40749C24.9 6.10749 24.8 5.80749 24.9 5.60749Z" fill="#213357"/>
<path d="M21.5999 9.00746C21.5999 9.00746 21.6999 5.80746 20.4999 6.40746C19.1999 6.90746 21.5999 9.20746 21.5999 9.00746Z" fill="#213357"/>
<path d="M22.2 8.80746C22.2 8.80746 24.3 7.70746 23.5 7.00746C22.7 6.50746 22.1 8.90746 22.2 8.80746Z" fill="#213357"/>
<path d="M22 11.7075C21.9 11.7075 21.8 11.6075 21.8 11.5075V11.3075C21.8 11.0075 21.5 10.7075 21.2 10.7075H21.1C21.1 10.7075 15 11.7075 12.8 3.60746C12.3 1.90746 12 7.80746 14.7 10.2075C9.40001 6.40746 0.8 12.0075 0 12.5075C0.8 13.0075 9.30001 18.6075 14.7 14.8075C12 17.2075 12.3 23.1075 12.8 21.4075C15 13.3075 21.1 14.3075 21.1 14.3075C21.5 14.3075 21.9 14.0075 21.9 13.5075V13.4075C21.9 13.3075 22 13.2075 22.1 13.2075H23.4V11.7075H22Z" fill="#213357"/>
<path d="M136 11.9075H22.7999V13.3075H136V11.9075Z" fill="#213357"/>
</svg>
