<svg width="136" height="25" viewBox="0 0 136 25" fill="none" xmlns="http://www.w3.org/2000/svg">
<path d="M111.1 19.6074C111 19.7074 110.9 19.8074 110.8 19.9074C110.6 19.9074 110.4 19.9074 110.2 19.8074C110 19.7074 109.7 19.5074 109.5 19.1074C109.3 18.8074 109.2 18.3074 109.2 17.9074C109.2 17.7074 109.3 17.4074 109.4 17.2074C109.5 16.9074 109.7 16.6074 109.9 16.4074C110.1 16.1074 110.4 15.9074 110.7 15.7074C111 15.5074 111.3 15.4074 111.6 15.3074C111.9 15.2074 112.2 15.2074 112.5 15.1074C112.6 15.1074 112.8 15.1074 112.9 15.1074C113 15.1074 113.1 15.1074 113.2 15.1074C113.3 15.1074 113.4 15.1074 113.5 15.1074C113.6 15.1074 113.6 15.1074 113.7 15.2074C113.8 15.2074 113.9 15.3074 113.9 15.3074C113.9 15.3074 113.8 15.4074 113.7 15.4074C113.6 15.4074 113.4 15.5074 113.3 15.6074C113.2 15.6074 113.1 15.7074 113 15.7074C112.9 15.7074 112.8 15.8074 112.7 15.8074C112.5 15.9074 112.3 16.0074 112.1 16.2074C111.9 16.4074 111.7 16.5074 111.6 16.7074C111.5 16.9074 111.4 17.1074 111.3 17.2074C111.2 17.4074 111.2 17.5074 111.2 17.6074V17.8074C111.2 17.8074 111.2 17.8074 111.2 17.9074C111.2 17.9074 111.2 17.9074 111.2 18.0074C111.2 18.1074 111.2 18.2074 111.2 18.4074C111.2 18.5074 111.2 18.6074 111.2 18.8074C111.1 19.1074 111.2 19.4074 111.1 19.6074Z" fill="#213357"/>
<path d="M114.4 16.2075C114.4 16.2075 114.3 19.4075 115.5 18.8075C116.8 18.3075 114.4 16.0075 114.4 16.2075Z" fill="#213357"/>
<path d="M113.8 16.3075C113.8 16.3075 111.7 17.4075 112.5 18.1075C113.3 18.7075 113.9 16.3075 113.8 16.3075Z" fill="#213357"/>
<path d="M116.7 23.4074C116.7 23.6074 116.8 23.8075 117 24.0075C117.2 24.2075 117.6 24.3075 118 24.2075C118.5 24.2075 119 24.0074 119.5 23.6074C120 23.2074 120.4 22.6074 120.6 21.9074C120.7 21.6074 120.8 21.1074 120.8 20.6074C120.8 20.1074 120.7 19.6074 120.5 19.0074C120.3 18.5074 120 17.9074 119.7 17.5074C119.3 17.0074 118.9 16.6074 118.5 16.3074C118.1 16.0074 117.6 15.7074 117.2 15.5074C117 15.4074 116.8 15.3074 116.6 15.3074C116.4 15.2074 116.2 15.2074 116.1 15.1074C115.9 15.1074 115.8 15.0074 115.6 15.0074C115.5 15.0074 115.3 15.0074 115.2 15.0074C115 15.0074 114.9 15.0074 114.9 15.1074C114.9 15.1074 115 15.2074 115.1 15.4074C115.3 15.5074 115.4 15.7074 115.7 15.9074C115.8 16.0074 115.9 16.1075 116.1 16.2075C116.2 16.3075 116.4 16.5074 116.5 16.6074C116.7 16.9074 117 17.2074 117.2 17.6074C117.4 17.9074 117.6 18.3075 117.7 18.7075C117.8 19.1075 117.9 19.4075 117.9 19.7075C117.9 20.0075 117.9 20.3074 117.8 20.5074C117.8 20.6074 117.8 20.6074 117.8 20.6074V20.9074C117.7 21.1074 117.7 21.3074 117.6 21.5074C117.5 21.7074 117.5 21.9074 117.4 22.1074C117 22.5074 116.7 23.0074 116.7 23.4074Z" fill="#213357"/>
<path d="M116.7 1.80749C116.7 1.60749 116.8 1.4075 117 1.2075C117.2 1.0075 117.6 0.907491 118 1.00749C118.5 1.00749 119 1.20749 119.5 1.60749C120 2.00749 120.4 2.60749 120.6 3.30749C120.7 3.60749 120.8 4.10749 120.8 4.60749C120.8 5.10749 120.7 5.6075 120.5 6.2075C120.3 6.7075 120 7.3075 119.7 7.7075C119.3 8.2075 118.9 8.60749 118.5 8.90749C118.1 9.20749 117.6 9.5075 117.2 9.7075C117 9.8075 116.8 9.90749 116.6 9.90749C116.4 10.0075 116.2 10.0075 116.1 10.1075C115.9 10.1075 115.8 10.2075 115.6 10.2075C115.5 10.2075 115.3 10.2075 115.2 10.2075C115 10.2075 114.9 10.2075 114.9 10.1075C114.9 10.1075 115 10.0075 115.1 9.80749C115.3 9.70749 115.4 9.50749 115.7 9.30749C115.8 9.20749 115.9 9.10749 116.1 9.00749C116.2 8.90749 116.4 8.70749 116.5 8.60749C116.7 8.30749 117 8.00749 117.2 7.60749C117.4 7.30749 117.6 6.90749 117.7 6.50749C117.8 6.10749 117.9 5.80749 117.9 5.50749C117.9 5.20749 117.9 4.9075 117.8 4.7075C117.8 4.6075 117.8 4.60749 117.8 4.60749V4.30749C117.7 4.10749 117.7 3.9075 117.6 3.7075C117.5 3.5075 117.5 3.30749 117.4 3.10749C117 2.60749 116.7 2.20749 116.7 1.80749Z" fill="#213357"/>
<path d="M111.1 5.60749C111 5.50749 110.9 5.4075 110.8 5.3075C110.6 5.3075 110.4 5.30749 110.2 5.40749C110 5.50749 109.7 5.70749 109.5 6.10749C109.3 6.40749 109.2 6.9075 109.2 7.3075C109.2 7.50749 109.3 7.80749 109.4 8.00749C109.5 8.30749 109.7 8.6075 109.9 8.8075C110.1 9.1075 110.4 9.30749 110.7 9.50749C111 9.70749 111.3 9.80749 111.6 9.90749C111.9 10.0075 112.2 10.0075 112.5 10.1075C112.6 10.1075 112.8 10.1075 112.9 10.1075C113 10.1075 113.1 10.1075 113.2 10.1075C113.3 10.1075 113.4 10.1075 113.5 10.1075C113.6 10.1075 113.6 10.1075 113.7 10.0075C113.8 10.0075 113.9 9.90749 113.9 9.90749C113.9 9.90749 113.8 9.8075 113.7 9.8075C113.6 9.8075 113.4 9.70749 113.3 9.60749C113.2 9.60749 113.1 9.50749 113 9.50749C112.9 9.50749 112.8 9.40749 112.7 9.40749C112.5 9.30749 112.3 9.20749 112.1 9.00749C111.9 8.80749 111.7 8.70749 111.6 8.50749C111.5 8.30749 111.4 8.10749 111.3 8.00749C111.2 7.80749 111.2 7.70749 111.2 7.60749V7.40749C111.2 7.40749 111.2 7.4075 111.2 7.3075C111.2 7.3075 111.2 7.3075 111.2 7.2075C111.2 7.1075 111.2 7.00749 111.2 6.8075C111.2 6.7075 111.2 6.60749 111.2 6.40749C111.1 6.10749 111.2 5.80749 111.1 5.60749Z" fill="#213357"/>
<path d="M114.4 9.00746C114.4 9.00746 114.3 5.80746 115.5 6.40746C116.8 6.90746 114.4 9.20746 114.4 9.00746Z" fill="#213357"/>
<path d="M113.8 8.80746C113.8 8.80746 111.7 7.70746 112.5 7.00746C113.3 6.50746 113.9 8.90746 113.8 8.80746Z" fill="#213357"/>
<path d="M114 11.7075C114.1 11.7075 114.2 11.6075 114.2 11.5075V11.3075C114.2 11.0075 114.5 10.7075 114.8 10.7075H114.9C114.9 10.7075 121 11.7075 123.2 3.60746C123.7 1.90746 124 7.80746 121.3 10.2075C126.6 6.40746 135.2 12.0075 136 12.5075C135.2 13.0075 126.7 18.6075 121.3 14.8075C124 17.2075 123.7 23.1075 123.2 21.4075C121 13.3075 114.9 14.3075 114.9 14.3075C114.5 14.3075 114.1 14.0075 114.1 13.5075V13.4075C114.1 13.3075 114 13.2075 113.9 13.2075H112.6V11.7075H114Z" fill="#213357"/>
<path d="M0 11.9075H113.2V13.3075H0V11.9075Z" fill="#213357"/>
</svg>
