<svg width="156" height="48" viewBox="0 0 156 48" fill="none" xmlns="http://www.w3.org/2000/svg">
<path d="M97.3599 10.3454C102.364 6.92143 107.895 8.50173 110.792 10.6088C111.319 10.8722 112.109 11.1356 112.636 11.6623C114.216 12.9793 115.27 14.5596 116.06 15.6131C116.85 16.4032 117.377 17.1934 117.64 18.2469C119.484 25.3583 115.27 30.8893 116.85 34.0499V34.3133C114.48 31.4161 118.431 24.8315 116.85 18.5103C115.007 12.4525 106.052 12.9793 105.525 16.1399C108.422 14.8229 107.632 21.9343 106.052 25.8851C105.788 28.5189 106.315 31.9429 107.105 34.5767C107.105 35.1035 107.369 35.3669 107.632 35.8936V35.6303C107.632 35.1035 107.369 34.5767 107.369 34.0499V33.7866C106.842 30.626 106.842 25.8851 107.369 24.3048V22.7245V23.778C107.105 26.6752 107.632 31.1527 107.895 34.5767C107.369 29.5724 107.632 24.5681 107.895 22.4611L108.422 19.5638L108.159 20.8808C107.895 26.9386 106.842 41.9515 114.48 43.005C113.426 43.7951 109.739 41.6881 108.422 37.4739C107.105 36.6838 105.261 34.3133 104.471 31.4161C104.208 31.1527 103.945 30.8893 103.418 30.626C104.208 31.9429 104.735 33.5232 104.735 34.0499L104.998 34.8401L104.735 34.5767C104.471 33.7866 103.945 32.9964 103.418 32.2063C103.945 32.9964 104.208 33.7866 104.208 34.3133L104.998 34.8401L104.735 34.3133L105.261 35.8936L104.998 35.1035C104.471 33.2598 102.628 30.3626 100.521 28.7823H100.257C99.7304 28.2555 99.2036 27.9921 98.4135 27.9921C97.0965 27.7287 96.043 28.2555 95.2529 28.5189C95.7796 27.4654 98.4135 25.8851 101.047 27.202C102.891 27.9921 103.945 29.309 104.735 30.3626C104.471 29.0457 104.735 27.4654 104.998 25.8851C106.578 21.9343 108.159 15.0863 105.788 15.8765C105.788 16.1399 105.788 16.4032 105.788 16.6666C105.788 16.6666 105.788 16.6666 105.788 16.93C105.788 16.93 105.788 16.93 105.788 16.6666C104.998 17.7202 102.891 16.4032 102.628 14.2962C102.628 14.2962 102.628 14.2962 102.628 14.0328C102.364 14.2962 102.101 14.5596 101.837 15.0863C101.311 16.1399 101.574 16.6666 101.837 17.4568C101.311 17.4568 100.521 16.93 100.521 15.8765L100.257 15.6131C100.257 15.6131 100.257 15.6131 100.257 15.3497L100.521 15.6131C100.521 15.0863 100.521 14.5596 100.784 14.0328C101.311 13.2426 102.101 12.7159 102.628 12.4525C103.154 11.1356 104.998 11.1356 105.525 11.399C106.842 10.6088 108.685 10.6088 110.529 11.1356C109.476 10.6088 107.895 10.082 106.052 10.3454C103.681 10.082 101.047 11.9257 99.9938 13.506C100.784 11.1356 104.208 9.81865 107.369 9.81865C106.578 9.55527 105.525 9.55527 104.735 9.55527C101.047 9.29189 98.4135 13.506 98.9402 15.6131C98.1501 13.506 100.521 9.81865 103.418 9.29189C105.788 8.76512 107.632 9.29189 109.476 10.082C108.949 9.81865 108.685 9.55527 108.159 9.29189C107.632 9.0285 107.105 9.0285 106.842 8.76512C106.052 8.50174 104.998 8.50174 103.945 8.76512C99.7304 9.29189 96.8332 15.0863 98.9402 16.4032C99.467 16.93 100.521 16.93 101.311 17.1934L99.9938 16.93C96.3064 15.8765 99.2036 9.55527 102.891 8.76512C102.101 8.76512 101.574 9.0285 100.784 9.29189C98.6768 11.6623 95.7796 16.6666 99.467 17.4568L101.047 17.7202L100.257 17.4568C97.3599 17.1934 97.0965 14.8229 98.1501 12.4525C97.3599 14.0328 96.8332 15.8765 98.1501 16.6666L98.4135 17.1934H98.6768L99.467 17.4568H98.9402C98.6768 17.4568 98.6768 17.4568 98.4135 17.4568V17.7202L98.1501 17.4568C97.0965 17.4568 96.5698 16.6666 96.043 15.6131C96.043 15.8765 96.043 16.1399 96.3064 16.4032L96.5698 16.93V16.6666C96.3064 16.4032 96.3064 16.4032 96.043 16.1399V16.6666L96.3064 16.93V16.6666C96.5698 16.93 96.8332 17.1934 97.0965 17.4568C98.9402 18.2469 102.628 18.7737 102.101 16.6666C103.154 18.7737 99.2036 19.3005 96.8332 18.2469C93.1458 17.1934 93.9359 12.1891 97.3599 10.3454ZM102.891 30.3626C102.628 30.3626 102.628 30.3626 102.891 30.3626C103.154 30.626 103.418 31.4161 103.945 31.9429C103.418 31.4161 103.154 30.8893 102.891 30.3626ZM100.521 28.7823C100.257 28.5189 100.521 28.5189 100.521 28.7823C100.257 28.5189 100.257 28.5189 100.257 28.5189C100.257 28.5189 100.521 28.5189 100.521 28.7823ZM108.159 36.6838V36.9472C108.159 37.2106 108.159 37.2106 108.422 37.4739C108.422 37.2106 108.159 36.9472 108.159 36.6838ZM106.578 34.8401C105.788 32.733 105.525 29.309 105.788 26.9386C104.998 30.0992 105.788 32.733 106.578 34.8401ZM96.3064 12.9793C96.5698 12.9793 96.5698 12.9793 96.3064 12.9793C96.3064 12.7159 96.5698 12.7159 96.5698 12.4525C96.5698 12.7159 96.5698 12.7159 96.3064 12.9793ZM114.48 14.2962C114.216 14.2962 114.216 14.2962 114.48 14.2962V14.2962ZM105.525 12.4525C105.261 12.7159 105.261 12.7159 105.525 12.4525L104.208 13.2426L104.735 12.9793L104.998 12.7159C104.471 12.7159 103.681 12.9793 103.418 13.506C103.418 13.506 103.154 13.7694 103.154 14.0328C103.154 14.2962 102.891 14.5596 103.154 15.0863C103.418 16.6666 104.735 17.9835 105.525 17.4568C105.525 16.6666 105.525 16.4032 105.525 16.4032C105.525 16.4032 105.525 16.4032 105.261 16.4032H105.525C105.525 14.8229 107.632 13.7694 110.002 13.506C107.632 13.2426 105.261 13.2426 104.471 14.5596C105.261 12.7159 108.159 12.7159 110.529 12.9793C108.685 12.1891 106.578 11.6623 105.525 12.4525ZM97.8867 18.2469C96.5698 17.4568 96.3064 15.8765 96.5698 14.2962C96.5698 14.2962 96.5698 14.2962 96.5698 14.5596V14.8229C96.5698 16.1399 96.5698 18.2469 97.8867 18.2469Z" fill="white"/>
<path d="M77.6062 10.8722C84.7175 0.336838 117.904 -2.03362 134.497 21.9343C140.555 34.5767 125.279 51.4333 115.27 43.005C115.007 45.9022 110.002 49.3262 105.525 46.429C100.784 42.7416 96.5698 41.1613 93.6726 40.8979C93.6726 40.8979 93.6726 40.6345 93.4092 40.6345C93.4092 40.8979 93.4092 40.8979 93.4092 41.1613C92.8824 40.3712 92.619 37.7373 94.7261 36.157C96.3064 35.1035 98.1501 35.3669 99.2036 35.6303C98.6768 34.8401 98.1501 33.7866 98.1501 32.733C97.8867 29.8358 96.5698 28.7823 94.9895 28.7823C95.2529 28.5189 95.5162 28.5189 95.7796 28.5189C96.043 28.2555 96.043 28.2555 96.3064 28.2555H96.5698C98.9402 27.9921 102.891 34.05 102.891 35.8936L103.681 37.2106L102.891 36.4204C101.574 34.05 99.7304 29.8358 97.0965 28.7823C97.8867 29.0457 98.4135 29.8358 98.9402 30.626C99.9938 31.6795 101.311 33.7866 101.574 34.5767L101.837 35.3669L101.574 35.1035C101.047 34.05 99.9938 32.9964 99.2036 31.9429C99.2036 32.2063 99.2036 32.4696 99.2036 32.4696C99.9938 32.9964 101.311 35.1035 101.574 35.6303L101.837 36.157L101.574 35.8936C101.047 35.1035 99.9938 34.3133 99.467 33.5232C99.467 33.7866 99.467 34.05 99.7304 34.3133C100.257 34.8401 101.047 36.157 101.047 36.6838C100.784 36.4204 100.521 35.8936 99.9938 35.6303C100.521 36.4204 101.047 37.2106 101.574 37.2106C100.784 37.4739 99.9938 36.9472 99.2036 36.157C98.4135 36.157 97.6233 36.157 96.5698 36.4204C97.6233 36.4204 98.9402 36.6838 99.467 36.9472H99.9938H99.7304C98.4135 36.6838 96.8332 36.9472 95.5162 36.9472C95.5162 36.9472 95.2529 36.9472 95.2529 37.2106L94.9895 37.4739C97.6233 36.9472 102.364 38.0007 103.154 39.581L104.471 40.3712L103.681 39.8444C101.574 38.2641 96.3064 36.6838 94.1993 38.2641C93.6726 38.7909 93.4092 39.581 93.4092 40.3712C93.6726 38.5275 98.4135 36.9472 101.837 40.1078C105.788 42.7416 109.476 46.6924 111.846 45.3754C112.636 45.1121 113.426 44.3219 114.216 43.7951L112.9 44.8487C110.002 47.4825 105.525 43.5318 102.628 41.1613C99.9938 39.3176 96.043 38.0007 94.1993 39.581C96.5698 38.5275 102.891 41.1613 103.681 43.005L104.998 43.7951L104.208 43.2684C101.837 41.4247 97.0965 39.0542 94.1993 40.1078C96.5698 39.8444 101.311 41.1613 102.364 42.4782L103.418 43.005L102.891 42.7416C102.364 42.4782 101.574 41.9515 100.784 41.6881C101.047 41.6881 101.047 41.9515 101.311 41.9515L102.101 42.4782L101.574 42.2148C100.784 41.6881 99.467 41.4247 98.1501 41.1613C98.1501 41.1613 98.4135 41.1613 98.4135 41.4247L98.9402 41.6881H98.6768C98.1501 41.4247 97.6233 41.4247 96.8332 41.1613C98.4135 41.6881 99.9938 42.2148 100.784 42.4782L101.837 42.7416H101.311C100.521 42.4782 99.7304 42.4782 98.9402 42.2148C101.047 43.005 103.418 44.3219 105.525 46.1656C109.739 48.7994 114.216 46.1656 114.743 43.5318H114.48C113.953 44.3219 113.163 45.3754 111.319 45.1121C108.949 44.5853 107.105 42.4782 105.525 40.3712C102.891 35.8936 100.784 30.626 98.6768 29.309C101.837 30.3626 103.418 34.8401 105.525 38.2641C107.632 42.2148 112.373 46.1656 114.743 43.005C112.9 42.4782 108.422 39.8444 108.949 34.3133C108.949 30.3626 109.476 26.1484 109.476 23.2512C109.739 30.3626 108.159 40.8979 114.743 42.7416L115.007 42.4782L114.743 42.2148C106.052 33.5232 113.953 22.4611 110.529 16.93C114.48 21.9343 106.842 32.733 114.48 41.1613C114.743 41.1613 114.743 41.4247 115.007 41.4247V41.1613C115.27 41.1613 115.27 41.4247 115.27 41.6881C115.797 41.9515 116.587 42.4782 117.114 42.7416C115.007 41.9515 113.426 40.3712 113.426 39.0542L112.636 37.4739L113.163 38.2641C114.216 41.4247 118.431 43.5318 121.855 44.0585C122.118 44.0585 122.118 44.0585 122.381 44.0585C119.484 44.0585 116.324 42.7416 114.216 39.581C110.266 33.5232 113.163 26.6752 113.69 22.4611C113.163 26.9386 111.319 32.4696 113.426 37.4739C116.06 42.7416 122.118 44.3219 126.332 43.2684C127.122 42.7416 127.912 42.2148 128.703 41.6881C125.542 43.005 120.538 43.7951 116.324 39.8444C109.739 33.2598 115.797 23.778 115.007 20.6174C115.007 19.0371 114.743 17.4568 114.216 16.1399C114.48 16.93 114.743 17.7202 115.007 18.7737C116.324 24.0414 111.056 31.6795 115.27 38.0007C118.957 42.7416 125.542 42.7416 129.493 40.6345C133.97 36.157 136.867 28.7823 133.707 22.1977C125.542 10.082 112.636 4.81437 101.311 3.76083C101.837 3.76083 102.101 3.76083 102.628 4.02421C112.109 5.60451 119.748 9.81865 123.962 13.506C125.805 14.5596 128.176 16.4032 130.02 18.5103C130.02 18.2469 130.02 18.2469 129.756 17.9835C129.756 17.9835 130.02 18.2469 130.02 18.5103C131.336 20.354 132.653 22.4611 133.18 25.0949C133.97 27.7287 134.234 30.8893 132.917 34.5767C131.6 38.5275 126.596 41.1613 122.908 39.0542C120.538 38.0007 119.484 35.8936 119.221 34.3133C120.538 38.5275 127.912 42.2148 131.336 36.157C132.39 34.3133 132.917 32.4696 133.18 30.626C132.39 35.8936 126.859 39.8444 122.908 37.2106C118.957 34.8401 120.538 29.5724 123.172 29.309C120.538 29.8358 119.484 34.5767 123.172 36.6838C126.859 38.7909 131.6 35.3669 132.39 30.3626C133.97 22.1977 128.439 16.6666 124.225 13.7694C123.962 13.506 123.435 13.2426 123.172 12.9793C122.645 12.7159 122.381 12.4525 121.855 12.1891H121.328C116.85 9.29188 110.002 6.39466 102.101 4.81436C90.7753 2.44391 81.0301 6.92143 77.6062 10.8722C78.9231 9.0285 81.5569 7.18481 84.9809 5.60451C81.8203 6.92143 79.1865 8.76511 77.6062 10.8722ZM93.9359 40.3712C93.6726 40.6345 93.6726 40.6345 93.6726 40.8979C93.9359 40.8979 94.4627 40.8979 94.7261 40.8979C94.4627 40.6345 94.1993 40.6345 93.9359 40.3712ZM115.533 42.4782C116.324 43.2684 117.114 43.5318 117.904 44.0585C117.114 43.5318 116.06 43.005 115.533 42.4782ZM121.064 44.5853C121.328 44.5853 121.328 44.5853 121.591 44.5853C121.591 44.5853 121.328 44.5853 121.064 44.5853ZM114.743 43.005C115.007 43.005 115.007 42.7416 114.743 43.005C115.007 42.7416 115.007 42.7416 115.007 42.7416C114.743 42.7416 114.743 42.7416 114.743 43.005ZM124.488 43.7951C124.488 44.0585 124.488 44.0585 124.488 43.7951V43.7951Z" fill="white"/>
<path d="M110.266 16.93C110.002 16.6666 109.739 16.4032 109.476 16.1399L110.266 16.93Z" fill="white"/>
<path d="M155.304 21.4075C153.197 26.6752 146.086 26.4118 141.082 24.3048C136.077 21.6709 132.127 17.1934 127.649 13.2426C126.069 11.6623 124.488 10.3454 122.908 9.0285C122.118 8.50173 121.064 7.97497 120.011 7.4482C120.538 7.71158 121.064 7.97497 121.591 8.23835C104.735 -3.35053 83.1372 1.91714 77.6062 9.0285C83.4006 0.60022 110.002 -5.4576 127.649 12.1891C128.176 12.7159 128.703 13.2426 129.229 13.506C130.283 14.5596 131.336 15.3497 132.127 16.4032L131.6 15.8765C131.863 16.1399 132.127 16.4032 132.39 16.93C133.18 17.7202 134.234 18.7737 135.024 19.5638C137.921 21.9343 142.399 24.0414 147.666 24.0414C151.617 24.0414 154.251 19.8272 152.671 16.93C152.144 14.0328 148.456 14.5596 148.193 15.6131L148.456 15.3497C150.037 13.506 151.617 18.5103 149.51 18.2469C149.247 18.2469 149.247 18.5103 148.983 18.2469H148.72C148.72 18.2469 148.72 18.2469 148.983 18.2469C148.72 18.2469 148.193 18.2469 147.666 17.9835C147.403 17.9835 146.876 17.4568 146.876 17.1934C146.613 17.1934 146.613 16.93 146.613 16.93C145.823 15.6131 145.559 13.506 148.456 12.7159C152.934 10.8722 157.148 16.6666 155.304 21.4075ZM151.88 23.778C151.88 24.0414 152.144 23.778 151.88 23.778V23.778ZM147.139 24.5681C147.403 24.5681 147.666 24.5681 147.666 24.5681H147.403C147.403 24.5681 147.403 24.5681 147.139 24.5681ZM152.407 23.778C152.144 23.778 152.144 23.778 152.407 23.778V23.778ZM152.934 22.9878C152.934 22.7245 152.934 22.7245 152.934 22.9878V22.9878ZM153.197 22.9878C153.197 22.9878 153.197 22.9878 153.461 22.7245C153.461 22.9878 153.461 22.9878 153.197 22.9878ZM152.407 22.9878C152.671 22.9878 152.671 22.7245 152.934 22.7245C153.197 22.4611 153.197 22.1977 153.461 21.9343C153.197 22.4611 152.934 22.7245 152.407 22.9878ZM150.3 16.1399C150.3 16.4032 150.3 16.6666 150.3 16.93C150.3 16.93 150.3 16.93 150.3 17.1934C150.3 16.6666 150.3 16.4032 150.3 16.1399ZM146.876 16.1399C146.876 15.8765 146.876 15.8765 146.876 15.8765V16.1399ZM149.773 12.1891C147.93 12.1891 147.139 13.2426 146.876 14.2962C146.876 14.0328 147.139 13.7694 147.403 13.7694L147.666 13.506V13.7694C147.403 14.2962 147.403 14.8229 147.403 15.3497C147.403 15.3497 147.403 15.3497 147.403 15.6131C147.403 15.8765 147.403 16.1399 147.666 16.4032C147.93 16.6666 147.93 16.6666 148.193 16.93C148.456 17.1934 148.72 17.1934 149.247 17.4568C149.51 17.4568 149.51 17.4568 149.773 17.4568C150.037 17.1934 150.3 16.6666 150.3 16.4032C150.3 16.4032 150.3 16.6666 150.3 16.93C150.3 16.93 150.3 16.93 150.3 16.6666C150.037 15.8765 149.773 15.3497 148.983 15.6131L148.456 15.8765C148.456 16.1399 148.456 16.4032 148.983 16.93C146.086 15.3497 152.671 12.9793 153.461 17.1934C154.251 18.2469 154.251 19.8272 153.724 21.1441C153.724 21.4075 153.724 21.4075 153.724 21.6709C154.251 20.8808 154.514 20.354 154.514 19.5638L154.778 18.5103V19.0371C154.778 19.3005 154.778 19.5638 154.778 20.0906V19.5638V19.8272C154.778 20.354 154.778 20.8808 154.514 21.6709C154.778 20.8808 155.041 20.0906 155.041 19.5638V19.0371V19.3005C155.304 19.5638 155.304 19.8272 155.304 20.354C155.568 16.1399 152.934 12.4525 149.773 12.1891Z" fill="white"/>
<path d="M119.221 31.6795C119.221 31.4161 119.221 31.4161 119.484 31.1527C119.484 31.4161 119.484 31.6795 119.221 31.6795Z" fill="white"/>
<path d="M119.221 31.6795C119.221 31.6795 119.221 31.9429 119.221 32.2063C118.957 32.733 118.957 33.7866 119.221 34.5767C118.957 33.5232 118.957 32.733 119.221 31.6795Z" fill="white"/>
<path d="M119.484 31.4161C119.748 31.1527 119.748 30.8893 120.011 30.626C120.011 30.626 119.748 30.8893 119.484 31.4161Z" fill="white"/>
<path d="M121.064 29.8358C120.801 30.0992 120.538 30.0992 120.274 30.3626C120.274 30.3626 120.274 30.3626 120.274 30.0992C120.538 30.0992 120.801 30.0992 121.064 29.8358Z" fill="white"/>
<path d="M104.208 16.4032V15.6131C104.208 15.3497 104.208 14.8229 104.471 14.5596C104.471 14.8229 104.471 14.8229 104.471 15.0863L104.208 16.4032Z" fill="white"/>
<path d="M101.574 18.2469L100.257 17.9835C99.7304 17.7202 99.467 17.4568 99.2036 17.1934L99.467 17.4568C99.9938 17.9835 100.784 17.9835 101.574 18.2469Z" fill="white"/>
<path d="M99.9938 16.1399C99.9938 15.8765 99.7304 15.8765 99.7304 15.6131C99.7304 15.3497 99.7304 14.8229 99.9938 14.5596C99.7304 14.8229 99.7304 15.3497 99.9938 16.1399Z" fill="white"/>
<path d="M78.1329 9.0285C78.6597 6.39466 89.195 0.336838 101.047 1.65376C108.159 1.65376 115.007 4.28759 120.011 6.92143C106.315 0.60022 85.771 0.0734558 78.1329 9.0285Z" fill="white"/>
<path d="M112.373 16.1399L113.163 18.5103C113.426 19.5638 113.426 20.6174 113.426 21.6709C113.426 21.1441 113.426 20.8808 113.426 20.6174C113.426 19.0371 113.163 17.4568 112.373 16.1399Z" fill="white"/>
<path d="M108.949 19.3005V19.5638L108.159 17.4568L108.949 19.3005Z" fill="white"/>
<path d="M109.212 20.6174C109.212 21.1441 109.476 22.1977 109.212 23.2512C109.212 21.9343 108.949 20.6174 108.685 19.5638L109.212 20.6174Z" fill="white"/>
<path d="M97.0965 27.9921H97.3599C97.0965 27.9921 96.5698 27.9921 96.3064 28.2555C96.5698 27.9921 96.8332 27.9921 97.0965 27.9921Z" fill="white"/>
<path d="M98.4135 28.2555C98.6768 28.2555 98.6768 28.5189 98.9402 28.5189C98.4135 28.2555 98.1501 27.9921 97.6233 27.9921C97.8867 27.9921 98.1501 27.9921 98.4135 28.2555Z" fill="white"/>
<path d="M122.381 29.309L122.645 29.5724H122.908C122.381 29.5724 121.591 29.5724 121.064 29.8358C121.591 29.5724 122.118 29.5724 122.645 29.5724C122.381 29.5724 122.381 29.309 122.381 29.309Z" fill="white"/>
<path d="M118.431 34.3133L118.694 35.3669L118.431 34.8401C117.64 33.7866 118.167 31.4161 119.221 30.0992C118.167 30.8893 117.377 31.9429 117.64 32.9964L117.377 33.7866V33.2598C117.377 32.2063 117.904 30.626 118.957 29.5724C118.957 29.5724 118.957 29.5724 118.694 29.5724L118.431 29.8358C118.694 29.5724 118.957 29.309 119.221 29.0457C118.431 29.5724 117.377 30.3626 117.114 31.1527L116.85 31.6795V31.4161C116.85 30.626 117.64 29.309 118.431 28.5189C117.904 28.7823 117.377 29.0457 116.85 29.309C117.114 28.7823 118.167 27.4654 119.748 27.7287C121.328 27.9921 122.118 28.7823 122.645 29.309C122.381 29.309 122.118 29.0457 121.855 29.0457C121.855 29.0457 122.118 29.0457 122.118 29.309C120.801 28.2555 117.64 32.4696 118.431 34.3133ZM120.538 28.7823C120.538 28.5189 120.538 28.5189 120.538 28.7823V28.7823Z" fill="white"/>
<path d="M59.4327 19.5638C57.0622 20.6174 53.1115 20.0906 54.165 17.9835C53.6382 20.0906 57.0622 19.5638 59.1693 18.7737C59.4327 18.5103 59.6961 18.2469 59.9594 17.9835V18.2469L60.2228 17.9835V17.4568C60.2228 17.7202 59.9594 17.9835 59.6961 17.9835V18.2469L59.9594 17.7202C59.9594 17.4568 60.2228 17.1934 60.2228 16.93C59.9594 17.9835 59.1693 18.7737 58.1158 18.7737L57.589 19.0371V18.7737C57.3256 18.7737 57.3256 18.7737 57.0622 18.7737H56.5355L57.3256 18.5103H57.589L57.8524 17.9835C59.1693 17.1934 58.6425 15.3497 57.8524 13.7694C58.6425 16.1399 58.6425 18.5103 55.7453 18.7737L55.2185 19.0371L56.7988 18.7737C60.4862 17.9835 57.589 12.9793 55.4819 10.6088C54.6918 10.3454 54.165 10.082 53.3749 10.082C57.0622 11.1356 59.9594 17.1934 56.2721 18.2469L54.9552 18.5103C55.7453 18.2469 56.7988 18.2469 57.3256 17.7202C59.4327 16.4032 56.5355 10.6088 52.3213 10.082C51.2678 9.81865 50.2143 10.082 49.4241 10.082C48.8973 10.082 48.6339 10.3454 48.1072 10.6088C47.5804 10.8722 47.317 11.1356 46.7903 11.399C48.6339 10.6088 50.4776 10.082 52.8481 10.6088C55.7453 11.1356 58.1158 14.8229 57.3256 16.93C57.8524 14.8229 55.4819 10.6088 51.5312 10.8722C50.4776 10.8722 49.6875 11.1356 48.8973 11.1356C52.0579 11.1356 55.4819 12.1891 56.2721 14.8229C55.4819 13.2426 52.8481 11.6623 50.2142 11.6623C48.3706 11.399 46.7903 11.9257 45.7367 12.4525C47.5804 11.9257 49.4241 11.9257 50.741 12.7159C51.2678 12.4525 53.1115 12.4525 53.6382 13.7694C54.165 14.0328 54.9552 14.5596 55.4819 15.3497C55.7453 15.8765 56.0087 16.4032 55.7453 16.93L56.0087 16.6666C56.0087 16.6666 56.0087 16.6666 56.0087 16.93L55.7453 17.1934C55.4819 17.9835 54.6918 18.7737 54.4284 18.7737C54.6918 17.9835 55.2185 17.4568 54.4284 16.4032C54.165 16.1399 53.9016 15.6131 53.6382 15.3497C53.6382 15.3497 53.6382 15.3497 53.6382 15.6131C53.3749 17.4568 51.0044 19.0371 50.4776 17.9835C50.4776 17.9835 50.4776 17.9835 50.4776 18.2469C50.4776 18.2469 50.4776 18.2469 50.4776 17.9835C50.4776 17.7202 50.4776 17.4568 50.4776 17.1934C48.1072 16.4032 49.6875 22.9878 51.2678 27.202C51.7946 28.7823 51.7946 30.0992 51.5312 31.6795C52.3213 30.626 53.3749 29.309 55.2185 28.5189C57.8524 27.202 60.7496 28.5189 61.013 29.8358C60.2228 29.309 59.1693 29.0457 57.8524 29.309C57.3256 29.5724 56.7988 29.8358 56.0087 30.0992H55.7453C53.6382 31.6795 51.7946 34.3133 51.2678 36.4204L51.0044 37.2106L51.5312 35.6303C51.5312 35.3669 51.5312 35.1035 51.7946 34.8401C51.7946 35.1035 51.5312 35.3669 51.5312 35.6303L51.2678 36.157L51.5312 35.3669C51.5312 34.8401 51.7946 34.05 52.3213 33.2598C51.7946 34.05 51.5312 34.8401 51.0044 35.6303L50.741 35.8936L51.0044 35.1035C51.0044 34.5767 51.7946 32.9964 52.3213 31.6795C51.7946 31.9429 51.5312 32.2063 51.2678 32.4696C50.4776 35.6303 48.6339 37.7373 47.317 38.5275C46.0001 42.4782 42.3127 44.8487 41.2592 44.0585C48.8973 43.005 47.8438 27.9921 47.5804 21.9343V19.5638L48.1072 22.4611C48.1072 24.5681 48.3706 29.5724 48.1072 34.5767C48.3706 31.1527 49.1607 26.6752 48.6339 23.778V22.7245V24.3048C49.1607 25.8851 48.8973 30.626 48.6339 33.7866V34.0499C48.6339 34.5767 48.3706 35.1035 48.3706 35.6303V35.8936C48.6339 35.6303 48.8973 35.1035 48.8973 34.5767C49.6875 31.9429 50.2142 28.5189 49.9509 25.8851C48.3706 21.9343 47.5804 14.8229 50.4776 16.1399C49.6875 13.2426 40.7324 12.4525 39.1521 18.5103C37.3085 25.0949 41.2592 31.4161 39.1521 34.3133V34.0499C40.9958 30.8893 36.5183 25.3583 38.362 18.2469C38.6254 17.1934 39.1521 16.1399 39.9423 15.6131C40.7324 14.2962 41.786 12.7159 43.3663 11.6623C43.893 11.1356 44.6832 10.8722 45.21 10.6088C48.1072 8.50173 53.6382 7.18481 58.6425 10.3454C61.8031 12.7159 62.5933 17.7202 59.4327 19.5638ZM52.0579 32.4696C52.3213 31.9429 52.8481 31.4161 53.1115 30.8893C53.1115 30.8893 53.1115 30.8893 52.8481 30.8893C52.8481 31.4161 52.5847 31.9429 52.0579 32.4696ZM55.4819 29.309L55.7453 29.0457C55.7453 29.0457 55.7453 29.0457 55.4819 29.309ZM47.5804 38.0007L47.8438 37.7373V37.4739C47.5804 37.4739 47.5804 37.7373 47.5804 38.0007ZM50.2142 27.4654C50.4776 29.5724 50.2143 33.2598 49.4241 35.3669C50.2143 33.2598 50.741 30.3626 50.2142 27.4654ZM59.4327 13.2426L59.1693 12.9793C59.4327 13.2426 59.4327 13.2426 59.4327 13.2426ZM45.21 13.506C47.5804 13.2426 50.4776 13.2426 51.2678 15.0863C50.4776 13.7694 48.1072 13.7694 45.7367 14.0328C48.1072 14.2962 50.2142 15.3497 50.2142 16.93C50.2142 16.93 50.2143 16.93 50.4776 16.93H50.2142C50.2142 17.1934 50.2142 17.4568 49.9509 17.7202C50.741 18.2469 52.0579 16.93 52.3213 15.3497C52.3213 14.8229 52.3213 14.5596 52.3213 14.2962C52.3213 14.2962 52.0579 14.0328 52.0579 13.7694C51.5312 13.2426 51.0044 13.2426 50.4776 12.9793L50.741 13.2426L51.2678 13.506L50.2142 12.9793C50.2142 12.9793 50.2142 12.9793 49.9509 12.7159C49.9509 12.7159 49.9509 12.7159 49.6875 12.7159C49.4241 12.1891 47.317 12.7159 45.21 13.506ZM59.4327 15.0863C59.4327 14.8229 59.1693 14.8229 59.1693 14.5596C59.6961 16.1399 59.4327 17.7202 58.1158 18.5103C59.4327 18.5103 59.4327 16.6666 59.4327 15.0863Z" fill="white"/>
<path d="M70.7582 6.13128C74.1822 7.4482 76.816 9.55527 78.1329 11.399C74.7089 7.4482 64.9637 3.23405 53.6382 5.34113C45.7367 6.65804 39.1521 9.81865 34.4112 12.7159L34.1478 12.9793C33.8845 13.2426 33.3577 13.506 32.8309 13.7694C32.3042 14.0328 32.0408 14.2962 31.7774 14.5596C27.8266 17.4568 22.2956 22.9878 23.6125 31.1527C24.4027 36.157 29.1436 39.581 32.8309 37.4739C36.5183 35.3669 35.4648 30.626 32.8309 30.0992C35.4648 30.3626 37.0451 35.3669 33.0943 38.0007C29.1436 40.6345 23.6125 36.6838 22.8223 31.4161C23.0857 33.2598 23.3491 35.1035 24.666 36.9472C28.09 43.005 35.4648 39.3176 36.7817 35.1035C36.5183 36.9472 35.4648 38.7909 33.0943 39.8444C29.6703 41.9515 24.666 39.3176 23.0857 35.3669C22.0322 31.9429 22.2956 28.7823 22.8223 26.1484C23.3491 23.5146 24.4027 21.4075 25.983 19.5638C26.2463 19.3005 26.2463 19.0371 26.2463 19.0371C26.2463 19.3005 26.2463 19.3005 25.983 19.5638C27.8266 17.1934 29.9337 15.6131 31.7774 14.5596C35.9915 11.1356 43.6297 6.92143 53.1115 5.07775C53.6382 5.07775 53.9016 4.81436 54.4284 4.81436C43.1029 5.8679 30.1971 11.1356 22.0322 23.2512C18.8716 29.8358 21.5054 37.2106 26.2463 41.6881C30.1971 43.5318 36.7817 43.7951 40.4691 38.5275C44.6832 32.2063 39.6789 24.3048 40.7324 19.3005C40.9958 18.5103 41.2592 17.7202 41.5226 16.6666C40.9958 18.2469 40.7324 19.5638 40.7324 21.1441C39.9423 24.3048 46.0001 33.7866 39.4155 40.3712C35.2014 44.3219 30.1971 43.7951 27.0365 42.2148C27.8266 42.7416 28.6168 43.5318 29.4069 43.7951C33.6211 45.1121 39.6789 43.5318 42.3127 38.0007C44.4198 32.9964 42.5761 27.4654 42.3127 22.9878C42.8395 26.9386 45.7367 34.0499 41.786 40.1078C39.4155 43.5318 36.2549 44.5853 33.6211 44.5853C33.8845 44.5853 33.8845 44.5853 34.1478 44.5853C37.5718 44.0585 41.786 41.9515 42.8395 38.7909L43.3663 38.0007L42.8395 39.581C42.8395 40.8979 41.2592 42.2148 39.4155 43.2684C39.6789 43.005 40.4691 42.7416 40.9958 42.2148C40.9958 41.9515 41.2592 41.9515 41.2592 41.6881V41.9515C41.5226 41.9515 41.5226 41.6881 41.786 41.6881C49.1607 33.5232 41.786 22.7245 45.7367 17.4568C42.0494 22.9878 50.2142 34.0499 41.2592 42.7416L40.9958 43.005C40.9958 43.005 40.9958 43.2684 41.2592 43.2684C47.8438 41.1613 46.2635 30.8893 46.5269 23.778C46.5269 26.6752 47.0536 30.626 47.0536 34.8401C47.5804 40.3712 42.8395 43.005 41.2592 43.5318C43.6297 46.429 48.3706 42.7416 50.4776 38.7909C52.5847 35.3669 54.165 30.8893 57.0622 29.0457C54.6918 30.626 52.8481 35.6303 50.2142 40.1078C48.6339 42.2148 46.7903 44.5853 44.4198 44.8487C42.5761 45.1121 41.786 44.0585 41.2592 43.2684H40.9958C41.5226 45.9022 46.0001 48.2727 50.2142 45.9022C52.3213 44.0585 54.6918 42.7416 56.7988 41.9515C56.0087 42.4782 55.2185 42.7416 54.4284 42.7416H53.9016H54.9552C55.7453 42.4782 57.3256 41.9515 58.9059 41.4247C58.3791 41.4247 57.589 41.6881 57.0622 41.9515H56.7988L57.3256 41.6881C57.3256 41.6881 57.589 41.6881 57.589 41.4247C56.2721 41.6881 55.2185 41.9515 54.165 42.4782L53.6382 42.7416L54.4284 42.2148C54.4284 42.2148 54.6918 41.9515 54.9552 41.9515C54.165 42.4782 53.6382 42.7416 52.8481 43.005L52.3213 43.2684L53.3749 42.7416C54.4284 41.4247 59.1693 40.1078 61.5397 40.3712C58.6425 39.3176 53.9016 41.6881 51.5312 43.5318L50.741 44.0585L52.0579 43.2684C52.8481 41.4247 59.1693 39.0542 61.5397 39.8444C59.9594 38.2641 55.7453 39.581 53.1115 41.4247C50.2143 44.0585 46.0001 47.7459 42.8395 45.1121L41.5226 44.0585C42.3127 44.5853 43.1029 45.1121 43.893 45.6388C46.2635 46.9557 49.9509 43.2684 53.6382 40.1078C57.3256 36.9472 62.0665 38.7909 62.0665 40.3712C62.0665 39.8444 61.8031 39.0542 61.2764 38.2641C58.9059 36.6838 53.6382 38.2641 51.7946 39.8444L51.0044 40.3712L52.3213 39.581C53.3749 38.5275 58.1158 37.4739 60.7496 38.0007L60.4862 37.7373C60.4862 37.7373 60.2228 37.7373 60.2228 37.4739C58.9059 37.4739 57.0622 37.2106 56.0087 37.4739H55.7453H56.2721C56.7988 37.2106 57.8524 36.9472 59.1693 36.9472C58.1158 36.6838 57.3256 36.6838 56.5355 36.6838C55.7453 37.7373 54.9552 38.2641 54.165 37.7373C54.9552 37.4739 55.4819 36.9472 55.7453 36.157C55.4819 36.6838 54.9552 36.9472 54.9552 37.4739H54.6918L54.9552 37.2106C54.9552 36.6838 55.7453 35.3669 56.2721 34.8401C56.2721 34.5767 56.2721 34.3133 56.5355 34.0499C55.7453 34.8401 54.9552 35.6303 54.4284 36.4204L54.165 36.6838L54.4284 36.157C54.6918 35.6303 56.0087 33.5232 56.7988 32.9964C56.7988 32.733 56.7988 32.4696 56.7988 32.4696C56.0087 33.5232 54.9552 34.5767 54.4284 35.6303L54.165 35.8936L54.4284 35.1035C54.6918 34.3133 56.0087 32.2063 57.0622 31.1527C57.589 30.3626 58.1158 29.5724 58.9059 29.309C56.2721 30.3626 54.165 34.5767 53.1115 36.9472L52.5847 37.4739L53.3749 36.157C53.3749 34.3133 57.3256 28.2555 59.6961 28.5189H59.9594C60.2228 28.5189 60.2228 28.7823 60.4862 28.7823C60.7496 28.7823 61.013 28.7823 61.2764 29.0457C59.6961 29.0457 58.3791 30.0992 58.1158 32.9964C58.1158 34.05 57.589 35.1035 57.0622 35.8936C58.1158 35.3669 59.9594 35.3669 61.5397 36.4204C63.9102 38.0007 63.6468 40.6345 62.8567 41.4247C62.8567 41.1613 62.8567 41.1613 62.8567 40.8979C62.8567 40.8979 62.8567 41.1613 62.5933 41.1613C59.6961 41.1613 55.7453 43.005 50.741 46.6924C46.2635 49.5896 40.9958 46.1656 40.9958 43.2684C30.9872 51.6967 15.711 35.1035 21.7688 22.1977C38.362 -1.77023 71.5483 0.336838 78.6597 11.1356C76.816 9.29189 74.1822 7.4482 70.7582 6.13128ZM61.2764 41.4247C61.8031 41.4247 62.0665 41.4247 62.3299 41.4247C62.3299 41.1613 62.3299 41.1613 62.3299 40.8979C62.3299 40.8979 62.3299 40.8979 62.0665 40.8979C61.8031 41.1613 61.5397 41.1613 61.2764 41.4247ZM36.2549 45.1121H35.9915C35.9915 45.1121 35.9915 45.1121 36.2549 45.1121ZM38.0986 44.5853C38.8888 44.3219 39.6789 43.7951 40.4691 43.005C39.6789 43.5318 38.8888 44.0585 38.0986 44.5853ZM40.9958 43.2684C40.9958 43.5318 40.9958 43.5318 40.9958 43.5318C40.9958 43.5318 40.9958 43.5318 41.2592 43.5318C40.9958 43.2684 40.9958 43.2684 40.9958 43.2684ZM30.9872 44.3219C31.2506 44.3219 31.2506 44.3219 31.514 44.5853C31.2506 44.3219 30.9872 44.3219 30.9872 44.3219Z" fill="white"/>
<path d="M45.7367 17.4568C46.0001 17.1934 46.2635 16.93 46.5269 16.6666L45.7367 17.4568Z" fill="white"/>
<path d="M7.01933 12.7159C9.91655 13.506 9.65316 15.6131 8.86301 16.93C8.86301 17.1934 8.86301 17.1934 8.59963 17.1934C8.33625 17.4568 8.07286 17.7202 7.80948 17.9835C7.28271 18.2469 7.01933 18.2469 6.49256 18.2469C6.49256 18.2469 6.49256 18.2469 6.75594 18.2469H6.49256C6.22918 18.2469 6.22918 18.2469 5.96579 18.2469C4.12211 18.5103 5.43903 13.7694 7.28271 15.3497L7.5461 15.6131C7.28271 14.5596 3.59534 14.2962 3.06857 16.93C1.48827 19.8272 4.12211 24.0414 8.07286 24.0414C13.3405 24.0414 17.8181 21.9343 20.7153 19.5638C21.5054 18.7737 22.559 17.9835 23.3491 16.93C23.3491 16.6666 23.6125 16.4032 23.8759 16.1399L23.6125 16.4032C23.6125 16.4032 23.6125 16.6666 23.3491 16.6666C24.4027 15.6131 25.1928 14.8229 26.2463 13.7694C26.7731 13.2426 27.2999 12.7159 27.8266 12.4525C45.4733 -5.19422 71.8117 0.863609 77.8695 9.29189C72.3385 2.18053 50.741 -3.08715 33.8845 8.50173C34.4112 8.23835 34.938 7.97496 35.4648 7.71158C34.4112 8.23835 33.3577 8.76512 32.5675 9.29189C30.9872 10.6088 29.4069 11.9257 27.8266 13.506C23.3491 17.4568 19.3984 21.9343 14.3941 24.5681C9.91655 26.9386 2.80519 26.9386 0.69812 21.9343C-1.14557 17.1934 3.06857 11.399 7.01933 12.7159ZM3.85872 24.3048C4.12211 24.3048 4.12211 24.3048 4.38549 24.3048C4.12211 24.5681 4.12211 24.3048 3.85872 24.3048ZM8.33625 24.8315H8.07286C8.07286 25.0949 8.07286 25.0949 8.33625 24.8315C8.07286 25.0949 8.07286 25.0949 8.33625 24.8315H8.59963C8.59963 25.0949 8.33625 24.8315 8.33625 24.8315ZM2.27842 23.2512C2.54181 23.5146 2.54181 23.5146 2.80519 23.778L2.54181 23.5146C2.54181 23.5146 2.54181 23.2512 2.27842 23.2512ZM2.54181 22.4611C2.80519 22.7245 2.80519 22.9878 3.06857 23.2512C3.33196 23.2512 3.33196 23.5146 3.59534 23.5146C3.06857 23.2512 2.80519 22.9878 2.54181 22.4611ZM16.2378 22.9878C15.9744 22.9878 15.9744 22.9878 16.2378 22.9878V22.9878ZM5.70241 17.4568C5.70241 16.93 5.70241 16.6666 5.70241 16.6666C5.70241 16.93 5.70241 17.1934 5.70241 17.4568ZM8.86301 16.6666C8.86301 16.6666 8.86301 16.4032 8.86301 16.1399C8.86301 16.4032 8.86301 16.4032 8.86301 16.6666ZM0.69812 20.0906C0.69812 19.8272 0.69812 19.3005 0.961504 19.0371V18.7737V19.3005C0.69812 19.8272 0.961504 20.6174 1.48827 21.4075C1.22489 20.8808 1.22489 20.0906 1.22489 19.5638V19.3005V19.8272C1.22489 19.3005 1.22489 19.0371 1.22489 18.7737V18.2469L1.48827 19.0371C1.48827 19.8272 1.75165 20.354 2.27842 21.1441C2.27842 20.8808 2.27842 20.8808 2.27842 20.6174C1.75165 19.3005 1.75165 17.7202 2.54181 16.6666C3.33196 12.7159 9.91655 14.8229 7.01933 16.4032C7.5461 16.1399 7.80948 15.8765 7.5461 15.3497L7.01933 15.0863C6.22918 14.8229 5.96579 15.3497 5.70241 16.1399C5.70241 16.1399 5.70241 16.1399 5.70241 16.4032C5.70241 16.1399 5.70241 16.1399 5.70241 15.8765C5.70241 16.1399 5.96579 16.4032 6.22918 16.93C6.49256 16.93 6.75594 16.93 6.75594 16.93C7.01933 16.6666 7.28271 16.6666 7.80948 16.4032C8.07286 16.6666 8.33625 16.4032 8.33625 16.4032C8.33625 16.1399 8.59963 15.8765 8.59963 15.6131C8.59963 15.6131 8.59963 15.6131 8.59963 15.3497C8.59963 14.8229 8.86301 14.2962 8.33625 13.7694V13.506L8.59963 13.7694C8.86301 13.7694 8.86301 14.0328 9.1264 14.2962C8.86301 13.2426 7.80948 12.1891 6.22918 12.1891C3.06857 12.9793 0.434736 16.6666 0.69812 20.0906Z" fill="white"/>
<path d="M36.5183 32.2063C36.5183 31.9429 36.5183 31.9429 36.2549 31.6795C36.5183 31.9429 36.5183 32.2063 36.5183 32.2063Z" fill="white"/>
<path d="M36.5183 32.2063V32.4696C36.7817 32.9964 36.7817 34.05 36.5183 34.8401C37.0451 34.05 37.0451 33.2598 36.5183 32.2063Z" fill="white"/>
<path d="M36.5183 31.6795C36.2549 31.4161 36.2549 31.1527 35.9915 30.8893C35.9915 31.1527 36.2549 31.4161 36.5183 31.6795Z" fill="white"/>
<path d="M34.938 30.3626C35.2014 30.626 35.4648 30.626 35.7281 30.8893C35.7281 30.8893 35.7281 30.8893 35.7281 30.626C35.4648 30.626 35.2014 30.626 34.938 30.3626Z" fill="white"/>
<path d="M51.7946 16.93V16.1399C51.7946 15.8765 51.7946 15.3497 51.5312 15.0863C51.5312 15.3497 51.5312 15.3497 51.5312 15.6131L51.7946 16.93Z" fill="white"/>
<path d="M54.4284 18.7737L55.7453 18.5103C56.2721 18.2469 56.5355 17.9835 56.7988 17.7202L56.5355 17.9835C56.0087 18.5103 54.9552 18.5103 54.4284 18.7737Z" fill="white"/>
<path d="M56.0087 16.6666C56.0087 16.4032 56.2721 16.4032 56.2721 16.1399C56.2721 15.8765 56.2721 15.3497 56.0087 15.0863C56.0087 15.3497 56.0087 15.8765 56.0087 16.6666Z" fill="white"/>
<path d="M77.8695 9.55527C77.3428 6.92143 66.8074 0.863609 54.9552 2.18053C47.8438 2.18053 40.9958 4.81436 35.9915 7.4482C49.6875 1.12699 70.2314 0.600224 77.8695 9.55527Z" fill="white"/>
<path d="M43.3663 16.6666L42.5761 19.0371C42.3127 20.0906 42.3127 21.1441 42.3127 22.1977C42.3127 21.6709 42.3127 21.4075 42.3127 21.1441C42.5761 19.5638 42.8395 17.9835 43.3663 16.6666Z" fill="white"/>
<path d="M47.0536 19.8272V20.0906L47.8438 17.9835L47.0536 19.8272Z" fill="white"/>
<path d="M46.5269 21.1441C46.5269 21.6709 46.2635 22.7245 46.5269 23.778C46.5269 22.4611 46.7903 21.1441 47.0536 20.0906L46.5269 21.1441Z" fill="white"/>
<path d="M58.9059 28.5189H58.6425C58.9059 28.5189 59.4327 28.5189 59.6961 28.7823C59.1693 28.5189 58.9059 28.5189 58.9059 28.5189Z" fill="white"/>
<path d="M57.3256 28.7823C57.0622 28.7823 57.0622 29.0457 56.7988 29.0457C57.3256 28.7823 57.589 28.5189 58.1158 28.5189C58.1158 28.5189 57.8524 28.5189 57.3256 28.7823Z" fill="white"/>
<path d="M33.6211 29.8358L33.3577 30.0992H33.0943C33.6211 30.0992 34.4112 30.0992 34.938 30.3626C34.4112 30.0992 33.8845 30.0992 33.3577 30.0992C33.3577 29.8358 33.6211 29.8358 33.6211 29.8358Z" fill="white"/>
<path d="M33.6211 29.8358H33.0943C33.3577 29.309 34.4112 28.5189 35.9915 28.2555C37.5718 27.9921 38.6254 29.309 38.8888 29.8358C38.362 29.5724 37.8352 29.309 37.3085 29.0457C38.0986 29.8358 38.8888 31.1527 38.8888 31.9429V32.2063L38.6254 31.6795C38.6254 30.8893 37.5718 30.0992 36.5183 29.5724C36.7817 29.8358 37.0451 30.0992 37.3085 30.3626L37.0451 30.0992C37.0451 30.0992 37.0451 30.0992 36.7817 30.0992C37.5718 31.1527 38.0986 32.733 38.0986 33.5232V34.0499L37.8352 33.2598C37.8352 32.2063 37.0451 31.1527 36.2549 30.3626C37.3084 31.6795 37.8352 34.3133 37.0451 35.1035L36.7817 35.6303L37.5718 34.8401C38.362 32.9964 35.2014 28.7823 33.6211 29.8358Z" fill="white"/>
</svg>
