<svg width="96" height="97" viewBox="0 0 96 97" fill="none" xmlns="http://www.w3.org/2000/svg">
<g clip-path="url(#clip0_1_13661)">
<path d="M85.8689 52.214H23.9708C23.9731 52.19 23.9845 52.1705 23.9845 52.1465C23.9845 51.1655 23.5999 50.2773 22.9864 49.6031L22.0134 25.5521C22.0134 24.4716 21.1355 23.5925 20.0561 23.5925C18.9756 23.5925 18.0965 24.4716 18.0965 25.5258L17.1224 49.6271C17.119 49.7164 17.1362 49.8023 17.1682 49.8801C16.6909 50.5142 16.3979 51.2949 16.3979 52.1465C16.3979 52.1705 16.4093 52.19 16.4116 52.214H12.3768C8.44729 52.214 5.25034 55.411 5.25034 59.3405V72.4328C5.25034 76.3611 8.44729 79.5592 12.3768 79.5592H15.9549L11.7061 83.3823C11.4531 83.6112 11.4313 84.0027 11.6603 84.2579C11.7186 84.3224 11.7898 84.374 11.8692 84.4092C11.9487 84.4445 12.0346 84.4628 12.1216 84.4628C12.2692 84.4628 12.418 84.4102 12.5359 84.3037L17.8092 79.5592H80.9768C80.9859 79.573 80.9882 79.589 80.9974 79.6016L85.1032 85.0237C85.1609 85.1001 85.2357 85.162 85.3215 85.2045C85.4073 85.247 85.5019 85.269 85.5977 85.2687C85.7282 85.2687 85.8598 85.2274 85.972 85.1439C86.2444 84.9379 86.2982 84.5487 86.0921 84.2763L82.5209 79.5592H85.8735C89.803 79.5592 93 76.3611 93 72.4328V59.3405C92.9954 55.4121 89.7985 52.214 85.8689 52.214ZM19.335 25.5521C19.3352 25.3612 19.4111 25.1782 19.5461 25.0432C19.681 24.9082 19.8641 24.8323 20.055 24.8322C20.451 24.8322 20.7738 25.1549 20.7738 25.5785L21.7078 48.6748C21.2296 48.4637 20.7128 48.3542 20.1901 48.3532C19.5376 48.3532 18.9321 48.534 18.3953 48.8259L19.335 25.5521ZM17.6352 52.1465C17.6352 50.7374 18.781 49.5917 20.1901 49.5917C21.5991 49.5917 22.746 50.7374 22.746 52.1465C22.746 52.1705 22.7563 52.19 22.7597 52.214H17.6226C17.6238 52.1911 17.6352 52.1705 17.6352 52.1465ZM85.8689 77.7896H12.3745C9.42022 77.7896 7.01765 75.3859 7.01765 72.4328V59.3405C7.01765 56.3862 9.42137 53.9836 12.3745 53.9836H85.8678C88.8221 53.9836 91.2247 56.3862 91.2247 59.3405V72.4328H91.2258C91.2258 75.3871 88.8232 77.7896 85.8689 77.7896Z" fill="#213357"/>
<path d="M26.2669 73.8842H10.7423V62.6222C10.7423 62.2788 10.4653 62.0029 10.123 62.0029C9.78078 62.0029 9.50378 62.2788 9.50378 62.6222V74.5034L10.123 75.1227H26.2669C26.4311 75.1227 26.5886 75.0574 26.7048 74.9413C26.8209 74.8252 26.8861 74.6677 26.8861 74.5034C26.8861 74.3392 26.8209 74.1817 26.7048 74.0656C26.5886 73.9494 26.4311 73.8842 26.2669 73.8842ZM81.3625 56.1069V56.1081C81.1983 56.1081 81.0408 56.1733 80.9247 56.2895C80.8085 56.4056 80.7433 56.5631 80.7433 56.7273C80.7433 56.8916 80.8085 57.0491 80.9247 57.1652C81.0408 57.2813 81.1983 57.3466 81.3625 57.3466H86.7755V73.883H39.4622C39.298 73.883 39.1405 73.9483 39.0243 74.0644C38.9082 74.1805 38.8429 74.3381 38.8429 74.5023C38.8429 74.6665 38.9082 74.824 39.0243 74.9402C39.1405 75.0563 39.298 75.1215 39.4622 75.1215H87.3959L88.0151 74.5023V56.7262L87.3959 56.1069H81.3625ZM14.9751 57.3466H70.8892C71.0534 57.3466 71.2109 57.2813 71.327 57.1652C71.4432 57.0491 71.5084 56.8916 71.5084 56.7273C71.5084 56.5631 71.4432 56.4056 71.327 56.2895C71.2109 56.1733 71.0534 56.1081 70.8892 56.1081H14.9751C14.8109 56.1081 14.6534 56.1733 14.5372 56.2895C14.4211 56.4056 14.3559 56.5631 14.3559 56.7273C14.3559 56.8916 14.4211 57.0491 14.5372 57.1652C14.6534 57.2813 14.8109 57.3466 14.9751 57.3466Z" fill="#213357"/>
<path d="M77.0106 68.6453C78.7768 68.6453 80.2145 67.2076 80.2145 65.4415C80.2145 63.6742 78.7768 62.2365 77.0106 62.2365C75.2445 62.2365 73.8068 63.6742 73.8068 65.4415C73.8068 67.2076 75.2445 68.6453 77.0106 68.6453ZM77.0106 63.475C78.0946 63.475 78.976 64.3575 78.976 65.4415C78.9754 65.9625 78.7682 66.4621 78.3998 66.8306C78.0313 67.199 77.5317 67.4063 77.0106 67.4068C75.9267 67.4068 75.0453 66.5254 75.0453 65.4415C75.0453 64.3575 75.9267 63.475 77.0106 63.475ZM69.2558 63.5517C68.2142 63.5517 67.3671 64.3999 67.3671 65.4415C67.3671 66.4831 68.2142 67.3301 69.2558 67.3301C70.2985 67.3301 71.1456 66.4819 71.1456 65.4415C71.1451 64.9404 70.9459 64.46 70.5916 64.1057C70.2373 63.7514 69.7568 63.5521 69.2558 63.5517ZM69.2558 66.0916C68.8975 66.0916 68.6056 65.7997 68.6056 65.4415C68.6056 65.0832 68.8975 64.7902 69.2558 64.7902C69.614 64.7902 69.9071 65.0821 69.9071 65.4415C69.9068 65.614 69.838 65.7794 69.7159 65.9013C69.5938 66.0232 69.4283 66.0916 69.2558 66.0916ZM62.1968 65.4415C62.1968 66.4831 63.045 67.3301 64.0866 67.3301C65.1282 67.3301 65.9753 66.4831 65.9753 65.4415C65.9753 64.3987 65.1271 63.5517 64.0866 63.5517C63.5856 63.5521 63.1052 63.7514 62.7509 64.1057C62.3965 64.46 62.1973 64.9404 62.1968 65.4415ZM64.7368 65.4415C64.7368 65.7997 64.4449 66.0916 64.0866 66.0916C63.7284 66.0916 63.4353 65.7997 63.4353 65.4415C63.4353 65.0832 63.7272 64.7902 64.0866 64.7902C64.2592 64.7905 64.4245 64.8592 64.5464 64.9813C64.6683 65.1034 64.7368 65.2689 64.7368 65.4415ZM57.0277 65.4415C57.0277 66.4831 57.8759 67.3301 58.9163 67.3301C59.958 67.3301 60.8061 66.4831 60.8061 65.4415C60.8057 64.9404 60.6064 64.46 60.2521 64.1057C59.8978 63.7514 59.4174 63.5521 58.9163 63.5517C57.8759 63.5517 57.0277 64.3987 57.0277 65.4415ZM59.5676 65.4415C59.5673 65.614 59.4986 65.7794 59.3765 65.9013C59.2544 66.0232 59.0889 66.0916 58.9163 66.0916C58.5581 66.0916 58.2662 65.7997 58.2662 65.4415C58.2662 65.0832 58.5581 64.7902 58.9163 64.7902C59.089 64.7905 59.2545 64.8592 59.3765 64.9813C59.4986 65.1033 59.5673 65.2688 59.5676 65.4415ZM55.1826 64.5258C55.1826 64.4444 55.1666 64.3639 55.1355 64.2887C55.1044 64.2136 55.0588 64.1453 55.0013 64.0878C54.9438 64.0303 54.8755 63.9847 54.8003 63.9536C54.7252 63.9225 54.6446 63.9065 54.5633 63.9065H35.1309C35.0496 63.9064 34.969 63.9223 34.8938 63.9534C34.8186 63.9844 34.7502 64.03 34.6927 64.0876C34.6352 64.1451 34.5896 64.2134 34.5585 64.2886C34.5274 64.3638 34.5115 64.4444 34.5117 64.5258C34.5115 64.6071 34.5274 64.6877 34.5585 64.7629C34.5896 64.8381 34.6352 64.9064 34.6927 64.964C34.7502 65.0215 34.8186 65.0671 34.8938 65.0982C34.969 65.1292 35.0496 65.1452 35.1309 65.145H54.5633C54.6446 65.145 54.7252 65.1291 54.8003 65.0979C54.8755 65.0668 54.9438 65.0212 55.0013 64.9637C55.0588 64.9062 55.1044 64.8379 55.1355 64.7628C55.1666 64.6876 55.1826 64.6071 55.1826 64.5258ZM32.1411 63.9065H20.9295C20.7653 63.9065 20.6077 63.9718 20.4916 64.0879C20.3755 64.204 20.3102 64.3615 20.3102 64.5258C20.3102 64.69 20.3755 64.8475 20.4916 64.9636C20.6077 65.0798 20.7653 65.145 20.9295 65.145H32.1411C32.3054 65.145 32.4629 65.0798 32.579 64.9636C32.6951 64.8475 32.7604 64.69 32.7604 64.5258C32.7604 64.3615 32.6951 64.204 32.579 64.0879C32.4629 63.9718 32.3054 63.9065 32.1411 63.9065ZM13.7515 65.145H18.4433C18.6076 65.145 18.7651 65.0798 18.8812 64.9636C18.9974 64.8475 19.0626 64.69 19.0626 64.5258C19.0626 64.3615 18.9974 64.204 18.8812 64.0879C18.7651 63.9718 18.6076 63.9065 18.4433 63.9065H13.7515C13.6702 63.9065 13.5896 63.9225 13.5145 63.9536C13.4393 63.9847 13.3711 64.0303 13.3136 64.0878C13.256 64.1453 13.2104 64.2136 13.1793 64.2887C13.1482 64.3639 13.1322 64.4444 13.1323 64.5258C13.1321 64.6071 13.148 64.6877 13.1791 64.7629C13.2102 64.8381 13.2558 64.9064 13.3133 64.964C13.3708 65.0215 13.4392 65.0671 13.5144 65.0982C13.5896 65.1292 13.6701 65.1452 13.7515 65.145ZM25.5286 13.0895C32.4399 14.9884 36.8948 19.8405 36.8776 25.4504C36.8616 30.9206 32.6116 35.4579 25.7873 37.2904C25.6289 37.3335 25.494 37.4374 25.4121 37.5797C25.3302 37.7219 25.3079 37.8907 25.35 38.0493C25.371 38.128 25.4073 38.2017 25.4568 38.2663C25.5064 38.3309 25.5681 38.3851 25.6386 38.4259C25.7091 38.4666 25.7869 38.493 25.8676 38.5036C25.9483 38.5142 26.0303 38.5088 26.1089 38.4877C33.4975 36.5029 38.0989 31.5078 38.1161 25.4549C38.1344 19.2705 33.3224 13.9468 25.8583 11.8957C25.7798 11.8737 25.6978 11.8675 25.6169 11.8774C25.536 11.8873 25.4579 11.9131 25.387 11.9533C25.3162 11.9935 25.254 12.0473 25.204 12.1117C25.154 12.1761 25.1173 12.2497 25.0959 12.3283C25.053 12.4866 25.0745 12.6554 25.1555 12.798C25.2365 12.9406 25.3707 13.0454 25.5286 13.0895Z" fill="#213357"/>
<path d="M25.1165 34.961C25.1738 34.961 25.2322 34.953 25.2894 34.937C30.3727 33.4512 33.6818 29.9395 33.9268 25.7742C34.1626 21.7874 31.523 18.1292 27.0452 16.2257C26.894 16.1623 26.7238 16.1611 26.5716 16.2224C26.4195 16.2837 26.2976 16.4025 26.2326 16.5531C26.1688 16.7043 26.1674 16.8746 26.2287 17.0269C26.29 17.1791 26.4091 17.301 26.5599 17.3657C30.5455 19.0575 32.8943 22.2522 32.6906 25.7009C32.4765 29.3294 29.5085 32.4131 24.9426 33.7465C24.785 33.7927 24.6521 33.8995 24.5731 34.0435C24.4942 34.1875 24.4755 34.3569 24.5213 34.5146C24.5591 34.6432 24.6375 34.7562 24.7448 34.8367C24.852 34.9171 24.9825 34.9608 25.1165 34.961Z" fill="#213357"/>
<path d="M25.6637 30.1113C25.793 30.1113 25.9235 30.0712 26.0334 29.9877C27.6576 28.7721 28.5974 27.1318 28.6821 25.3668C28.7668 23.5972 27.9942 21.8803 26.5107 20.5319C26.2555 20.3041 25.8651 20.3201 25.6362 20.5731C25.5259 20.6948 25.4683 20.8553 25.476 21.0194C25.4838 21.1835 25.5562 21.3379 25.6774 21.4487C26.8839 22.5453 27.5111 23.9154 27.4447 25.3084C27.3795 26.698 26.6149 28.0075 25.294 28.9953C25.1897 29.0731 25.1126 29.1817 25.0736 29.3058C25.0345 29.4299 25.0355 29.5631 25.0764 29.6866C25.1174 29.8101 25.1961 29.9175 25.3015 29.9938C25.4069 30.07 25.5336 30.1111 25.6637 30.1113ZM15.2613 38.7578C15.4197 38.801 15.5889 38.7796 15.7315 38.6983C15.8742 38.6169 15.9788 38.4824 16.0225 38.324C16.0655 38.1656 16.0441 37.9966 15.9631 37.8538C15.8821 37.711 15.7479 37.606 15.5898 37.5617C8.67852 35.6628 4.22361 30.8107 4.23964 25.202C4.25566 19.7318 8.50568 15.1945 15.33 13.3619C15.4885 13.3191 15.6235 13.2151 15.7055 13.0729C15.7874 12.9306 15.8096 12.7616 15.7672 12.603C15.6791 12.2722 15.3414 12.0811 15.0072 12.1658C7.61973 14.1506 3.01832 19.1457 3 25.1997C2.98512 31.383 7.79715 36.7055 15.2613 38.7578Z" fill="#213357"/>
<path d="M7.1905 24.8781C6.95699 28.8649 9.59308 32.5231 14.0743 34.4266C14.1511 34.4589 14.2336 34.4756 14.317 34.4758C14.5573 34.4758 14.7863 34.3339 14.8881 34.0981C14.9519 33.9469 14.9533 33.7765 14.892 33.6243C14.8307 33.472 14.7116 33.3502 14.5608 33.2854C10.5752 31.5937 8.22639 28.4001 8.42784 24.9514C8.64189 21.3229 11.6111 18.2392 16.1758 16.9046C16.254 16.882 16.327 16.8441 16.3905 16.7933C16.454 16.7424 16.5069 16.6794 16.546 16.6081C16.5851 16.5367 16.6098 16.4583 16.6186 16.3774C16.6273 16.2965 16.62 16.2146 16.5971 16.1366C16.5009 15.8069 16.1552 15.6261 15.829 15.7153C10.7457 17.1999 7.43545 20.7105 7.1905 24.8781Z" fill="#213357"/>
<path d="M15.8244 21.6547C15.8897 21.6061 15.9447 21.5452 15.9864 21.4753C16.028 21.4054 16.0554 21.3279 16.067 21.2474C16.0786 21.1669 16.0742 21.0848 16.0539 21.006C16.0337 20.9272 15.9981 20.8532 15.9492 20.7882C15.9006 20.723 15.8397 20.6679 15.7698 20.6263C15.7 20.5846 15.6226 20.5572 15.5421 20.5455C15.4616 20.5338 15.3796 20.5381 15.3008 20.5581C15.2219 20.5782 15.1478 20.6136 15.0827 20.6623C13.4608 21.8767 12.5199 23.517 12.4363 25.282C12.3516 27.0516 13.1231 28.7709 14.6077 30.1204C14.7279 30.228 14.8755 30.2806 15.0243 30.2806C15.1926 30.2806 15.3609 30.2119 15.4833 30.0792C15.5936 29.9574 15.6512 29.7969 15.6435 29.6328C15.6358 29.4687 15.5634 29.3144 15.4421 29.2035C14.2357 28.107 13.6073 26.7346 13.6748 25.3415C13.7401 23.9531 14.5047 22.6437 15.8244 21.6547Z" fill="#213357"/>
</g>
<defs>
<clipPath id="clip0_1_13661">
<rect width="90" height="90" fill="white" transform="translate(3 3.5708)"/>
</clipPath>
</defs>
</svg>
