<svg width="96" height="97" viewBox="0 0 96 97" fill="none" xmlns="http://www.w3.org/2000/svg">
<path d="M86.6837 35.18V25.125C86.6837 21.4784 83.2406 18.6106 79.6085 19.9337C71.2792 22.9675 62.8314 22.9673 54.5023 19.9335C52.0354 19.0356 49.2651 20.0349 47.9997 22.6512C46.7556 20.0829 44.0175 19.0217 41.5024 19.9287C33.1277 22.9657 24.6823 22.9698 16.4014 19.9386C12.7757 18.6121 9.316 21.4545 9.316 25.125V35.18C5.84063 35.4601 3.02742 38.4501 3.00035 41.9612C2.97821 44.8447 4.77856 47.4527 7.48014 48.4514C8.25323 48.7372 8.77266 49.4828 8.77266 50.3066V67.8051C8.77266 70.9377 11.3211 73.486 14.4537 73.486H20.1821L16.9305 79.0489C16.3759 79.9978 17.0592 81.1915 18.1599 81.1915H21.6349C22.1023 81.1926 22.5639 81.0884 22.9854 80.8866C23.407 80.6849 23.7777 80.3907 24.07 80.0261L29.3378 73.486H65.5433L70.8111 80.0261C71.1035 80.3907 71.4742 80.6847 71.8957 80.8865C72.3172 81.0882 72.7787 81.1925 73.2461 81.1915H76.7214C77.8238 81.1915 78.5047 79.9964 77.9507 79.0489L74.6996 73.486H81.5459C84.6787 73.486 87.2272 70.9377 87.2272 67.8051V50.3066C87.2272 49.4828 87.7464 48.7375 88.5197 48.4514C91.2213 47.4527 93.022 44.8445 92.9996 41.9612C92.9728 38.4503 90.1596 35.4601 86.6837 35.18ZM54.1107 21.0093C62.6997 24.1382 71.4106 24.138 80.0006 21.0094C82.8882 19.9593 85.5388 22.2759 85.5388 25.1248V35.1822C83.9866 35.3133 82.5378 35.9572 81.393 37.0512C80.0244 38.3589 79.2708 40.1218 79.2708 42.0153V52.0028C69.2164 47.3749 58.8979 47.3807 48.5727 52.0146V25.125C48.5725 22.2652 51.2245 19.9595 54.1107 21.0093ZM16.729 53.2808C28.1237 48.3851 38.2693 48.4287 47.7332 53.4116C47.8877 53.4929 48.1 53.4912 48.2447 53.4228C58.833 48.4197 68.986 48.3668 79.2706 53.265V63.5478C79.2706 64.6405 78.3819 65.5296 77.2892 65.5296H18.711C17.6181 65.5296 16.729 64.6405 16.729 63.5478V53.2808ZM16.0078 21.0138C24.549 24.1401 33.2578 24.1371 41.8921 21.0056C44.7574 19.9718 47.4275 22.2475 47.4275 25.125V51.9735C38.0056 47.3107 27.9441 47.3325 16.729 52.0396V42.0155C16.729 40.122 15.9755 38.3591 14.6068 37.0512C13.4618 35.9575 12.0134 35.3163 10.4612 35.1837V25.1252C10.4612 22.2719 13.1088 19.9535 16.0078 21.0138ZM23.1783 79.3077C22.993 79.5387 22.758 79.7251 22.4909 79.853C22.2237 79.9809 21.9311 80.0469 21.6349 80.0463H18.1599C18.1108 80.0463 18.0626 80.0334 18.0201 80.0088C17.9776 79.9842 17.9423 79.9489 17.9179 79.9063C17.8935 79.8637 17.8807 79.8154 17.8809 79.7663C17.8811 79.7172 17.8943 79.6691 17.9191 79.6267L21.5084 73.4858H27.8678L23.1783 79.3077ZM76.9624 79.6269C77.0718 79.8134 76.9369 80.0465 76.7218 80.0465H73.2464C72.9502 80.0471 72.6577 79.981 72.3906 79.8531C72.1234 79.7252 71.8885 79.5389 71.7032 79.3078L67.0141 73.4858H73.3735L76.9624 79.6269ZM88.1226 47.3777C86.902 47.8289 86.082 49.0061 86.082 50.3067V67.8052C86.082 70.3064 84.0468 72.3411 81.5457 72.3411H14.4537C11.9525 72.3411 9.9177 70.3062 9.9177 67.8052V50.3067C9.9177 49.0061 9.0975 47.8289 7.87705 47.3777C5.62635 46.5457 4.12659 44.3725 4.14522 41.9703C4.1686 38.9224 6.71989 36.2959 9.8669 36.2959C11.3475 36.2959 12.7413 36.8524 13.8156 37.8792C14.9559 38.9687 15.584 40.4377 15.584 42.0155V63.548C15.584 65.2719 16.9866 66.6748 18.711 66.6748H77.2892C79.0131 66.6748 80.4156 65.2722 80.4156 63.548V42.0155C80.4156 40.438 81.0435 38.9688 82.1838 37.8793C85.8413 34.3848 91.8166 37.0667 91.855 41.9701C91.8731 44.3725 90.3733 46.5457 88.1226 47.3777Z" fill="#213357"/>
<path d="M34.798 34.1621C34.798 34.4778 34.8924 34.7624 35.0264 35.0236C35.0096 35.0439 34.9838 35.0703 34.9624 35.0921L33.8553 36.3035L33.6193 35.3098C33.4647 34.6691 33.3165 34.0268 33.1746 33.383C33.8371 33.0735 34.303 32.3986 34.303 31.6086C34.303 30.5278 33.4426 29.6476 32.3827 29.6476C31.8736 29.6481 31.3855 29.8549 31.0254 30.2225C30.6654 30.5902 30.4629 31.0887 30.4624 31.6086C30.4624 32.2415 30.7777 32.778 31.2345 33.1373C30.9513 33.8728 30.6711 34.6115 30.3909 35.3487L30.2112 35.8152L29.9873 35.2211C29.7252 34.5369 29.4699 33.85 29.2213 33.1606C29.4112 32.9754 29.5624 32.7529 29.6661 32.5065C29.7697 32.2601 29.8235 31.9949 29.8244 31.7268C29.824 31.1953 29.617 30.6856 29.249 30.3098C28.8809 29.934 28.3819 29.7226 27.8614 29.7222C27.3412 29.7231 26.8425 29.9346 26.4748 30.3104C26.1071 30.6861 25.9004 31.1955 25.9 31.7268C25.9 32.5992 26.4574 33.3239 27.2218 33.5976C27.0508 34.2874 26.8843 34.9785 26.7223 35.6706L26.5716 36.3019L26.2213 35.9116C25.9746 35.6364 25.7203 35.3564 25.4508 35.0547C25.597 34.7841 25.702 34.4887 25.702 34.159C25.702 33.1171 24.8721 32.2695 23.8518 32.2695C23.361 32.2697 22.8903 32.4688 22.5431 32.8231C22.1959 33.1773 22.0006 33.6578 22 34.159C22 35.1558 22.766 35.9536 23.7254 36.0236C23.6858 36.0298 23.6553 36.0438 23.6142 36.0485C23.6173 36.0578 23.6218 36.064 23.6249 36.0733L24.0543 37.2381C24.4472 38.3003 24.8401 39.3609 25.2162 40.4292C25.2817 40.6158 25.3731 40.748 25.4827 40.8538V42.7961C25.4827 42.9656 25.6579 43.1476 25.8254 43.1476H34.6731C34.8391 43.1476 35.0173 42.9672 35.0173 42.7961V40.8305C35.0173 40.8102 34.9959 40.7947 34.9914 40.7745C35.0629 40.6858 35.1437 40.6143 35.1909 40.4806C35.4659 39.713 35.7446 38.9469 36.0269 38.1821C36.2806 37.4964 36.5313 36.8095 36.7792 36.1215C36.799 36.0687 36.8325 36.0391 36.8629 36.0049C37.7797 35.8945 38.5 35.1278 38.5 34.1621C38.5 33.1202 37.6701 32.2726 36.6482 32.2726C36.1577 32.2731 35.6873 32.4724 35.3404 32.8266C34.9936 33.1808 34.7985 33.6611 34.798 34.1621ZM31.0681 31.6101C31.0688 31.254 31.2076 30.9126 31.4542 30.6607C31.7008 30.4089 32.0351 30.2671 32.3839 30.2665C33.1103 30.2665 33.6996 30.8699 33.6996 31.6101C33.6996 32.3504 33.1088 32.9522 32.3839 32.9522C32.0353 32.9519 31.701 32.8105 31.4544 32.5589C31.2077 32.3073 31.0689 31.9661 31.0681 31.6101ZM26.5046 31.7299C26.5046 30.9648 27.1137 30.3412 27.8629 30.3412C28.6122 30.3412 29.2228 30.9632 29.2228 31.7299C29.2228 32.4935 28.6137 33.1171 27.8629 33.1171C27.5029 33.1162 27.1579 32.9698 26.9033 32.7099C26.6487 32.4499 26.5054 32.0975 26.5046 31.7299ZM23.8514 35.4357C23.5207 35.4353 23.2037 35.301 22.9699 35.0622C22.7361 34.8235 22.6046 34.4998 22.6042 34.1621C22.6047 33.8246 22.7363 33.5011 22.9701 33.2626C23.204 33.0241 23.5209 32.8901 23.8514 32.89C24.1816 32.8904 24.4983 33.0246 24.7318 33.263C24.9653 33.5015 25.0967 33.8248 25.0971 34.1621C25.0971 34.4996 24.9659 34.8233 24.7323 35.0622C24.4988 35.301 24.1819 35.4353 23.8514 35.4357ZM34.4123 42.5333H26.0869V41.101H34.4123V42.5333ZM36.6478 32.89C36.9783 32.8901 37.2953 33.0241 37.5291 33.2626C37.7629 33.5011 37.8945 33.8246 37.895 34.1621C37.8948 34.4998 37.7634 34.8237 37.5295 35.0625C37.2957 35.3013 36.9786 35.4355 36.6478 35.4357C36.3174 35.4352 36.0006 35.3008 35.767 35.062C35.5335 34.8232 35.4023 34.4996 35.4022 34.1621C35.4027 33.8249 35.5341 33.5016 35.7676 33.2632C36.0011 33.0247 36.3176 32.8905 36.6478 32.89ZM35.3888 35.5322C35.6112 35.7452 35.8914 35.8789 36.1959 35.9598C35.9535 36.6304 35.7088 37.3002 35.4619 37.969C35.1784 38.7353 34.8987 39.503 34.6228 40.2722C34.5589 40.451 34.5239 40.4821 34.3472 40.4821H34.3305C31.6107 40.4666 28.8909 40.465 26.168 40.4837H26.1589C25.9183 40.4837 25.865 40.4448 25.7858 40.2208C25.4065 39.1511 25.0182 38.0848 24.6208 37.022L24.234 35.9723C24.5508 35.9023 24.8401 35.7701 25.0746 35.5555L25.7766 36.3299L26.2807 36.8882C26.3264 36.938 26.3782 36.9831 26.4406 37.036L26.5289 37.1122C26.5666 37.1465 26.6124 37.1703 26.6618 37.1812C26.7111 37.1921 26.7624 37.1897 26.8107 37.1744C26.8588 37.1606 26.9029 37.1347 26.9388 37.0991C26.9747 37.0636 27.0013 37.0194 27.0162 36.9706L27.0482 36.868C27.0802 36.77 27.103 36.6907 27.1228 36.6099L27.3117 35.8152C27.4761 35.1169 27.6421 34.4187 27.8157 33.7204C27.8325 33.7204 27.8462 33.7298 27.8629 33.7298C28.1629 33.7298 28.4401 33.6489 28.6944 33.5245C28.9396 34.1637 29.1832 34.8044 29.4254 35.4435L29.8213 36.4839C29.8426 36.5414 29.8685 36.5959 29.9036 36.6581L29.9401 36.7265C29.9858 36.8198 30.0954 36.8556 30.1959 36.8665C30.3056 36.8898 30.4183 36.8105 30.4822 36.728C30.5127 36.6923 30.5492 36.6441 30.5751 36.5772L30.9589 35.571C31.2277 34.8595 31.4988 34.1488 31.7721 33.439C31.967 33.5074 32.1695 33.5665 32.3873 33.5665C32.4543 33.5665 32.5107 33.5338 32.5746 33.5276L32.5761 33.5354C32.7315 34.173 32.8838 34.8137 33.036 35.4528L33.336 36.7109C33.3574 36.7949 33.3909 36.8633 33.4259 36.9287L33.4685 37.0189C33.5112 37.1122 33.5964 37.1775 33.6954 37.1915C33.7929 37.1992 33.8934 37.1697 33.9635 37.0951L35.3249 35.5959L35.3812 35.5399L35.3888 35.5322Z" fill="#213357"/>
<path d="M69.798 34.1621C69.798 34.4778 69.8924 34.7624 70.0264 35.0236C70.0096 35.0439 69.9838 35.0703 69.9624 35.0921L68.8553 36.3035L68.6193 35.3098C68.4647 34.6691 68.3165 34.0268 68.1746 33.383C68.8371 33.0735 69.303 32.3986 69.303 31.6086C69.303 30.5278 68.4426 29.6476 67.3827 29.6476C66.8736 29.6481 66.3855 29.8549 66.0254 30.2225C65.6654 30.5902 65.4629 31.0887 65.4624 31.6086C65.4624 32.2415 65.7777 32.778 66.2345 33.1373C65.9513 33.8728 65.6711 34.6115 65.3909 35.3487L65.2112 35.8152L64.9873 35.2211C64.7252 34.5369 64.4699 33.85 64.2213 33.1606C64.4112 32.9754 64.5624 32.7529 64.6661 32.5065C64.7697 32.2601 64.8235 31.9949 64.8244 31.7268C64.824 31.1953 64.617 30.6856 64.249 30.3098C63.8809 29.934 63.3819 29.7226 62.8614 29.7222C62.3412 29.7231 61.8425 29.9346 61.4748 30.3104C61.1071 30.6861 60.9004 31.1955 60.9 31.7268C60.9 32.5992 61.4574 33.3239 62.2218 33.5976C62.0508 34.2874 61.8843 34.9785 61.7223 35.6706L61.5716 36.3019L61.2213 35.9116C60.9746 35.6364 60.7203 35.3564 60.4508 35.0547C60.597 34.7841 60.702 34.4887 60.702 34.159C60.702 33.1171 59.8721 32.2695 58.8518 32.2695C58.361 32.2697 57.8903 32.4688 57.5431 32.8231C57.1959 33.1773 57.0006 33.6578 57 34.159C57 35.1558 57.766 35.9536 58.7254 36.0236C58.6858 36.0298 58.6553 36.0438 58.6142 36.0485C58.6173 36.0578 58.6218 36.064 58.6249 36.0733L59.0543 37.2381C59.4472 38.3003 59.8401 39.3609 60.2162 40.4292C60.2817 40.6158 60.3731 40.748 60.4827 40.8538V42.7961C60.4827 42.9656 60.6579 43.1476 60.8254 43.1476H69.6731C69.8391 43.1476 70.0173 42.9672 70.0173 42.7961V40.8305C70.0173 40.8102 69.9959 40.7947 69.9914 40.7745C70.0629 40.6858 70.1437 40.6143 70.1909 40.4806C70.4659 39.713 70.7446 38.9469 71.0269 38.1821C71.2806 37.4964 71.5313 36.8095 71.7792 36.1215C71.799 36.0687 71.8325 36.0391 71.8629 36.0049C72.7797 35.8945 73.5 35.1278 73.5 34.1621C73.5 33.1202 72.6701 32.2726 71.6482 32.2726C71.1577 32.2731 70.6873 32.4724 70.3404 32.8266C69.9936 33.1808 69.7985 33.6611 69.798 34.1621ZM66.0681 31.6101C66.0688 31.254 66.2076 30.9126 66.4542 30.6607C66.7008 30.4089 67.0351 30.2671 67.3839 30.2665C68.1103 30.2665 68.6996 30.8699 68.6996 31.6101C68.6996 32.3504 68.1088 32.9522 67.3839 32.9522C67.0353 32.9519 66.701 32.8105 66.4544 32.5589C66.2077 32.3073 66.0689 31.9661 66.0681 31.6101ZM61.5046 31.7299C61.5046 30.9648 62.1137 30.3412 62.8629 30.3412C63.6122 30.3412 64.2228 30.9632 64.2228 31.7299C64.2228 32.4935 63.6137 33.1171 62.8629 33.1171C62.5029 33.1162 62.1579 32.9698 61.9033 32.7099C61.6487 32.4499 61.5054 32.0975 61.5046 31.7299ZM58.8514 35.4357C58.5207 35.4353 58.2037 35.301 57.9699 35.0622C57.7361 34.8235 57.6046 34.4998 57.6042 34.1621C57.6047 33.8246 57.7363 33.5011 57.9701 33.2626C58.204 33.0241 58.5209 32.8901 58.8514 32.89C59.1816 32.8904 59.4983 33.0246 59.7318 33.263C59.9653 33.5015 60.0967 33.8248 60.0971 34.1621C60.0971 34.4996 59.9659 34.8233 59.7323 35.0622C59.4988 35.301 59.1819 35.4353 58.8514 35.4357ZM69.4123 42.5333H61.0869V41.101H69.4123V42.5333ZM71.6478 32.89C71.9783 32.8901 72.2953 33.0241 72.5291 33.2626C72.7629 33.5011 72.8945 33.8246 72.895 34.1621C72.8948 34.4998 72.7634 34.8237 72.5295 35.0625C72.2957 35.3013 71.9786 35.4355 71.6478 35.4357C71.3174 35.4352 71.0006 35.3008 70.767 35.062C70.5335 34.8232 70.4023 34.4996 70.4022 34.1621C70.4027 33.8249 70.5341 33.5016 70.7676 33.2632C71.0011 33.0247 71.3176 32.8905 71.6478 32.89ZM70.3888 35.5322C70.6112 35.7452 70.8914 35.8789 71.1959 35.9598C70.9535 36.6304 70.7088 37.3002 70.4619 37.969C70.1784 38.7353 69.8987 39.503 69.6228 40.2722C69.5589 40.451 69.5239 40.4821 69.3472 40.4821H69.3305C66.6107 40.4666 63.8909 40.465 61.168 40.4837H61.1589C60.9183 40.4837 60.865 40.4448 60.7858 40.2208C60.4065 39.1511 60.0182 38.0848 59.6208 37.022L59.234 35.9723C59.5508 35.9023 59.8401 35.7701 60.0746 35.5555L60.7766 36.3299L61.2807 36.8882C61.3264 36.938 61.3782 36.9831 61.4406 37.036L61.5289 37.1122C61.5666 37.1465 61.6124 37.1703 61.6618 37.1812C61.7111 37.1921 61.7624 37.1897 61.8107 37.1744C61.8588 37.1606 61.9029 37.1347 61.9388 37.0991C61.9747 37.0636 62.0013 37.0194 62.0162 36.9706L62.0482 36.868C62.0802 36.77 62.103 36.6907 62.1228 36.6099L62.3117 35.8152C62.4761 35.1169 62.6421 34.4187 62.8157 33.7204C62.8325 33.7204 62.8462 33.7298 62.8629 33.7298C63.1629 33.7298 63.4401 33.6489 63.6944 33.5245C63.9396 34.1637 64.1832 34.8044 64.4254 35.4435L64.8213 36.4839C64.8426 36.5414 64.8685 36.5959 64.9036 36.6581L64.9401 36.7265C64.9858 36.8198 65.0954 36.8556 65.1959 36.8665C65.3056 36.8898 65.4183 36.8105 65.4822 36.728C65.5127 36.6923 65.5492 36.6441 65.5751 36.5772L65.9589 35.571C66.2277 34.8595 66.4988 34.1488 66.7721 33.439C66.967 33.5074 67.1695 33.5665 67.3873 33.5665C67.4543 33.5665 67.5107 33.5338 67.5746 33.5276L67.5761 33.5354C67.7315 34.173 67.8838 34.8137 68.036 35.4528L68.336 36.7109C68.3574 36.7949 68.3909 36.8633 68.4259 36.9287L68.4685 37.0189C68.5112 37.1122 68.5964 37.1775 68.6954 37.1915C68.7929 37.1992 68.8934 37.1697 68.9635 37.0951L70.3249 35.5959L70.3812 35.5399L70.3888 35.5322Z" fill="#213357"/>
</svg>
