<svg width="72" height="93" viewBox="0 0 72 93" fill="none" xmlns="http://www.w3.org/2000/svg">
<path d="M71.4596 47.914C71.4596 46.5218 70.3266 45.3888 68.9344 45.3888H68.3982C68.4412 44.7072 68.469 44.0724 68.469 43.4806C68.469 27.597 57.0011 14.3499 41.9116 11.5616C42.0811 11.3113 42.2037 11.028 42.2037 10.703V10.5424C42.2033 10.1279 42.0386 9.7305 41.7456 9.43728C41.4526 9.14406 41.0553 8.97898 40.6408 8.97823H38.5935C39.7126 8.12973 40.4473 6.79946 40.4473 5.28963C40.4473 2.73024 38.3659 0.647583 35.8053 0.647583C33.2459 0.647583 31.162 2.73024 31.162 5.28963C31.162 6.79946 31.8979 8.12973 33.017 8.97823H31.3605C30.9459 8.97873 30.5485 9.14373 30.2554 9.43701C29.9624 9.73028 29.7977 10.1279 29.7975 10.5424V10.703C29.7975 11.0267 29.9202 11.3113 30.0896 11.5616C15.0002 14.3486 3.53097 27.5957 3.53097 43.4793C3.53097 44.0749 3.55879 44.7148 3.60052 45.3875H3.06563C1.67213 45.3875 0.54039 46.5205 0.54039 47.9127C0.54039 49.0521 1.30289 50.0055 2.34233 50.3191C2.11977 50.6808 1.98447 51.1018 1.98447 51.5571C1.98447 52.8658 3.05046 53.9306 4.35923 53.9306H19.8369C19.4095 54.6602 19.5726 55.4632 19.713 56.1409L19.7889 56.5152C19.8584 56.8921 19.9432 57.2651 20.0266 57.6394C20.1328 58.1073 20.2403 58.5751 20.3137 59.0481C20.6955 61.5379 19.9925 63.876 19.1756 66.2508C19.0593 66.5859 18.886 66.9994 18.6875 67.471C17.8744 69.4095 16.6036 72.4583 17.1979 75.1934L15.6248 74.5384L10.9196 85.6902L28.6026 92.6476L33.1118 81.8233L32.515 81.5742C35.3336 76.7387 45.1842 66.5391 46.8357 65.1254C48.6806 63.546 50.7253 62.1145 52.703 60.7286C53.3472 60.2801 53.9888 59.8278 54.6276 59.3718C55.27 58.9128 55.9339 58.4854 56.599 58.058C57.1819 57.6824 57.7636 57.3068 58.3327 56.911C59.2343 56.2838 59.6022 55.5277 59.4252 54.664C59.373 54.4012 59.2689 54.1515 59.1192 53.9293H67.6408C68.9495 53.9293 70.0143 52.8646 70.0143 51.5558C70.0143 51.1006 69.879 50.6795 69.6564 50.3178C70.6958 50.0068 71.4596 49.0533 71.4596 47.914ZM32.4164 5.28836C32.4164 3.41941 33.9363 1.90072 35.8053 1.90072C37.6742 1.90072 39.1929 3.42067 39.1929 5.28836C39.1929 7.15606 37.6742 8.67601 35.8053 8.67601C33.9363 8.67601 32.4164 7.15732 32.4164 5.28836ZM31.0519 10.5412C31.0519 10.373 31.1923 10.2314 31.3605 10.2314H40.6395C40.8077 10.2314 40.9481 10.373 40.9481 10.5412V10.7018C40.9481 10.8699 40.8077 11.0116 40.6395 11.0116H31.3605C31.2788 11.0105 31.2007 10.9775 31.1431 10.9196C31.0854 10.8617 31.0527 10.7835 31.0519 10.7018V10.5412ZM36.0013 12.266C53.2139 12.266 67.2146 26.2692 67.2146 43.4793C67.2146 44.0737 67.1931 44.6907 67.1476 45.3875H4.85113C4.80958 44.7523 4.78807 44.1159 4.78664 43.4793C4.78664 26.268 18.7887 12.266 36.0013 12.266ZM27.9185 91.0303L12.5748 84.9935L16.2938 76.1772L31.473 82.4998L27.9185 91.0303ZM57.6169 55.883C57.0605 56.2699 56.489 56.6379 55.9187 57.0046C55.2384 57.4434 54.5581 57.8809 53.8993 58.3526C53.2632 58.8066 52.6234 59.2542 51.9835 59.7031C49.9818 61.1054 47.9105 62.5546 46.02 64.1732C44.2674 65.6729 34.1981 76.0837 31.3504 81.0899L18.7343 75.8345C17.6025 73.3447 18.9391 70.1151 19.8433 67.9579C20.0532 67.4571 20.2378 67.0171 20.3592 66.6605C21.195 64.2313 21.9765 61.629 21.5516 58.8584C21.4732 58.3564 21.3619 57.8594 21.2494 57.3625C21.1685 57.0059 21.0863 56.648 21.0205 56.2889L20.9409 55.8881C20.7588 55.0143 20.7297 54.6665 21.1229 54.3276C21.1229 54.3276 22.0815 53.7877 23.8897 54.1291C25.067 54.6969 25.6575 55.7211 25.8067 57.4485C25.8484 57.934 25.8851 58.4209 25.9218 58.9064C25.9812 59.7006 26.0407 60.496 26.1266 61.3166C26.4858 63.6914 27.5353 65.1898 29.2462 65.7715C33.5734 67.2434 40.3348 62.0248 40.3929 61.9678C43.8628 58.6384 47.3238 56.2042 50.9238 54.5477C53.1684 53.7573 54.4152 53.8888 56.6711 54.124L57.3084 54.1835C58.0848 54.3719 58.1657 54.7677 58.1948 54.9182C58.2467 55.1609 58.2163 55.4657 57.6169 55.883ZM42.6691 55.0686C41.5917 57.6394 40.7521 59.6462 39.9251 60.6894C39.7973 60.8121 39.6684 60.9246 39.5407 61.0473C38.9387 61.5581 34.8392 64.3768 31.5868 64.7359C33.4646 63.0414 35.1237 60.7476 36.526 57.9012C36.7714 57.4042 36.9775 56.9705 37.1646 56.5785C37.6616 55.534 38.027 54.7867 38.5961 53.9306H43.0725C42.989 54.2442 42.8613 54.6109 42.6691 55.0686ZM43.3317 55.3468C43.5732 54.7677 43.7224 54.3188 43.8097 53.9318H49.3394C46.6485 55.2912 44.055 57.0603 41.4905 59.2795C42.1559 57.9934 42.7701 56.6815 43.3317 55.3468ZM36.5172 56.2725C36.3091 56.7119 36.0979 57.1498 35.8837 57.5863C34.3625 60.6705 32.5403 63.073 30.469 64.7435C30.1516 64.7119 29.8431 64.6587 29.5611 64.5525C28.3661 64.1049 27.6479 62.9858 27.3709 61.1573C27.29 60.3771 27.2318 59.5956 27.1737 58.8129C27.1374 58.322 27.0986 57.8314 27.0573 57.341C26.9701 56.3192 26.7222 54.9852 25.6992 53.9318H37.7374C37.2822 54.6691 36.9534 55.3569 36.5172 56.2725ZM67.642 52.6774H13.938L14.9445 51.8327L14.483 51.2827L12.8201 52.6774H11.3862L12.3927 51.8327L11.9312 51.2827L10.2683 52.6774H8.83436L9.84092 51.8327L9.37937 51.2827L7.71653 52.6774H6.28257L7.28912 51.8327L6.82757 51.2827L5.16473 52.6774H4.35671C4.05986 52.6772 3.77523 52.5592 3.56521 52.3495C3.35519 52.1397 3.23693 51.8552 3.23634 51.5583C3.23676 51.2614 3.35497 50.9768 3.56503 50.767C3.77508 50.5572 4.05981 50.4393 4.35671 50.4392H67.6395C67.9362 50.4396 68.2207 50.5576 68.4305 50.7674C68.6403 50.9772 68.7583 51.2616 68.7586 51.5583C68.7586 52.1754 68.2591 52.6774 67.642 52.6774ZM68.9344 49.1836H3.06563C2.72893 49.1832 2.40612 49.0493 2.16792 48.8113C1.92972 48.5734 1.79555 48.2507 1.79479 47.914C1.79521 47.5771 1.92924 47.2541 2.16747 47.0158C2.40571 46.7776 2.72871 46.6436 3.06563 46.6432H68.9331C69.27 46.6436 69.593 46.7776 69.8313 47.0158C70.0695 47.2541 70.2035 47.5771 70.2039 47.914C70.2037 48.2506 70.0699 48.5734 69.8318 48.8114C69.5938 49.0495 69.271 49.1833 68.9344 49.1836Z" fill="#213357"/>
<path d="M35.8053 7.78326C37.1798 7.78326 38.2989 6.66416 38.2989 5.28836C38.2989 3.91257 37.1798 2.79473 35.8053 2.79473C34.4307 2.79473 33.3116 3.91383 33.3116 5.28836C33.3116 6.66289 34.4307 7.78326 35.8053 7.78326ZM35.8053 3.51172C36.784 3.51172 37.5819 4.30836 37.5819 5.28836C37.5819 6.26836 36.784 7.06501 35.8053 7.06501C34.8265 7.06501 34.0286 6.26836 34.0286 5.28836C34.0286 4.30836 34.8253 3.51172 35.8053 3.51172ZM11.4115 42.7649C10.9006 36.5953 12.7582 30.2272 16.51 25.2956L15.5123 24.5356C11.5758 29.7125 9.62595 36.3942 10.1621 42.8686L11.4115 42.7649ZM23.4231 19.0438L22.7656 17.974C20.8639 19.1421 19.1162 20.544 17.5633 22.1469L18.4649 23.0182C19.9444 21.4906 21.6102 20.1553 23.4231 19.0438ZM62.0554 41.6825H64.3783V42.9369H62.0554V41.6825ZM54.2521 41.6825H59.6705V42.9369H54.2521V41.6825ZM43.8337 41.6825H52.3186V42.9369H43.8337V41.6825ZM19.0264 83.2042H19.0605C19.481 83.2052 19.8854 83.0429 20.1885 82.7515C20.3435 82.6039 20.4676 82.4269 20.5536 82.2309C20.6395 82.0348 20.6856 81.8236 20.6892 81.6096C20.6945 81.3958 20.6573 81.183 20.5795 80.9837C20.5018 80.7844 20.3852 80.6026 20.2365 80.4488C20.0891 80.2935 19.9122 80.1692 19.7161 80.0833C19.52 79.9973 19.3087 79.9513 19.0947 79.948C18.6495 79.9139 18.2474 80.0998 17.9338 80.4007C17.7786 80.5481 17.6543 80.7251 17.5683 80.9212C17.4823 81.1172 17.4364 81.3285 17.4331 81.5426C17.4241 81.9742 17.5869 82.3917 17.8857 82.7033C18.1845 83.0149 18.5948 83.195 19.0264 83.2042ZM18.4295 80.9166C18.5989 80.7532 18.8252 80.6621 19.0605 80.6625H19.0808C19.2007 80.6646 19.319 80.6905 19.4288 80.7387C19.5387 80.7869 19.6378 80.8564 19.7206 80.9432C19.89 81.119 19.9798 81.3504 19.9748 81.5944C19.9725 81.7144 19.9463 81.8328 19.8979 81.9426C19.8495 82.0525 19.7798 82.1516 19.6928 82.2343C19.517 82.4037 19.302 82.491 19.0416 82.4884C18.7998 82.4826 18.5701 82.3813 18.4029 82.2067C18.2356 82.0321 18.1442 81.7983 18.1488 81.5565C18.1511 81.4366 18.177 81.3183 18.2252 81.2085C18.2734 81.0987 18.3428 80.9995 18.4295 80.9166Z" fill="#213357"/>
</svg>
