<svg width="91" height="91" viewBox="0 0 91 91" fill="none" xmlns="http://www.w3.org/2000/svg">
<path d="M80.9703 7.95239H9.53072C6.43434 7.95239 3.91521 10.4715 3.91521 13.5679V81.2428C3.91521 84.3388 6.43434 86.8578 9.53072 86.8578H80.9703C84.0667 86.8578 86.5858 84.3387 86.5858 81.2428V13.5679C86.5858 10.4715 84.0667 7.95239 80.9703 7.95239ZM85.441 46.8308H81.5801C81.5041 46.8295 81.4286 46.8433 81.358 46.8715C81.2873 46.8996 81.223 46.9416 81.1688 46.9949C81.1146 47.0482 81.0715 47.1117 81.0421 47.1818C81.0127 47.2519 80.9976 47.3272 80.9976 47.4032C80.9976 47.4793 81.0127 47.5545 81.0421 47.6247C81.0715 47.6948 81.1146 47.7583 81.1688 47.8116C81.223 47.8649 81.2873 47.9069 81.358 47.935C81.4286 47.9632 81.5041 47.977 81.5801 47.9757H85.441V56.1003H5.06008V47.9757H8.92094C8.99695 47.977 9.07247 47.9632 9.14309 47.935C9.21371 47.9069 9.27801 47.8649 9.33224 47.8116C9.38647 47.7583 9.42954 47.6948 9.45894 47.6247C9.48834 47.5545 9.50349 47.4793 9.50349 47.4032C9.50349 47.3272 9.48834 47.2519 9.45894 47.1818C9.42954 47.1117 9.38647 47.0482 9.33224 46.9949C9.27801 46.9416 9.21371 46.8996 9.14309 46.8715C9.07247 46.8433 8.99695 46.8295 8.92094 46.8308H5.06008V38.7097H85.4406V46.8308H85.441ZM58.2645 57.2457V85.7129H32.2366V57.2457H58.2645ZM32.2366 37.5647V9.09743H58.2645V37.5647H32.2366ZM9.53072 9.09743H31.0915V37.5647H5.06008V13.5679C5.06008 11.1029 7.06592 9.09743 9.53072 9.09743ZM5.06008 81.2428V57.2457H31.0915V85.7129H9.53072C7.06592 85.7129 5.06008 83.7078 5.06008 81.2428ZM80.9703 85.7129H59.4095V57.2457H85.441V81.2428C85.441 83.7078 83.4351 85.7129 80.9703 85.7129ZM85.441 37.5647H59.4095V9.09743H80.9703C83.4351 9.09743 85.441 11.1029 85.441 13.5681V37.5647Z" fill="#213357"/>
<path d="M80.0083 13.6337C80.0083 12.325 78.9437 11.2599 77.6351 11.2599H67.2155C65.9068 11.2599 64.842 12.3248 64.842 13.6337V33.0288C64.842 34.3375 65.9066 35.4026 67.2155 35.4026H77.6351C78.9437 35.4026 80.0083 34.3377 80.0083 33.0288V13.6337ZM76.7359 27.1642C76.779 27.0291 76.8085 26.8879 76.8085 26.7389V24.4627H78.8634V28.8131L76.7359 27.1642ZM67.5292 20.4462C67.4683 20.6038 67.4365 20.7711 67.4353 20.94V23.3178H65.9871V19.07L67.5292 20.4462ZM65.9869 24.4627H67.4352V26.7389C67.4352 26.9178 67.4719 27.0873 67.5329 27.2451L65.9869 28.6747V24.4627ZM68.5804 26.7389V20.94C68.5804 20.792 68.7006 20.6716 68.8485 20.6716H75.3956C75.5431 20.6716 75.6637 20.7929 75.6637 20.94V26.7389C75.6637 26.8863 75.5434 27.0069 75.3956 27.0069H68.8485C68.7774 27.0067 68.7093 26.9784 68.6591 26.9282C68.6089 26.878 68.5806 26.8099 68.5804 26.7389ZM76.8084 23.3176V20.9398C76.8084 20.795 76.7801 20.6577 76.7393 20.526L78.8631 18.9373V23.3176H76.8084ZM75.9857 19.6598C75.801 19.5728 75.5996 19.5272 75.3954 19.5264H68.8483C68.6655 19.5264 68.492 19.5638 68.3313 19.6275L66.5048 17.9973C70.1201 16.736 74.0474 16.736 78.2067 17.9981L75.9857 19.6598ZM68.3441 28.0546C68.5048 28.1178 68.6757 28.1507 68.8483 28.1516H75.3954C75.5958 28.151 75.7936 28.1074 75.9757 28.0238L78.2682 29.8006C74.5738 31.0518 70.6298 31.0325 66.5176 29.7433L68.3441 28.0546ZM67.2153 12.405H77.6349C78.312 12.405 78.8631 12.956 78.8631 13.6337V17.0034C74.2928 15.5511 69.9685 15.5365 65.9869 16.963V13.6337C65.9869 12.9562 66.5382 12.405 67.2153 12.405ZM77.6349 34.2574H67.2153C66.5382 34.2574 65.9871 33.7063 65.9871 33.0287V30.7774C68.2527 31.5073 70.4739 31.8757 72.6376 31.8757C74.7723 31.8757 76.8514 31.5191 78.8632 30.808V33.0287C78.8632 33.7065 78.3122 34.2574 77.6349 34.2574ZM10.4928 33.028C10.4928 34.3367 11.5573 35.4017 12.8662 35.4017H23.2858C24.5945 35.4017 25.6592 34.3368 25.6592 33.028V13.6328C25.6592 12.3241 24.5947 11.259 23.2858 11.259H12.866C11.5573 11.259 10.4926 12.3239 10.4926 13.6328L10.4928 33.028ZM13.1803 20.4459C13.1196 20.6033 13.0878 20.7704 13.0866 20.9391V23.3134H11.6378V19.0716L13.1803 20.4459ZM22.3868 27.1637C22.4299 27.0285 22.4596 26.8872 22.4596 26.738V24.4581H24.514V28.8143L22.3868 27.1637ZM24.514 23.3131H22.4596V20.9388C22.4596 20.7945 22.4315 20.6575 22.3909 20.5262L24.5138 18.9359V23.3131H24.514ZM21.3146 20.9391V26.738C21.3146 26.8855 21.1943 27.006 21.0462 27.006H14.4994C14.4283 27.0059 14.3602 26.9776 14.31 26.9274C14.2597 26.8771 14.2314 26.809 14.2313 26.738V20.9391C14.2313 20.7917 14.3515 20.6711 14.4994 20.6711H21.046C21.1943 20.6711 21.3146 20.7913 21.3146 20.9391ZM13.0866 24.4581V26.738C13.0866 26.9175 13.1235 27.0874 13.1847 27.2455L11.6378 28.6735V24.4584H13.0866V24.4581ZM13.9968 28.0542C14.1534 28.1143 14.3218 28.1509 14.4995 28.1509H21.0462C21.2466 28.1503 21.4445 28.1067 21.6266 28.0229L23.9172 29.8006C20.2224 31.0524 16.2788 31.0323 12.1678 29.7426L13.9968 28.0542ZM21.6382 19.6601C21.453 19.5726 21.2509 19.5269 21.0462 19.526H14.4994C14.3224 19.5267 14.1472 19.5609 13.9831 19.6269L12.1539 17.9971C15.7696 16.7351 19.6981 16.7344 23.8578 17.9976L21.6382 19.6601ZM23.2858 34.2565H12.866C12.1889 34.2565 11.6378 33.7054 11.6378 33.0278V30.7766C13.9038 31.5066 16.1246 31.8747 18.2883 31.8747C20.4232 31.8747 22.502 31.518 24.514 30.8073V33.0278C24.514 33.7056 23.9629 34.2565 23.2858 34.2565ZM12.866 12.4041H23.2856C23.9627 12.4041 24.514 12.9551 24.514 13.6328V17.0025C19.9433 15.5497 15.6194 15.5349 11.6378 16.9619V13.6328C11.6378 12.9551 12.1887 12.4041 12.866 12.4041ZM80.0083 61.781C80.0083 60.4723 78.9437 59.4076 77.6351 59.4076H67.2155C65.9068 59.4076 64.842 60.4722 64.842 61.781V81.1767C64.842 82.4854 65.9066 83.5501 67.2155 83.5501H77.6351C78.9437 83.5501 80.0083 82.4856 80.0083 81.1767V61.781ZM76.7351 75.3139C76.7785 75.1782 76.8085 75.0362 76.8085 74.886V72.6084H78.8634V76.9604L76.7351 75.3139ZM67.5283 68.5961C67.468 68.7529 67.4364 68.9193 67.4352 69.0874V71.4638H65.9869V67.2209L67.5283 68.5961ZM65.9869 72.6086H67.4352V74.8862C67.4352 75.0659 67.4721 75.2362 67.5336 75.3944L65.9869 76.8221V72.6086ZM68.5804 74.8862V69.0874C68.5804 68.9399 68.7006 68.8193 68.8485 68.8193H75.3956C75.545 68.8193 75.6637 68.9494 75.6637 69.0874V74.8862C75.6637 75.0337 75.5434 75.1543 75.3956 75.1543H68.8485C68.7774 75.1541 68.7093 75.1258 68.6591 75.0756C68.6089 75.0253 68.5806 74.9573 68.5804 74.8862ZM76.8084 71.4636V69.0872C76.8084 68.9432 76.7804 68.807 76.7402 68.676L78.8631 67.0882V71.4636H76.8084ZM75.9878 67.8087C75.8026 67.7211 75.6003 67.6752 75.3954 67.6744H68.8483C68.6703 67.6751 68.4941 67.7097 68.329 67.7762L66.502 66.1458C70.1188 64.8832 74.0484 64.8834 78.2099 66.1469L75.9878 67.8087ZM68.3464 76.2028C68.5064 76.2655 68.6765 76.2981 68.8483 76.2991H75.3954C75.595 76.2986 75.7922 76.2553 75.9737 76.1724L78.2691 77.9483C74.5744 79.2001 70.6298 79.1804 66.5171 77.8912L68.3464 76.2028ZM67.2153 60.5528H77.6349C78.312 60.5528 78.8631 61.1039 78.8631 61.781V65.1507C74.2928 63.6984 69.9685 63.6839 65.9869 65.1103V61.781C65.9869 61.1039 66.5382 60.5528 67.2153 60.5528ZM77.6349 82.4049H67.2153C66.5382 82.4049 65.9871 81.8538 65.9871 81.1766V78.9253C70.3252 80.3228 74.6508 80.4442 78.8632 78.9559V81.1766C78.8632 81.8537 78.3122 82.4049 77.6349 82.4049ZM29.5193 46.8326H19.7835C19.7075 46.8313 19.632 46.8451 19.5614 46.8732C19.4907 46.9014 19.4264 46.9434 19.3722 46.9967C19.318 47.0499 19.2749 47.1135 19.2455 47.1836C19.2161 47.2537 19.201 47.329 19.201 47.405C19.201 47.481 19.2161 47.5563 19.2455 47.6264C19.2749 47.6965 19.318 47.7601 19.3722 47.8134C19.4264 47.8667 19.4907 47.9086 19.5614 47.9368C19.632 47.965 19.7075 47.9788 19.7835 47.9775H29.5193C29.5954 47.9788 29.6709 47.965 29.7415 47.9368C29.8121 47.9086 29.8764 47.8667 29.9306 47.8134C29.9849 47.7601 30.0279 47.6965 30.0573 47.6264C30.0867 47.5563 30.1019 47.481 30.1019 47.405C30.1019 47.329 30.0867 47.2537 30.0573 47.1836C30.0279 47.1135 29.9849 47.0499 29.9306 46.9967C29.8764 46.9434 29.8121 46.9014 29.7415 46.8732C29.6709 46.8451 29.5954 46.8313 29.5193 46.8326ZM50.1181 46.8326H40.3826C40.3066 46.8313 40.2311 46.8451 40.1605 46.8732C40.0898 46.9014 40.0255 46.9434 39.9713 46.9967C39.9171 47.0499 39.874 47.1135 39.8446 47.1836C39.8152 47.2537 39.8001 47.329 39.8001 47.405C39.8001 47.481 39.8152 47.5563 39.8446 47.6264C39.874 47.6965 39.9171 47.7601 39.9713 47.8134C40.0255 47.8667 40.0898 47.9086 40.1605 47.9368C40.2311 47.965 40.3066 47.9788 40.3826 47.9775H50.1181C50.1941 47.9788 50.2696 47.965 50.3402 47.9368C50.4109 47.9086 50.4752 47.8667 50.5294 47.8134C50.5836 47.7601 50.6267 47.6965 50.6561 47.6264C50.6855 47.5563 50.7006 47.481 50.7006 47.405C50.7006 47.329 50.6855 47.2537 50.6561 47.1836C50.6267 47.1135 50.5836 47.0499 50.5294 46.9967C50.4752 46.9434 50.4109 46.9014 50.3402 46.8732C50.2696 46.8451 50.1941 46.8313 50.1181 46.8326ZM60.9817 47.9776H70.7175C70.8694 47.9776 71.015 47.9173 71.1223 47.81C71.2297 47.7026 71.29 47.557 71.29 47.4052C71.29 47.2534 71.2297 47.1078 71.1223 47.0004C71.015 46.8931 70.8694 46.8328 70.7175 46.8328H60.9817C60.8299 46.8328 60.6843 46.8931 60.5769 47.0004C60.4696 47.1078 60.4093 47.2534 60.4093 47.4052C60.4093 47.557 60.4696 47.7026 60.5769 47.81C60.6843 47.9173 60.8299 47.9776 60.9817 47.9776Z" fill="#213357"/>
</svg>
