<svg width="96" height="97" viewBox="0 0 96 97" fill="none" xmlns="http://www.w3.org/2000/svg">
<g clip-path="url(#clip0_1_13685)">
<path d="M96.089 40.5399L90.1899 34.0334C90.1232 33.959 90.0396 33.9019 89.9461 33.8669C89.8526 33.8318 89.752 33.8199 89.6529 33.8322L85.9909 34.2761C85.9884 34.134 85.952 33.9944 85.8576 33.885C85.7992 33.8154 85.7263 33.7596 85.6439 33.7213C85.5616 33.6831 85.4718 33.6634 85.381 33.6636H84.7372L75.7369 30.648L76.5732 26.7069C76.6017 26.5724 76.585 26.4323 76.5257 26.3083C76.4663 26.1844 76.3676 26.0835 76.2449 26.0215L72.5452 24.1453C72.4597 24.1017 72.3652 24.0785 72.2691 24.0777C72.1731 24.0768 72.0782 24.0982 71.9919 24.1402L68.3349 25.9121C68.2097 25.9727 68.1082 26.0735 68.0467 26.1983C67.9852 26.3232 67.9671 26.465 67.9954 26.6013L68.7851 30.3777L58.6732 33.6963C58.6594 33.7014 58.6493 33.7102 58.6367 33.7165C58.6091 33.7278 58.5864 33.7429 58.56 33.758C58.5116 33.7853 58.4672 33.8192 58.428 33.8586C58.4167 33.8699 58.4016 33.8749 58.3903 33.8862C58.3815 33.8963 58.3802 33.9101 58.3726 33.9202C58.3362 33.9692 58.3098 34.022 58.2884 34.0799C58.2808 34.1013 58.2695 34.1189 58.2645 34.1415C58.2428 34.2218 58.2381 34.3058 58.2507 34.388C58.2507 34.3893 58.2519 34.3905 58.2519 34.3918L58.2607 34.4471H58.0218C57.9652 34.4471 57.9086 34.4546 57.8545 34.4697L52.7803 35.8769C52.7112 35.8958 52.647 35.9272 52.5879 35.9687L49.0504 38.47C48.9418 38.5462 48.8603 38.6551 48.8178 38.7809C48.7753 38.9066 48.7741 39.0426 48.8142 39.1691C48.8543 39.2956 48.9337 39.406 49.0409 39.4843C49.148 39.5625 49.2774 39.6046 49.4101 39.6043H53.3852L61.0437 50.9562L61.2788 52.3496C61.3291 52.6501 61.5895 52.8702 61.8938 52.8702H62.3163V55.3526C58.2067 49.4886 51.5643 45.1664 43.7549 43.587C43.7612 43.5568 43.7775 43.5304 43.7788 43.4989L43.7863 43.3267C43.7863 39.6169 40.8261 36.5975 37.1892 36.5975C36.2172 36.5975 35.2778 36.8088 34.4025 37.2263C31.944 38.3971 30.5506 40.7613 30.5947 43.5882C17.4457 46.2517 7.60163 56.7045 7.60163 69.1643C7.60163 69.8006 7.63684 70.4369 7.68966 71.0719C7.65319 71.0745 7.61798 71.0669 7.58151 71.0757C2.64814 72.2679 0.25 73.6776 0.25 75.3866C0.25 77.7508 5.23115 79.529 12.5765 80.6972C12.7073 82.4616 14.3547 83.8801 16.2599 83.8801H16.2737C16.3328 83.8901 22.3401 84.9515 37.5275 84.9515C50.8336 84.9515 58.008 83.8939 58.013 83.8876C60.0012 83.8876 61.6586 82.4666 61.7882 80.6972C67.0271 79.8647 71.0575 78.7204 72.9401 77.2742H85.6602C85.8463 77.2742 86.0236 77.1912 86.1418 77.0466C86.2613 76.9032 86.3091 76.7133 86.2726 76.5297L82.6396 57.9281C82.6117 57.7861 82.5354 57.6582 82.4237 57.5662C82.312 57.4742 82.1718 57.4239 82.0271 57.4238H81.4575V52.8652H82.3252C82.6295 52.8652 82.8886 52.6463 82.9401 52.3458L84.8202 41.2945C85.9997 40.7751 88.4922 39.7703 89.6102 39.7238C90.3559 39.7099 90.5483 40.1878 90.7193 41.1674L90.7533 41.3611C90.6577 41.5799 90.2741 42.093 89.9874 42.474C89.3272 43.3581 88.5765 44.3591 88.3375 45.2759C88.0395 46.4253 88.2985 48.6649 88.4696 49.8433H86.3707C86.1683 49.8433 85.9784 49.9414 85.8614 50.1061L84.4039 52.1647C84.3167 52.2879 84.2773 52.4385 84.2927 52.5886C84.3082 52.7387 84.3777 52.8781 84.4882 52.9809L86.2022 54.5792C86.3179 54.6861 86.4688 54.7465 86.6273 54.7465H90.9985C91.1959 54.7465 91.382 54.6521 91.499 54.4937L92.7842 52.757C92.8282 52.6979 92.8622 52.6313 92.8823 52.5608L96.2236 41.1322C96.2865 40.926 96.2349 40.7009 96.089 40.5399ZM64.5107 52.8664H65.4212L66.9906 54.759L67.5389 54.3038L66.3468 52.8664H67.2396L68.799 54.6043L69.3297 54.1277L68.1979 52.8664H69.0392L70.3546 54.3629L70.8903 53.8926L69.9886 52.8664H80.21V57.425H63.6254C63.6053 57.3898 63.5839 57.3546 63.5638 57.3181V52.8664H63.5827L65.2703 54.8886L65.8186 54.4321L64.5107 52.8664ZM72.3578 51.6189L72.1189 34.9124H81.504L78.3928 51.6189H72.3578ZM71.929 25.5562V26.7924H72.6408V25.5927L75.2527 26.9169L74.5623 30.1714H74.3146L72.085 29.4244C71.9578 29.3813 71.82 29.3809 71.6926 29.4232L69.9773 29.9866L69.3146 26.8226L71.929 25.5562ZM72.1189 30.4519L80.8123 33.6649H62.769L72.1189 30.4519ZM71.4059 34.9124L71.6448 51.6189H65.3017L62.261 34.9124H71.4059ZM54.2341 38.6284C54.1771 38.5437 54.1002 38.4742 54.01 38.4262C53.9199 38.3781 53.8193 38.353 53.7172 38.353H51.3731L53.2192 37.0477L58.1073 35.6921H58.3437L60.5105 47.9305L54.2341 38.6284ZM59.605 34.9124H61.5354L64.5761 51.6189H62.4207L59.605 34.9124ZM34.9382 38.3505C35.641 38.0149 36.4104 37.8417 37.1892 37.8437C40.1218 37.8437 42.5062 40.2758 42.5288 43.3606C42.2961 43.3229 42.0648 43.2826 41.8296 43.2499C41.7894 40.6732 39.727 38.5882 37.1892 38.5882C34.7232 38.5882 32.6998 40.5563 32.5514 43.0336L31.8321 43.1707C31.9251 41.0203 33.0519 39.2497 34.9382 38.3505ZM40.5607 43.099C39.4516 42.9871 38.3261 42.923 37.183 42.923C36.0436 42.923 34.9206 42.9859 33.8127 43.0978C33.9284 41.2806 35.3909 39.8357 37.1892 39.8357C38.9787 39.8357 40.4325 41.2655 40.5607 43.099ZM37.1817 44.1705C52.8042 44.1705 65.513 55.3815 65.513 69.163C65.513 71.0191 65.2766 72.8816 64.8075 74.7038C55.9556 76.3348 46.6624 77.1623 37.1804 77.1623C27.6973 77.1623 18.4052 76.3361 9.5546 74.7038C9.08689 72.8939 8.84943 71.0323 8.84786 69.163C8.85038 55.3815 21.5592 44.1705 37.1817 44.1705ZM57.9463 83.0011C57.8759 83.0124 50.7569 84.0599 37.5275 84.0599C22.442 84.0599 16.49 83.0136 16.3529 82.996C14.9092 82.996 13.7007 82.0504 13.4932 80.8393C20.2098 81.8353 28.7171 82.3446 37.1817 82.3446C45.6463 82.3446 54.1548 81.8353 60.8714 80.8393C60.6652 82.0504 59.4516 82.996 57.9463 83.0011ZM37.1817 81.0959C15.0727 81.0959 1.49749 77.7697 1.49749 75.3853C1.49749 75.1263 1.80559 73.7618 7.81541 72.3018C7.95826 73.3511 8.17127 74.3897 8.45299 75.4105C8.48429 75.5233 8.54661 75.625 8.63287 75.7042C8.71912 75.7833 8.82585 75.8367 8.94092 75.8582C17.9814 77.5508 27.4835 78.4085 37.1817 78.4085C46.8787 78.4085 56.382 77.5496 65.4237 75.8582C65.5388 75.8367 65.6455 75.7833 65.7318 75.7042C65.818 75.625 65.8804 75.5233 65.9117 75.4105C66.1924 74.3899 66.4049 73.3518 66.548 72.3031C72.5591 73.7631 72.8671 75.1263 72.8671 75.3866C72.8671 77.7697 59.2907 81.0959 37.1817 81.0959ZM73.9763 76.0267C74.0593 75.8179 74.1146 75.6054 74.1146 75.3866C74.1146 74.6031 73.5852 73.8851 72.5628 73.2186L72.3553 58.6725L71.6436 58.6826L71.846 72.8049C70.6425 72.1811 68.9801 71.6051 66.7857 71.0757C66.7479 71.0669 66.7114 71.0732 66.675 71.0719C66.7278 70.4356 66.763 69.7993 66.763 69.163C66.763 65.4344 65.8764 61.8881 64.2882 58.6725H78.6204L81.7794 76.0267H73.9763ZM81.5141 58.6725L84.9019 76.0267H82.5025L79.3435 58.6725H81.5141ZM83.6783 40.5776L83.6481 40.7537L81.7995 51.6177H79.1159L82.2271 34.9111H84.6428L83.6783 40.5776ZM91.7191 52.1069L90.6866 53.5015H86.8763L85.7407 52.4426L86.6977 51.092H89.2027C89.3863 51.092 89.5611 51.0103 89.6806 50.8694C89.7391 50.7999 89.7816 50.7183 89.8051 50.6305C89.8286 50.5427 89.8324 50.4508 89.8164 50.3614C89.6479 49.3943 89.2719 46.6541 89.5485 45.5915C89.7246 44.9112 90.4263 43.9755 90.9897 43.2235C91.7191 42.2489 92.1202 41.7132 91.9932 41.1788C91.9781 41.1197 91.9668 41.0429 91.9517 40.9549C91.8297 40.2545 91.4915 38.392 89.5624 38.4788C88.3903 38.5278 86.3405 39.3038 85.0767 39.8294L85.8161 35.5563L89.4844 35.1111L94.9334 41.1197L91.7191 52.1069Z" fill="#213357"/>
<path d="M41.548 60.5853C41.548 60.901 41.6424 61.1856 41.7764 61.4469C41.7596 61.4671 41.7338 61.4935 41.7124 61.5153L40.6053 62.7267L40.3693 61.733C40.2147 61.0923 40.0665 60.45 39.9246 59.8062C40.5871 59.4967 41.053 58.8218 41.053 58.0318C41.053 56.951 40.1926 56.0708 39.1327 56.0708C38.6236 56.0713 38.1355 56.2781 37.7754 56.6457C37.4154 57.0134 37.2129 57.5119 37.2124 58.0318C37.2124 58.6647 37.5277 59.2013 37.9845 59.5605C37.7013 60.2961 37.4211 61.0347 37.1409 61.7719L36.9612 62.2384L36.7373 61.6444C36.4752 60.9601 36.2199 60.2733 35.9713 59.5838C36.1612 59.3986 36.3124 59.1761 36.4161 58.9297C36.5197 58.6833 36.5735 58.4181 36.5744 58.15C36.574 57.6185 36.367 57.1089 35.999 56.733C35.6309 56.3572 35.1319 56.1459 34.6114 56.1454C34.0912 56.1463 33.5925 56.3578 33.2248 56.7336C32.8571 57.1094 32.6504 57.6188 32.65 58.15C32.65 59.0224 33.2074 59.7471 33.9718 60.0208C33.8008 60.7107 33.6343 61.4017 33.4723 62.0938L33.3216 62.7252L32.9713 62.3348C32.7246 62.0596 32.4703 61.7796 32.2008 61.478C32.347 61.2074 32.452 60.9119 32.452 60.5822C32.452 59.5403 31.6221 58.6927 30.6018 58.6927C30.111 58.6929 29.6403 58.892 29.2931 59.2463C28.9459 59.6005 28.7506 60.081 28.75 60.5822C28.75 61.579 29.516 62.3768 30.4754 62.4468C30.4358 62.453 30.4053 62.467 30.3642 62.4717C30.3673 62.481 30.3718 62.4872 30.3749 62.4966L30.8043 63.6613C31.1972 64.7235 31.5901 65.7841 31.9662 66.8524C32.0317 67.0391 32.1231 67.1712 32.2327 67.277V69.2193C32.2327 69.3888 32.4079 69.5708 32.5754 69.5708H41.4231C41.5891 69.5708 41.7673 69.3904 41.7673 69.2193V67.2537C41.7673 67.2335 41.7459 67.2179 41.7414 67.1977C41.8129 67.109 41.8937 67.0375 41.9409 66.9038C42.2159 66.1363 42.4946 65.3701 42.7769 64.6053C43.0306 63.9196 43.2813 63.2327 43.5292 62.5448C43.549 62.4919 43.5825 62.4623 43.6129 62.4281C44.5297 62.3177 45.25 61.551 45.25 60.5853C45.25 59.5434 44.4201 58.6958 43.3982 58.6958C42.9077 58.6964 42.4373 58.8956 42.0904 59.2498C41.7436 59.6041 41.5485 60.0844 41.548 60.5853ZM37.8181 58.0334C37.8188 57.6772 37.9576 57.3358 38.2042 57.084C38.4508 56.8321 38.7851 56.6904 39.1339 56.6897C39.8603 56.6897 40.4496 57.2931 40.4496 58.0334C40.4496 58.7736 39.8588 59.3754 39.1339 59.3754C38.7853 59.3751 38.451 59.2337 38.2044 58.9821C37.9577 58.7305 37.8189 58.3893 37.8181 58.0334ZM33.2546 58.1531C33.2546 57.388 33.8637 56.7644 34.6129 56.7644C35.3622 56.7644 35.9728 57.3864 35.9728 58.1531C35.9728 58.9167 35.3637 59.5403 34.6129 59.5403C34.2529 59.5395 33.9079 59.393 33.6533 59.1331C33.3987 58.8731 33.2554 58.5208 33.2546 58.1531ZM30.6014 61.859C30.2707 61.8585 29.9537 61.7242 29.7199 61.4855C29.4861 61.2467 29.3546 60.923 29.3542 60.5853C29.3547 60.2478 29.4863 59.9243 29.7201 59.6858C29.954 59.4473 30.2709 59.3133 30.6014 59.3132C30.9316 59.3136 31.2483 59.4478 31.4818 59.6863C31.7153 59.9247 31.8467 60.2481 31.8471 60.5853C31.8471 60.9228 31.7159 61.2466 31.4823 61.4854C31.2488 61.7242 30.9319 61.8585 30.6014 61.859ZM41.1623 68.9565H32.8369V67.5243H41.1623V68.9565ZM43.3978 59.3132C43.7283 59.3133 44.0453 59.4473 44.2791 59.6858C44.5129 59.9243 44.6445 60.2478 44.645 60.5853C44.6448 60.923 44.5134 61.2469 44.2795 61.4857C44.0457 61.7245 43.7286 61.8588 43.3978 61.859C43.0674 61.8584 42.7506 61.724 42.517 61.4853C42.2835 61.2465 42.1523 60.9228 42.1522 60.5853C42.1527 60.2481 42.2841 59.9248 42.5176 59.6864C42.7511 59.4479 43.0676 59.3137 43.3978 59.3132ZM42.1388 61.9554C42.3612 62.1684 42.6414 62.3022 42.9459 62.383C42.7035 63.0536 42.4588 63.7234 42.2119 64.3922C41.9284 65.1585 41.6487 65.9262 41.3728 66.6954C41.3089 66.8742 41.2739 66.9053 41.0972 66.9053H41.0805C38.3607 66.8898 35.6409 66.8882 32.918 66.9069H32.9089C32.6683 66.9069 32.615 66.868 32.5358 66.6441C32.1565 65.5744 31.7682 64.508 31.3708 63.4452L30.984 62.3955C31.3008 62.3255 31.5901 62.1933 31.8246 61.9787L32.5266 62.7532L33.0307 63.3114C33.0764 63.3612 33.1282 63.4063 33.1906 63.4592L33.2789 63.5354C33.3166 63.5697 33.3624 63.5935 33.4118 63.6044C33.4611 63.6153 33.5124 63.6129 33.5607 63.5976C33.6088 63.5838 33.6529 63.5579 33.6888 63.5224C33.7247 63.4868 33.7513 63.4426 33.7662 63.3939L33.7982 63.2912C33.8302 63.1933 33.853 63.1139 33.8728 63.0331L34.0617 62.2384C34.2261 61.5402 34.3921 60.8419 34.5657 60.1437C34.5825 60.1437 34.5962 60.153 34.6129 60.153C34.9129 60.153 35.1901 60.0721 35.4444 59.9477C35.6896 60.5869 35.9332 61.2276 36.1754 61.8667L36.5713 62.9071C36.5926 62.9646 36.6185 63.0191 36.6536 63.0813L36.6901 63.1497C36.7358 63.243 36.8454 63.2788 36.9459 63.2897C37.0556 63.313 37.1683 63.2337 37.2322 63.1513C37.2627 63.1155 37.2992 63.0673 37.3251 63.0004L37.7089 61.9943C37.9777 61.2827 38.2488 60.572 38.5221 59.8622C38.717 59.9306 38.9195 59.9897 39.1373 59.9897C39.2043 59.9897 39.2607 59.957 39.3246 59.9508L39.3261 59.9586C39.4815 60.5962 39.6338 61.2369 39.786 61.8761L40.086 63.1342C40.1074 63.2181 40.1409 63.2866 40.1759 63.3519L40.2185 63.4421C40.2612 63.5354 40.3464 63.6007 40.4454 63.6147C40.5429 63.6225 40.6434 63.5929 40.7135 63.5183L42.0749 62.0191L42.1312 61.9632L42.1388 61.9554Z" fill="#213357"/>
<path d="M12.4143 62.6628C12.5237 62.7078 12.6464 62.7074 12.7556 62.6619C12.8648 62.6164 12.9514 62.5295 12.9965 62.4201C14.2138 59.4573 16.0398 56.7536 18.2782 54.5994C18.4555 54.4284 18.4606 54.1467 18.2895 53.9694C18.2074 53.8846 18.0951 53.8357 17.9771 53.8334C17.8591 53.831 17.7449 53.8754 17.6595 53.9568C15.333 56.1965 13.4367 59.0059 12.1716 62.0806C12.0772 62.3082 12.1867 62.5685 12.4143 62.6628ZM20.416 52.6829C20.5066 52.6829 20.5984 52.6553 20.6776 52.5987C24.6666 49.7113 29.6226 48.1205 34.6351 48.1205H34.6377C34.753 48.1162 34.8622 48.0673 34.9422 47.9842C35.0223 47.9011 35.067 47.7902 35.067 47.6747C35.067 47.5593 35.0223 47.4484 34.9422 47.3653C34.8622 47.2821 34.753 47.2333 34.6377 47.2289H34.6351C29.4377 47.2289 24.2943 48.8788 20.1545 51.8756C20.0784 51.931 20.0217 52.009 19.9926 52.0986C19.9636 52.1881 19.9635 52.2845 19.9925 52.3741C20.0215 52.4636 20.0781 52.5417 20.1542 52.5972C20.2303 52.6527 20.3219 52.6827 20.416 52.6829ZM36.9553 33.3984C37.0817 33.5051 37.2399 33.5668 37.4052 33.5739C37.5704 33.5809 37.7333 33.5329 37.8683 33.4374C38.0033 33.3421 38.103 33.2049 38.1519 33.047C38.2008 32.8892 38.1962 32.7196 38.1387 32.5647L38.0519 32.3308C38.0259 32.2649 37.9953 32.201 37.9601 32.1396C37.8406 31.9195 37.4772 31.2518 37.4785 29.6119L37.4772 29.1693C37.4697 27.332 37.4634 26.004 38.9775 24.3265C39.1774 24.1064 39.5056 23.7945 39.8867 23.4323C41.6108 21.7925 44.4956 19.0473 44.3975 16.4177C44.3585 15.3752 43.8744 14.466 42.9576 13.7165C41.4661 12.4829 39.2088 12.205 39.1133 12.1949C38.9475 12.1753 38.78 12.2116 38.6374 12.2982C38.4947 12.3848 38.3851 12.5167 38.326 12.6728C38.2667 12.8286 38.2612 12.9998 38.3105 13.1591C38.3597 13.3184 38.4608 13.4566 38.5977 13.5518C38.6819 13.6109 40.5959 14.9816 39.825 16.4077C39.527 16.9585 38.8995 17.6237 38.1714 18.3934C36.48 20.1828 34.1636 22.6351 33.8919 26.0933C33.8894 26.1197 33.8894 26.1461 33.8894 26.1725C34.0189 30.8758 36.8359 33.2978 36.9553 33.3984ZM40.4827 16.7636C41.5881 14.7188 39.0252 12.9381 39.0252 12.9381C39.0252 12.9381 41.1417 13.1858 42.4823 14.2963C46.2348 17.3684 39.8691 22.2339 38.4204 23.8247C36.5831 25.8594 36.729 27.493 36.7277 29.6119C36.7264 31.7309 37.2949 32.4414 37.3489 32.5936L37.4357 32.8275C37.4357 32.8275 34.7571 30.574 34.6364 26.1524C35.0024 21.5083 39.3774 18.8071 40.4827 16.7636ZM24.6791 37.7382C24.8097 37.8377 24.9693 37.8916 25.1334 37.8915C25.2975 37.8914 25.4571 37.8375 25.5875 37.7379C25.718 37.6383 25.8121 37.4986 25.8554 37.3403C25.8987 37.182 25.8888 37.0138 25.8273 36.8617L25.7481 36.6655C25.7214 36.6032 25.6898 36.5431 25.6537 36.4857C25.5494 36.3109 25.2337 35.7815 25.2387 34.4548V34.0825C25.2362 32.5257 25.2337 31.4958 26.5919 30.1263C26.7843 29.9339 27.0785 29.6811 27.4256 29.3793C29.1346 27.8966 31.7189 25.657 31.6334 23.3783C31.5994 22.454 31.1392 21.6554 30.2652 21.0053C28.8869 19.9678 26.8069 19.7402 26.7189 19.7314C26.551 19.7141 26.3821 19.754 26.2397 19.8446C26.0973 19.9352 25.9896 20.0712 25.9342 20.2306C25.821 20.5588 25.9467 20.9223 26.241 21.1084C26.2838 21.1361 27.9601 22.2377 27.33 23.2953C27.0634 23.7442 26.4887 24.2975 25.8235 24.9389C24.2491 26.4568 22.0936 28.5342 21.8308 31.4907C21.8281 31.5196 21.8272 31.5485 21.8283 31.5775C21.9364 35.5928 24.5672 37.6527 24.6791 37.7382ZM27.9739 23.6776C28.995 21.9623 26.6434 20.4759 26.6434 20.4759C26.6434 20.4759 28.5901 20.6783 29.82 21.6051C33.2632 24.1705 27.398 28.2613 26.0624 29.5981C24.3673 31.3071 24.498 32.6753 24.4918 34.451C24.4855 36.2266 25.0061 36.8202 25.0564 36.9472L25.1356 37.1421C25.1356 37.1421 22.6784 35.2609 22.5765 31.5561C22.9211 27.6665 26.9515 25.3929 27.9739 23.6776ZM42.7287 31.5008C42.8381 35.5161 45.4689 37.576 45.5808 37.6615C45.7114 37.761 45.871 37.8149 46.0351 37.8148C46.1992 37.8147 46.3588 37.7607 46.4892 37.6612C46.6197 37.5616 46.7138 37.4219 46.7571 37.2636C46.8004 37.1053 46.7906 36.9371 46.729 36.785L46.6498 36.5888C46.6231 36.5265 46.5915 36.4664 46.5554 36.409C46.4511 36.2342 46.1354 35.7048 46.1405 34.378V34.0058C46.1379 32.449 46.1354 31.419 47.4936 30.0496C47.6847 29.8572 47.979 29.6044 48.3273 29.3026C50.0363 27.8199 52.6206 25.5802 52.5351 23.3016C52.5011 22.3773 52.0409 21.5787 51.1669 20.9286C49.7886 19.8911 47.7086 19.6635 47.6206 19.6547C47.4527 19.6374 47.2838 19.6772 47.1414 19.7679C46.999 19.8585 46.8913 19.9945 46.8359 20.1539C46.7807 20.3131 46.7809 20.4862 46.8363 20.6453C46.8918 20.8044 46.9993 20.9401 47.1415 21.0304C47.1591 21.0417 48.8656 22.1522 48.2305 23.2173C47.9639 23.6663 47.3892 24.2196 46.724 24.8609C45.1495 26.3788 42.9941 28.4563 42.7312 31.4128C42.7285 31.442 42.7277 31.4714 42.7287 31.5008ZM48.8744 23.6009C49.8955 21.8856 47.5439 20.3991 47.5439 20.3991C47.5439 20.3991 49.4906 20.6016 50.7204 21.5284C54.1636 24.0938 48.2984 28.1846 46.9629 29.5214C45.2677 31.2304 45.3985 32.5986 45.3922 34.3743C45.3859 36.1499 45.9066 36.7435 45.9569 36.8705L46.0361 37.0654C46.0361 37.0654 43.5788 35.1841 43.477 31.4794C43.8228 27.5885 47.8532 25.3162 48.8744 23.6009Z" fill="#213357"/>
</g>
<defs>
<clipPath id="clip0_1_13685">
<rect width="96" height="96" fill="white" transform="translate(0.25 0.570801)"/>
</clipPath>
</defs>
</svg>
