<svg width="96" height="97" viewBox="0 0 96 97" fill="none" xmlns="http://www.w3.org/2000/svg">
<path d="M53.3724 34.5885V22.2634C53.3499 22.2889 53.3379 22.2979 53.3063 22.337C52.6679 19.7187 43.7782 19.6166 42.5329 22.0426L42.3812 22.1943V24.8876C42.2096 24.6754 42.0292 24.4704 41.8404 24.2732C41.7398 24.1681 41.6497 24.0735 41.5851 23.9999C41.1435 23.4921 40.6132 23.2563 40.14 23.3539C39.8306 23.417 39.6038 23.6303 39.5587 23.8932C39.5332 24.0449 39.5737 24.1816 39.6053 24.2702C39.7269 24.6142 40.143 24.9297 40.5982 25.185C39.9898 25.176 39.4475 25.2542 39.3514 25.6898C39.2402 26.1945 39.4085 26.4934 39.5707 26.6541C39.8156 26.899 40.1851 26.9666 40.442 26.9666C40.5321 26.9666 40.6072 26.9591 40.6613 26.9471C41.1149 26.8434 41.875 26.3763 42.3812 26.0052V26.3928C41.0038 27.611 39.9267 29.1087 39.416 30.5958C38.6619 32.8024 38.6018 34.5825 38.9653 36.0501C37.9931 36.602 37.0856 37.261 36.26 38.0149V31.6202C36.26 28.2735 33.4555 21.1548 26.828 18.6042V10.9763C26.8235 10.9823 26.8175 10.9868 26.813 10.9928C26.7409 10.1321 25.5016 9.58078 23.9169 9.33142C23.8523 8.14022 23.8327 6.79731 24.4411 6.15889C24.701 5.8855 25.069 5.75181 25.5647 5.75181H25.6113C26.1731 5.75181 27.6437 5.59859 28.234 5.53701C29.296 5.42585 29.9329 4.78593 29.9375 3.82907C29.9435 2.8677 29.3111 2.22778 28.249 2.11662C27.9937 2.08959 27.7338 2.09409 27.4754 2.0971L27.1915 2.1001C25.9568 2.1001 24.7205 2.1031 23.4857 2.10761C20.4499 2.11963 17.3179 2.12864 14.2325 2.07306C12.4405 2.04001 10.8212 2.36898 9.3055 3.07649C8.63405 3.39044 7.92654 3.67435 7.24306 3.94924C6.59263 4.20911 5.9422 4.47048 5.3068 4.7619C4.36195 5.19602 3.99242 6.0898 4.38749 6.98658C4.77504 7.85932 5.61774 8.19881 6.63619 7.88936C7.32718 7.68207 7.84993 7.45074 8.31709 7.23443C12.7334 4.99173 17.4997 5.57907 17.7536 5.58507C18.9237 5.61211 19.5411 5.65117 19.7184 6.19645C19.8746 6.68164 19.9136 8.20031 19.9001 9.32391C18.6443 9.51318 17.5958 9.88722 17.1542 10.455L16.8973 10.7119V18.4194C9.63147 20.8739 7.09435 28.6175 7.09435 31.6172V91.706C7.09435 94.3993 18.2583 94.6096 21.6787 94.6096C24.378 94.6096 31.8737 94.4729 34.9261 93.094C37.8462 94.3963 42.8754 95.0708 47.8806 95.0708C55.5821 95.0708 63.3782 93.483 63.3782 90.4487V46.3127C63.3737 40.9576 59.2067 36.3925 53.3724 34.5885ZM40.5381 26.4063C40.4495 26.4243 40.113 26.4138 39.9583 26.2591C39.9252 26.226 39.8216 26.1209 39.8817 25.828C39.9477 25.7604 40.1716 25.7378 40.4374 25.7378C40.7619 25.7378 41.1435 25.7694 41.3628 25.7889C41.4754 25.7979 41.5836 25.8069 41.6842 25.8144C41.2666 26.0893 40.7995 26.3477 40.5381 26.4063ZM40.125 24.0855C40.101 24.0194 40.101 23.9923 40.1025 23.9848C40.1055 23.9638 40.161 23.9157 40.2497 23.8977C40.2857 23.89 40.3225 23.886 40.3593 23.8857C40.7093 23.8857 41.0338 24.2117 41.1645 24.3634C41.2336 24.4415 41.3282 24.5436 41.4364 24.6563C41.5821 24.808 41.7683 25.0048 41.9171 25.185C41.1825 24.9162 40.2422 24.4145 40.125 24.0855ZM47.8761 21.3185C50.625 21.3185 52.3074 22.1687 52.3074 22.6314C52.3074 23.0941 50.625 23.9443 47.8761 23.9443C45.1271 23.9443 43.4462 23.0941 43.4462 22.6314C43.4462 22.1687 45.1256 21.3185 47.8761 21.3185ZM43.4447 24.0915C44.4977 24.6954 46.1907 25.0093 47.8746 25.0093C49.56 25.0093 51.2529 24.6969 52.3059 24.0915V25.3338C51.7125 25.9196 50.0662 26.4423 47.8746 26.4423C45.6844 26.4423 44.0381 25.9211 43.4447 25.3353V24.0915ZM43.4447 26.0263C44.4331 26.6572 46.1801 26.9951 47.8746 26.9951C49.5705 26.9951 51.319 26.6572 52.3059 26.0263L52.3074 34.9956C52.2248 35.275 50.7392 36.0065 47.8746 36.0065C45.0115 36.0065 43.5243 35.275 43.4447 35.0046V26.0263ZM39.9402 30.776C40.3729 29.5097 41.2501 28.2314 42.3797 27.1408V34.581C41.3738 34.8894 40.3987 35.2907 39.4671 35.7797C39.1666 34.4277 39.2523 32.7919 39.9402 30.776ZM23.9139 5.65868C23.0246 6.59452 23.1282 8.34902 23.2094 9.75803C23.2244 9.99988 23.2379 10.2342 23.2454 10.452C23.1132 10.5497 22.6355 10.7089 21.9085 10.7089C21.1935 10.7089 20.7203 10.5557 20.5791 10.458C20.6422 9.70546 20.6737 6.82284 20.4033 5.98014C20.3657 5.86162 20.3159 5.74734 20.2546 5.63915H23.9454C23.9379 5.64666 23.9244 5.64816 23.9139 5.65868ZM19.84 5.20954V5.21104C19.3774 4.92864 18.6939 4.91662 17.7671 4.86405C16.3325 4.78143 11.9102 4.64173 7.97611 6.59452C7.56302 6.81233 7.06881 7.0031 6.42439 7.19688C5.96023 7.33958 5.34285 7.36061 5.04693 6.69516C4.81259 6.1649 5.02139 5.68872 5.60572 5.42134C6.23062 5.13593 6.87053 4.87907 7.51044 4.6222C8.20293 4.3443 8.91945 4.05739 9.61044 3.73293C11.021 3.07349 12.5321 2.76705 14.216 2.79559C17.3074 2.85267 20.4439 2.84066 23.4857 2.83014C24.719 2.82564 25.9553 2.82113 27.187 2.82113L27.4845 2.81813C27.7158 2.81512 27.9456 2.80911 28.1694 2.83315C28.6456 2.88272 29.2134 3.09452 29.2089 3.82156C29.2074 4.40589 28.8529 4.73937 28.1199 4.81748C27.6257 4.86855 26.131 5.02478 25.6098 5.02478H25.5602C25.1937 5.02478 24.8722 5.09237 24.5868 5.20954H19.84ZM19.8746 10.1801C19.8671 10.3228 19.8581 10.4385 19.8491 10.5136C19.8491 11.1911 20.9591 11.4314 21.91 11.4314C22.8609 11.4314 23.9709 11.1911 23.9709 10.5136L23.9289 10.4565L23.9709 10.455C23.9679 10.3724 23.9619 10.2778 23.9574 10.1906C25.2538 10.434 25.9583 10.8471 25.9583 11.0679C25.9583 11.3894 24.5673 12.1404 21.8709 12.1404C19.1761 12.1404 17.7851 11.3894 17.7851 11.0679C17.7866 10.8426 18.5257 10.4205 19.8746 10.1801ZM17.9594 15.7306C18.8051 16.2668 20.2201 16.6123 21.8589 16.6123C23.4993 16.6123 24.9143 16.2668 25.7615 15.7306V20.6786L25.7765 21.0542C25.6083 21.3336 24.1557 21.8338 21.8604 21.8338C19.5667 21.8338 18.1141 21.3336 17.9594 21.1202V15.7306ZM17.9579 15.2018V12.2861C18.9117 12.7518 20.3913 12.9952 21.8709 12.9952C23.3385 12.9952 24.8046 12.7548 25.76 12.2967V15.2018C25.1036 15.7396 23.687 16.1872 21.8574 16.1872C20.0323 16.1872 18.6158 15.7396 17.9579 15.2018ZM21.6742 93.1225C14.3001 93.1225 9.36409 92.2227 8.57997 91.5678V31.6202C8.57997 28.6565 11.0525 22.3805 16.8928 20.0522V21.1202C16.8928 22.8492 21.3512 22.8988 21.8589 22.8988C22.3682 22.8988 26.8265 22.8492 26.8265 21.1202V20.1889C32.7345 22.7651 34.7684 29.4151 34.7684 31.6187V39.6192C33.2557 41.5569 32.3769 43.8522 32.3769 46.3112V90.4502C32.3769 91.0661 32.7119 91.6189 33.2872 92.1146C31.1842 92.6343 27.0999 93.1225 21.6742 93.1225ZM61.8851 90.4532H61.8836C61.8836 91.5167 56.94 93.5837 47.8761 93.5837C38.8121 93.5837 33.8686 91.5152 33.8686 90.4532V46.3127C33.8686 42.6955 36.0842 39.487 39.4896 37.4681C41.0143 40.4574 44.5488 41.7762 46.8351 42.6219C47.3789 42.8232 47.849 42.9975 48.2095 43.1612C49.1679 43.5998 50.284 44.4215 50.1563 45.8531C50.1248 46.203 49.9941 46.5921 49.8168 46.9947C49.0643 46.6973 48.2876 46.5065 47.49 46.4945C47.454 46.4945 47.4194 46.493 47.3834 46.493C42.3016 46.493 38.0746 52.503 37.9364 59.9612C37.8523 64.4721 39.2913 68.7052 41.7834 71.2843C43.3035 72.8556 45.1031 73.7028 46.9913 73.7343C47.0258 73.7343 47.0619 73.7358 47.0965 73.7358C52.1797 73.7358 56.4082 67.7258 56.5449 60.2676C56.6291 55.7567 55.19 51.5236 52.6979 48.9445C51.9679 48.1889 51.1703 47.6106 50.3306 47.2005C50.5258 46.7483 50.6716 46.3112 50.7091 45.9041C50.8308 44.5357 50.0256 43.3835 48.4394 42.661C48.0608 42.4883 47.5831 42.311 47.0289 42.1052C44.6975 41.243 41.3718 40.0007 39.9688 37.1917C40.9106 36.6833 41.9023 36.2731 42.928 35.9674C43.8774 36.72 45.9278 37.0745 47.8776 37.0745C49.8304 37.0745 51.8838 36.72 52.8316 35.9659C58.1162 37.5522 61.8851 41.59 61.8851 46.3172V90.4532ZM47.7424 50.2558C47.7964 50.3084 47.8655 50.3339 47.9361 50.3339C48.0106 50.3337 48.0819 50.304 48.1344 50.2513C48.4228 49.9554 48.6602 49.6715 48.902 49.3861C48.9831 49.5183 49.0387 49.6625 49.0357 49.8202C49.0339 49.9292 49.0103 50.0367 48.9665 50.1366C48.9226 50.2364 48.8594 50.3264 48.7804 50.4015C48.6192 50.5545 48.4044 50.6381 48.1823 50.6344C47.9601 50.6308 47.7482 50.5402 47.5922 50.382C47.5159 50.3041 47.456 50.2118 47.416 50.1104C47.376 50.009 47.3567 49.9006 47.3593 49.7917C47.3638 49.5709 47.454 49.3636 47.6147 49.2103C47.7718 49.0595 47.9813 48.9755 48.199 48.976C48.2937 48.976 48.3868 49 48.4784 49.0316C48.2471 49.305 48.0173 49.5784 47.7409 49.8608C47.7148 49.8867 47.6941 49.9175 47.68 49.9515C47.6659 49.9854 47.6587 50.0219 47.6589 50.0586C47.659 50.0954 47.6665 50.1318 47.6808 50.1656C47.6951 50.1995 47.7161 50.2301 47.7424 50.2558ZM48.7623 48.7011C48.2952 48.4668 47.7168 48.5224 47.3188 48.9054C47.1987 49.0192 47.1026 49.1558 47.0361 49.3072C46.9695 49.4586 46.9339 49.6218 46.9312 49.7872C46.9252 50.1221 47.0499 50.4406 47.2842 50.6809C47.4028 50.8016 47.5443 50.8973 47.7003 50.9626C47.8564 51.0278 48.0239 51.0613 48.193 51.061C48.5085 51.061 48.8254 50.9438 49.0703 50.711C49.1902 50.5971 49.2862 50.4605 49.3527 50.3091C49.4193 50.1577 49.455 49.9946 49.4578 49.8292C49.4623 49.5453 49.3557 49.2855 49.1859 49.0631C49.4864 48.6846 49.7417 48.3181 49.9535 47.9621C50.7046 48.3301 51.4211 48.8528 52.0821 49.5348C54.4194 51.9548 55.7668 55.961 55.6887 60.2496C55.5595 67.2451 51.714 72.8826 47.0919 72.8826H46.9988C45.3404 72.8556 43.7482 72.0985 42.3902 70.6925C40.0514 68.2726 38.704 64.2663 38.7821 59.9777C38.9128 52.9822 42.7583 47.3447 47.3789 47.3447H47.472C48.1389 47.3552 48.7909 47.5159 49.4248 47.7578C49.2232 48.0853 49.002 48.4004 48.7623 48.7011ZM87.0099 85.4946L91.7687 30.4486V30.0595C91.7687 28.326 90.3597 26.917 88.6262 26.917H67.3348C65.4752 26.917 63.9625 28.4297 63.9625 30.2893V30.4501L68.7213 85.4961H70.5224V87.0283H67.9868V90.9715C67.9868 92.9528 69.5986 94.5646 71.5799 94.5646H84.1544C86.1342 94.5646 87.7475 92.9528 87.7475 90.9715V87.0268H85.2119V85.4946H87.0099ZM88.8696 28.4552C89.6612 28.5769 90.2786 29.2333 90.2786 30.058V30.4471H88.1876L88.8696 28.4552ZM88.437 28.4072L87.7385 30.4486H85.4657L86.3174 28.4072H88.437ZM85.8563 28.4072L85.0046 30.4486H82.9692L83.6646 28.4072H85.8563ZM83.2155 28.4072L82.52 30.4486H80.4741L81.1726 28.4072H83.2155ZM80.725 28.4072L80.0265 30.4486H77.7522L78.6039 28.4072H80.725ZM78.1428 28.4072L77.2911 30.4486H74.9943L75.8865 28.4072H78.1428ZM75.4224 28.4072L74.5301 30.4486H72.7621L73.4606 28.4072H75.4224ZM73.0114 28.4072L72.3129 30.4486H70.0402L70.8919 28.4072H73.0114ZM70.4293 28.4072L69.5775 30.4486H67.3303L68.1866 28.4072H70.4293ZM65.4511 30.2878H65.4527C65.4534 29.789 65.6521 29.3109 66.0049 28.9583C66.3577 28.6058 66.836 28.4075 67.3348 28.4072H67.7239L66.8677 30.4486H65.4511V30.2878ZM86.2543 88.5169V90.9699C86.2543 92.1296 85.311 93.073 84.1528 93.073H71.5784C71.0211 93.0721 70.4868 92.8502 70.0929 92.4559C69.6989 92.0617 69.4774 91.5273 69.4769 90.9699V88.5169H86.2543ZM71.3726 87.0268V85.4946H84.3586V87.0268H71.3726ZM70.0853 84.0045L65.5067 31.9387H90.2245L85.646 84.0045H70.0853Z" fill="#213357"/>
<path d="M26.798 33.1621C26.798 33.4778 26.8924 33.7624 27.0264 34.0236C27.0096 34.0439 26.9838 34.0703 26.9624 34.0921L25.8553 35.3035L25.6193 34.3098C25.4647 33.6691 25.3165 33.0268 25.1746 32.383C25.8371 32.0735 26.303 31.3986 26.303 30.6086C26.303 29.5278 25.4426 28.6476 24.3827 28.6476C23.8736 28.6481 23.3855 28.8549 23.0254 29.2225C22.6654 29.5902 22.4629 30.0887 22.4624 30.6086C22.4624 31.2415 22.7777 31.778 23.2345 32.1373C22.9513 32.8728 22.6711 33.6115 22.3909 34.3487L22.2112 34.8152L21.9873 34.2211C21.7252 33.5369 21.4699 32.85 21.2213 32.1606C21.4112 31.9754 21.5624 31.7529 21.6661 31.5065C21.7697 31.2601 21.8235 30.9949 21.8244 30.7268C21.824 30.1953 21.617 29.6856 21.249 29.3098C20.8809 28.934 20.3819 28.7226 19.8614 28.7222C19.3412 28.7231 18.8425 28.9346 18.4748 29.3104C18.1071 29.6861 17.9004 30.1955 17.9 30.7268C17.9 31.5992 18.4574 32.3239 19.2218 32.5976C19.0508 33.2874 18.8843 33.9785 18.7223 34.6706L18.5716 35.3019L18.2213 34.9116C17.9746 34.6364 17.7203 34.3564 17.4508 34.0547C17.597 33.7841 17.702 33.4887 17.702 33.159C17.702 32.1171 16.8721 31.2695 15.8518 31.2695C15.361 31.2697 14.8903 31.4688 14.5431 31.8231C14.1959 32.1773 14.0006 32.6578 14 33.159C14 34.1558 14.766 34.9536 15.7254 35.0236C15.6858 35.0298 15.6553 35.0438 15.6142 35.0485C15.6173 35.0578 15.6218 35.064 15.6249 35.0733L16.0543 36.2381C16.4472 37.3003 16.8401 38.3609 17.2162 39.4292C17.2817 39.6158 17.3731 39.748 17.4827 39.8538V41.7961C17.4827 41.9656 17.6579 42.1476 17.8254 42.1476H26.6731C26.8391 42.1476 27.0173 41.9672 27.0173 41.7961V39.8305C27.0173 39.8102 26.9959 39.7947 26.9914 39.7745C27.0629 39.6858 27.1437 39.6143 27.1909 39.4806C27.4659 38.713 27.7446 37.9469 28.0269 37.1821C28.2806 36.4964 28.5313 35.8095 28.7792 35.1215C28.799 35.0687 28.8325 35.0391 28.8629 35.0049C29.7797 34.8945 30.5 34.1278 30.5 33.1621C30.5 32.1202 29.6701 31.2726 28.6482 31.2726C28.1577 31.2731 27.6873 31.4724 27.3404 31.8266C26.9936 32.1808 26.7985 32.6611 26.798 33.1621ZM23.0681 30.6101C23.0688 30.254 23.2076 29.9126 23.4542 29.6607C23.7008 29.4089 24.0351 29.2671 24.3839 29.2665C25.1103 29.2665 25.6996 29.8699 25.6996 30.6101C25.6996 31.3504 25.1088 31.9522 24.3839 31.9522C24.0353 31.9519 23.701 31.8105 23.4544 31.5589C23.2077 31.3073 23.0689 30.9661 23.0681 30.6101ZM18.5046 30.7299C18.5046 29.9648 19.1137 29.3412 19.8629 29.3412C20.6122 29.3412 21.2228 29.9632 21.2228 30.7299C21.2228 31.4935 20.6137 32.1171 19.8629 32.1171C19.5029 32.1162 19.1579 31.9698 18.9033 31.7099C18.6487 31.4499 18.5054 31.0975 18.5046 30.7299ZM15.8514 34.4357C15.5207 34.4353 15.2037 34.301 14.9699 34.0622C14.7361 33.8235 14.6046 33.4998 14.6042 33.1621C14.6047 32.8246 14.7363 32.5011 14.9701 32.2626C15.204 32.0241 15.5209 31.8901 15.8514 31.89C16.1816 31.8904 16.4983 32.0246 16.7318 32.263C16.9653 32.5015 17.0967 32.8248 17.0971 33.1621C17.0971 33.4996 16.9659 33.8233 16.7323 34.0622C16.4988 34.301 16.1819 34.4353 15.8514 34.4357ZM26.4123 41.5333H18.0869V40.101H26.4123V41.5333ZM28.6478 31.89C28.9783 31.8901 29.2953 32.0241 29.5291 32.2626C29.7629 32.5011 29.8945 32.8246 29.895 33.1621C29.8948 33.4998 29.7634 33.8237 29.5295 34.0625C29.2957 34.3013 28.9786 34.4355 28.6478 34.4357C28.3174 34.4352 28.0006 34.3008 27.767 34.062C27.5335 33.8232 27.4023 33.4996 27.4022 33.1621C27.4027 32.8249 27.5341 32.5016 27.7676 32.2632C28.0011 32.0247 28.3176 31.8905 28.6478 31.89ZM27.3888 34.5322C27.6112 34.7452 27.8914 34.8789 28.1959 34.9598C27.9535 35.6304 27.7088 36.3002 27.4619 36.969C27.1784 37.7353 26.8987 38.503 26.6228 39.2722C26.5589 39.451 26.5239 39.4821 26.3472 39.4821H26.3305C23.6107 39.4666 20.8909 39.465 18.168 39.4837H18.1589C17.9183 39.4837 17.865 39.4448 17.7858 39.2208C17.4065 38.1511 17.0182 37.0848 16.6208 36.022L16.234 34.9723C16.5508 34.9023 16.8401 34.7701 17.0746 34.5555L17.7766 35.3299L18.2807 35.8882C18.3264 35.938 18.3782 35.9831 18.4406 36.036L18.5289 36.1122C18.5666 36.1465 18.6124 36.1703 18.6618 36.1812C18.7111 36.1921 18.7624 36.1897 18.8107 36.1744C18.8588 36.1606 18.9029 36.1347 18.9388 36.0991C18.9747 36.0636 19.0013 36.0194 19.0162 35.9706L19.0482 35.868C19.0802 35.77 19.103 35.6907 19.1228 35.6099L19.3117 34.8152C19.4761 34.1169 19.6421 33.4187 19.8157 32.7204C19.8325 32.7204 19.8462 32.7298 19.8629 32.7298C20.1629 32.7298 20.4401 32.6489 20.6944 32.5245C20.9396 33.1637 21.1832 33.8044 21.4254 34.4435L21.8213 35.4839C21.8426 35.5414 21.8685 35.5959 21.9036 35.6581L21.9401 35.7265C21.9858 35.8198 22.0954 35.8556 22.1959 35.8665C22.3056 35.8898 22.4183 35.8105 22.4822 35.728C22.5127 35.6923 22.5492 35.6441 22.5751 35.5772L22.9589 34.571C23.2277 33.8595 23.4988 33.1488 23.7721 32.439C23.967 32.5074 24.1695 32.5665 24.3873 32.5665C24.4543 32.5665 24.5107 32.5338 24.5746 32.5276L24.5761 32.5354C24.7315 33.173 24.8838 33.8137 25.036 34.4528L25.336 35.7109C25.3574 35.7949 25.3909 35.8633 25.4259 35.9287L25.4685 36.0189C25.5112 36.1122 25.5964 36.1775 25.6954 36.1915C25.7929 36.1992 25.8934 36.1697 25.9635 36.0951L27.3249 34.5959L27.3812 34.5399L27.3888 34.5322Z" fill="#213357"/>
<path d="M82.798 40.1621C82.798 40.4778 82.8924 40.7624 83.0264 41.0236C83.0096 41.0439 82.9838 41.0703 82.9624 41.0921L81.8553 42.3035L81.6193 41.3098C81.4647 40.6691 81.3165 40.0268 81.1746 39.383C81.8371 39.0735 82.303 38.3986 82.303 37.6086C82.303 36.5278 81.4426 35.6476 80.3827 35.6476C79.8736 35.6481 79.3855 35.8549 79.0254 36.2225C78.6654 36.5902 78.4629 37.0887 78.4624 37.6086C78.4624 38.2415 78.7777 38.778 79.2345 39.1373C78.9513 39.8728 78.6711 40.6115 78.3909 41.3487L78.2112 41.8152L77.9873 41.2211C77.7252 40.5369 77.4699 39.85 77.2213 39.1606C77.4112 38.9754 77.5624 38.7529 77.6661 38.5065C77.7697 38.2601 77.8235 37.9949 77.8244 37.7268C77.824 37.1953 77.617 36.6856 77.249 36.3098C76.8809 35.934 76.3819 35.7226 75.8614 35.7222C75.3412 35.7231 74.8425 35.9346 74.4748 36.3104C74.1071 36.6861 73.9004 37.1955 73.9 37.7268C73.9 38.5992 74.4574 39.3239 75.2218 39.5976C75.0508 40.2874 74.8843 40.9785 74.7223 41.6706L74.5716 42.3019L74.2213 41.9116C73.9746 41.6364 73.7203 41.3564 73.4508 41.0547C73.597 40.7841 73.702 40.4887 73.702 40.159C73.702 39.1171 72.8721 38.2695 71.8518 38.2695C71.361 38.2697 70.8903 38.4688 70.5431 38.8231C70.1959 39.1773 70.0006 39.6578 70 40.159C70 41.1558 70.766 41.9536 71.7254 42.0236C71.6858 42.0298 71.6553 42.0438 71.6142 42.0485C71.6173 42.0578 71.6218 42.064 71.6249 42.0733L72.0543 43.2381C72.4472 44.3003 72.8401 45.3609 73.2162 46.4292C73.2817 46.6158 73.3731 46.748 73.4827 46.8538V48.7961C73.4827 48.9656 73.6579 49.1476 73.8254 49.1476H82.6731C82.8391 49.1476 83.0173 48.9672 83.0173 48.7961V46.8305C83.0173 46.8102 82.9959 46.7947 82.9914 46.7745C83.0629 46.6858 83.1437 46.6143 83.1909 46.4806C83.4659 45.713 83.7446 44.9469 84.0269 44.1821C84.2806 43.4964 84.5313 42.8095 84.7792 42.1215C84.799 42.0687 84.8325 42.0391 84.8629 42.0049C85.7797 41.8945 86.5 41.1278 86.5 40.1621C86.5 39.1202 85.6701 38.2726 84.6482 38.2726C84.1577 38.2731 83.6873 38.4724 83.3404 38.8266C82.9936 39.1808 82.7985 39.6611 82.798 40.1621ZM79.0681 37.6101C79.0688 37.254 79.2076 36.9126 79.4542 36.6607C79.7008 36.4089 80.0351 36.2671 80.3839 36.2665C81.1103 36.2665 81.6996 36.8699 81.6996 37.6101C81.6996 38.3504 81.1088 38.9522 80.3839 38.9522C80.0353 38.9519 79.701 38.8105 79.4544 38.5589C79.2077 38.3073 79.0689 37.9661 79.0681 37.6101ZM74.5046 37.7299C74.5046 36.9648 75.1137 36.3412 75.8629 36.3412C76.6122 36.3412 77.2228 36.9632 77.2228 37.7299C77.2228 38.4935 76.6137 39.1171 75.8629 39.1171C75.5029 39.1162 75.1579 38.9698 74.9033 38.7099C74.6487 38.4499 74.5054 38.0975 74.5046 37.7299ZM71.8514 41.4357C71.5207 41.4353 71.2037 41.301 70.9699 41.0622C70.7361 40.8235 70.6046 40.4998 70.6042 40.1621C70.6047 39.8246 70.7363 39.5011 70.9701 39.2626C71.204 39.0241 71.5209 38.8901 71.8514 38.89C72.1816 38.8904 72.4983 39.0246 72.7318 39.263C72.9653 39.5015 73.0967 39.8248 73.0971 40.1621C73.0971 40.4996 72.9659 40.8233 72.7323 41.0622C72.4988 41.301 72.1819 41.4353 71.8514 41.4357ZM82.4123 48.5333H74.0869V47.101H82.4123V48.5333ZM84.6478 38.89C84.9783 38.8901 85.2953 39.0241 85.5291 39.2626C85.7629 39.5011 85.8945 39.8246 85.895 40.1621C85.8948 40.4998 85.7634 40.8237 85.5295 41.0625C85.2957 41.3013 84.9786 41.4355 84.6478 41.4357C84.3174 41.4352 84.0006 41.3008 83.767 41.062C83.5335 40.8232 83.4023 40.4996 83.4022 40.1621C83.4027 39.8249 83.5341 39.5016 83.7676 39.2632C84.0011 39.0247 84.3176 38.8905 84.6478 38.89ZM83.3888 41.5322C83.6112 41.7452 83.8914 41.8789 84.1959 41.9598C83.9535 42.6304 83.7088 43.3002 83.4619 43.969C83.1784 44.7353 82.8987 45.503 82.6228 46.2722C82.5589 46.451 82.5239 46.4821 82.3472 46.4821H82.3305C79.6107 46.4666 76.8909 46.465 74.168 46.4837H74.1589C73.9183 46.4837 73.865 46.4448 73.7858 46.2208C73.4065 45.1511 73.0182 44.0848 72.6208 43.022L72.234 41.9723C72.5508 41.9023 72.8401 41.7701 73.0746 41.5555L73.7766 42.3299L74.2807 42.8882C74.3264 42.938 74.3782 42.9831 74.4406 43.036L74.5289 43.1122C74.5666 43.1465 74.6124 43.1703 74.6618 43.1812C74.7111 43.1921 74.7624 43.1897 74.8107 43.1744C74.8588 43.1606 74.9029 43.1347 74.9388 43.0991C74.9747 43.0636 75.0013 43.0194 75.0162 42.9706L75.0482 42.868C75.0802 42.77 75.103 42.6907 75.1228 42.6099L75.3117 41.8152C75.4761 41.1169 75.6421 40.4187 75.8157 39.7204C75.8325 39.7204 75.8462 39.7298 75.8629 39.7298C76.1629 39.7298 76.4401 39.6489 76.6944 39.5245C76.9396 40.1637 77.1832 40.8044 77.4254 41.4435L77.8213 42.4839C77.8426 42.5414 77.8685 42.5959 77.9036 42.6581L77.9401 42.7265C77.9858 42.8198 78.0954 42.8556 78.1959 42.8665C78.3056 42.8898 78.4183 42.8105 78.4822 42.728C78.5127 42.6923 78.5492 42.6441 78.5751 42.5772L78.9589 41.571C79.2277 40.8595 79.4988 40.1488 79.7721 39.439C79.967 39.5074 80.1695 39.5665 80.3873 39.5665C80.4543 39.5665 80.5107 39.5338 80.5746 39.5276L80.5761 39.5354C80.7315 40.173 80.8838 40.8137 81.036 41.4528L81.336 42.7109C81.3574 42.7949 81.3909 42.8633 81.4259 42.9287L81.4685 43.0189C81.5112 43.1122 81.5964 43.1775 81.6954 43.1915C81.7929 43.1992 81.8934 43.1697 81.9635 43.0951L83.3249 41.5959L83.3812 41.5399L83.3888 41.5322Z" fill="#213357"/>
<path d="M51.798 59.1621C51.798 59.4778 51.8924 59.7624 52.0264 60.0236C52.0096 60.0439 51.9838 60.0703 51.9624 60.0921L50.8553 61.3035L50.6193 60.3098C50.4647 59.6691 50.3165 59.0268 50.1746 58.383C50.8371 58.0735 51.303 57.3986 51.303 56.6086C51.303 55.5278 50.4426 54.6476 49.3827 54.6476C48.8736 54.6481 48.3855 54.8549 48.0254 55.2225C47.6654 55.5902 47.4629 56.0887 47.4624 56.6086C47.4624 57.2415 47.7777 57.778 48.2345 58.1373C47.9513 58.8728 47.6711 59.6115 47.3909 60.3487L47.2112 60.8152L46.9873 60.2211C46.7252 59.5369 46.4699 58.85 46.2213 58.1606C46.4112 57.9754 46.5624 57.7529 46.6661 57.5065C46.7697 57.2601 46.8235 56.9949 46.8244 56.7268C46.824 56.1953 46.617 55.6856 46.249 55.3098C45.8809 54.934 45.3819 54.7226 44.8614 54.7222C44.3412 54.7231 43.8425 54.9346 43.4748 55.3104C43.1071 55.6861 42.9004 56.1955 42.9 56.7268C42.9 57.5992 43.4574 58.3239 44.2218 58.5976C44.0508 59.2874 43.8843 59.9785 43.7223 60.6706L43.5716 61.3019L43.2213 60.9116C42.9746 60.6364 42.7203 60.3564 42.4508 60.0547C42.597 59.7841 42.702 59.4887 42.702 59.159C42.702 58.1171 41.8721 57.2695 40.8518 57.2695C40.361 57.2697 39.8903 57.4688 39.5431 57.8231C39.1959 58.1773 39.0006 58.6578 39 59.159C39 60.1558 39.766 60.9536 40.7254 61.0236C40.6858 61.0298 40.6553 61.0438 40.6142 61.0485C40.6173 61.0578 40.6218 61.064 40.6249 61.0733L41.0543 62.2381C41.4472 63.3003 41.8401 64.3609 42.2162 65.4292C42.2817 65.6158 42.3731 65.748 42.4827 65.8538V67.7961C42.4827 67.9656 42.6579 68.1476 42.8254 68.1476H51.6731C51.8391 68.1476 52.0173 67.9672 52.0173 67.7961V65.8305C52.0173 65.8102 51.9959 65.7947 51.9914 65.7745C52.0629 65.6858 52.1437 65.6143 52.1909 65.4806C52.4659 64.713 52.7446 63.9469 53.0269 63.1821C53.2806 62.4964 53.5313 61.8095 53.7792 61.1215C53.799 61.0687 53.8325 61.0391 53.8629 61.0049C54.7797 60.8945 55.5 60.1278 55.5 59.1621C55.5 58.1202 54.6701 57.2726 53.6482 57.2726C53.1577 57.2731 52.6873 57.4724 52.3404 57.8266C51.9936 58.1808 51.7985 58.6611 51.798 59.1621ZM48.0681 56.6101C48.0688 56.254 48.2076 55.9126 48.4542 55.6607C48.7008 55.4089 49.0351 55.2671 49.3839 55.2665C50.1103 55.2665 50.6996 55.8699 50.6996 56.6101C50.6996 57.3504 50.1088 57.9522 49.3839 57.9522C49.0353 57.9519 48.701 57.8105 48.4544 57.5589C48.2077 57.3073 48.0689 56.9661 48.0681 56.6101ZM43.5046 56.7299C43.5046 55.9648 44.1137 55.3412 44.8629 55.3412C45.6122 55.3412 46.2228 55.9632 46.2228 56.7299C46.2228 57.4935 45.6137 58.1171 44.8629 58.1171C44.5029 58.1162 44.1579 57.9698 43.9033 57.7099C43.6487 57.4499 43.5054 57.0975 43.5046 56.7299ZM40.8514 60.4357C40.5207 60.4353 40.2037 60.301 39.9699 60.0622C39.7361 59.8235 39.6046 59.4998 39.6042 59.1621C39.6047 58.8246 39.7363 58.5011 39.9701 58.2626C40.204 58.0241 40.5209 57.8901 40.8514 57.89C41.1816 57.8904 41.4983 58.0246 41.7318 58.263C41.9653 58.5015 42.0967 58.8248 42.0971 59.1621C42.0971 59.4996 41.9659 59.8233 41.7323 60.0622C41.4988 60.301 41.1819 60.4353 40.8514 60.4357ZM51.4123 67.5333H43.0869V66.101H51.4123V67.5333ZM53.6478 57.89C53.9783 57.8901 54.2953 58.0241 54.5291 58.2626C54.7629 58.5011 54.8945 58.8246 54.895 59.1621C54.8948 59.4998 54.7634 59.8237 54.5295 60.0625C54.2957 60.3013 53.9786 60.4355 53.6478 60.4357C53.3174 60.4352 53.0006 60.3008 52.767 60.062C52.5335 59.8232 52.4023 59.4996 52.4022 59.1621C52.4027 58.8249 52.5341 58.5016 52.7676 58.2632C53.0011 58.0247 53.3176 57.8905 53.6478 57.89ZM52.3888 60.5322C52.6112 60.7452 52.8914 60.8789 53.1959 60.9598C52.9535 61.6304 52.7088 62.3002 52.4619 62.969C52.1784 63.7353 51.8987 64.503 51.6228 65.2722C51.5589 65.451 51.5239 65.4821 51.3472 65.4821H51.3305C48.6107 65.4666 45.8909 65.465 43.168 65.4837H43.1589C42.9183 65.4837 42.865 65.4448 42.7858 65.2208C42.4065 64.1511 42.0182 63.0848 41.6208 62.022L41.234 60.9723C41.5508 60.9023 41.8401 60.7701 42.0746 60.5555L42.7766 61.3299L43.2807 61.8882C43.3264 61.938 43.3782 61.9831 43.4406 62.036L43.5289 62.1122C43.5666 62.1465 43.6124 62.1703 43.6618 62.1812C43.7111 62.1921 43.7624 62.1897 43.8107 62.1744C43.8588 62.1606 43.9029 62.1347 43.9388 62.0991C43.9747 62.0636 44.0013 62.0194 44.0162 61.9706L44.0482 61.868C44.0802 61.77 44.103 61.6907 44.1228 61.6099L44.3117 60.8152C44.4761 60.1169 44.6421 59.4187 44.8157 58.7204C44.8325 58.7204 44.8462 58.7298 44.8629 58.7298C45.1629 58.7298 45.4401 58.6489 45.6944 58.5245C45.9396 59.1637 46.1832 59.8044 46.4254 60.4435L46.8213 61.4839C46.8426 61.5414 46.8685 61.5959 46.9036 61.6581L46.9401 61.7265C46.9858 61.8198 47.0954 61.8556 47.1959 61.8665C47.3056 61.8898 47.4183 61.8105 47.4822 61.728C47.5127 61.6923 47.5492 61.6441 47.5751 61.5772L47.9589 60.571C48.2277 59.8595 48.4988 59.1488 48.7721 58.439C48.967 58.5074 49.1695 58.5665 49.3873 58.5665C49.4543 58.5665 49.5107 58.5338 49.5746 58.5276L49.5761 58.5354C49.7315 59.173 49.8838 59.8137 50.036 60.4528L50.336 61.7109C50.3574 61.7949 50.3909 61.8633 50.4259 61.9287L50.4685 62.0189C50.5112 62.1122 50.5964 62.1775 50.6954 62.1915C50.7929 62.1992 50.8934 62.1697 50.9635 62.0951L52.3249 60.5959L52.3812 60.5399L52.3888 60.5322Z" fill="#213357"/>
</svg>
